# Blender 4.2.2 LTS
# www.blender.org
mtllib Kay_Tree2.mtl
o Tree_1_B_Color1
v -0.091605 6.682555 -0.205784
v -0.195372 6.682555 -0.085421
v -0.195372 6.682555 0.085422
v -0.091605 6.682555 0.205786
v 0.052605 6.682555 0.205868
v 0.153634 6.682555 0.085504
v 0.153634 6.682555 -0.085505
v 0.052605 6.682555 -0.205869
v 0.000003 -0.965415 0.000000
v 0.718734 4.894846 -0.157516
v 1.116255 3.253437 -0.261916
v 1.012205 4.084040 -0.215199
v 0.718734 4.894846 0.157518
v 1.116255 3.253437 0.261916
v 1.012205 4.084040 0.215199
v 0.441809 4.903596 0.340075
v 0.673602 3.237483 0.587050
v 0.630078 4.077557 0.466816
v 0.136746 4.900092 0.292933
v 0.201523 4.068663 0.400496
v -0.032345 4.895129 0.111395
v -0.168173 3.228277 0.201200
v -0.035705 4.061823 0.151211
v -0.032345 4.895129 -0.111393
v -0.168173 3.228277 -0.201198
v -0.035705 4.061823 -0.151211
v 0.673602 3.237483 -0.587050
v 0.441809 4.903596 -0.340073
v 0.630078 4.077557 -0.466814
v 0.136746 4.900092 -0.292931
v 0.143871 3.231727 -0.522417
v 0.201523 4.068663 -0.400496
v -0.448572 1.239444 -1.122415
v -0.058643 2.506463 -0.697146
v -0.274864 1.886666 -0.912708
v -0.996973 1.446869 -0.429311
v -0.381343 2.688009 -0.252699
v -0.694587 2.082621 -0.337205
v -0.996973 1.446869 0.429314
v -0.381343 2.688009 0.252699
v -0.694587 2.082621 0.337204
v 0.487380 0.950593 1.221046
v 0.566863 2.241849 0.828332
v 0.505219 1.608552 1.044052
v 1.227962 0.750533 0.526963
v 1.126528 2.047174 0.380326
v 1.164014 1.410907 0.464662
v 1.227962 0.750533 -0.526963
v 1.126528 2.047174 -0.380327
v 1.164014 1.410907 -0.464662
v 0.654967 2.954372 0.440838
v 3.472520 4.665875 -2.103968
v 0.278581 3.130744 0.341468
v 3.386480 4.743596 -2.152605
v 0.026932 3.130744 0.003037
v 3.312553 4.743596 -2.252029
v 0.040280 2.954372 -0.385827
v 3.290767 4.665875 -2.348398
v 0.320732 2.699259 -0.597567
v 3.336496 4.551600 -2.385816
v 0.700959 2.519833 -0.500934
v 3.424656 4.468856 -2.338853
v 0.955770 2.519833 -0.158252
v 3.501989 4.468856 -2.234854
v 0.938692 2.699259 0.233500
v 3.521553 4.551600 -2.136939
v 2.669699 4.091533 -1.333433
v 2.587707 3.917412 -1.484333
v 2.441985 3.917412 -1.680308
v 2.321067 4.091533 -1.802294
v 2.296303 4.331983 -1.778209
v 2.378733 4.496688 -1.627567
v 2.518941 4.496688 -1.439009
v 2.639486 4.331983 -1.316678
v 1.826873 4.278166 -0.586589
v 1.640432 4.490919 -0.736388
v 1.452268 4.490919 -0.989440
v 1.362528 4.278166 -1.211071
v 1.426972 3.960599 -1.274413
v 1.618457 3.723484 -1.128448
v 1.821526 3.723484 -0.855347
v 1.906142 3.960599 -0.629997
v 1.391227 3.571256 -0.153114
v 1.373769 3.344083 -0.482709
v 1.132340 3.344083 -0.807398
v 0.821617 3.571256 -0.919157
v 0.634973 3.877542 -0.763600
v 0.668612 4.085696 -0.445993
v 0.893809 4.085696 -0.143135
v 1.188379 3.877542 -0.019349
v 4.074930 5.401515 -2.646575
v 4.013130 5.414639 -2.656242
v 3.975758 5.414639 -2.706503
v 3.984318 5.401515 -2.768436
v 4.033456 5.381516 -2.809395
v 4.099601 5.363418 -2.802649
v 4.140954 5.363418 -2.747035
v 4.128339 5.381516 -2.681790
v 0.414752 -0.632281 -1.012483
v 1.001318 -0.632261 -0.419392
v 1.001318 -0.632261 0.419392
v 0.414752 -0.632281 1.012483
v -0.414749 -0.632281 1.012483
v -1.001315 -0.632261 0.419392
v -1.001315 -0.632261 -0.419392
v -0.414749 -0.632281 -1.012483
v -0.040665 3.484061 0.193792
v -0.061950 3.363785 0.069779
v -0.061950 3.363785 -0.102660
v -0.040665 3.484061 -0.226673
v -0.009613 3.657395 -0.227545
v 0.012515 3.779339 -0.103523
v 0.012515 3.779339 0.070643
v -0.009613 3.657395 0.194664
v -1.137248 4.383136 -0.016439
v -0.912798 3.881186 0.134554
v -0.977182 3.824988 0.044981
v -0.977182 3.824988 -0.077859
v -0.912798 3.881186 -0.167432
v -0.817555 3.964036 -0.171138
v -0.747416 4.024887 -0.081562
v -0.747416 4.024887 0.048684
v -0.817552 3.964036 0.138257
v -0.504665 3.740106 0.174424
v -0.454318 3.843346 0.063990
v -0.454318 3.843346 -0.096871
v -0.504665 3.740106 -0.207304
v -0.573754 3.600498 -0.202905
v -0.621317 3.505740 -0.092528
v -0.621317 3.505740 0.059651
v -0.573754 3.600498 0.170024
v -1.196843 4.313138 0.019428
v -1.196843 4.313138 -0.052305
v -1.092343 4.378892 0.073604
v -1.154548 4.339669 0.071631
v -1.046767 4.407681 0.021404
v -1.092343 4.378892 -0.106482
v -1.046767 4.407681 -0.054284
v -1.154548 4.339669 -0.104509
v -2.138790 12.560798 -1.072523
v -3.464042 11.675245 -0.000001
v -1.125897 12.961424 0.000002
v -2.831288 11.703401 -1.922397
v -0.967427 12.184449 -2.548012
v -0.037016 12.989468 -1.072520
v -2.138790 12.560798 1.072521
v -0.967430 12.184449 2.548012
v -0.037016 12.989468 1.072524
v -2.831291 11.703401 1.922398
v -2.322219 11.001898 3.238388
v -3.963039 10.667241 1.563784
v -4.435820 9.226430 1.990590
v -4.557766 10.390594 -0.000001
v -5.065817 9.082373 -0.000001
v -3.963039 10.667241 -1.563786
v -4.435820 9.226433 -1.990592
v -2.322216 11.001898 -3.238386
v -2.477169 9.625913 -3.989568
v -0.759557 11.165265 -3.876403
v -0.523682 10.008769 -4.635643
v 0.742261 11.626922 -3.238384
v 1.423708 10.421523 -3.989564
v 2.383084 11.961578 -1.563783
v 0.935949 12.471757 -1.922397
v 1.529184 12.693647 0.000002
v 0.935949 12.471757 1.922398
v 2.383084 11.961578 1.563784
v 3.038651 11.939936 0.000002
v 4.018450 10.935170 0.000002
v 4.514053 9.711864 0.000002
v 3.382359 10.821003 -1.990592
v 3.382355 10.821003 1.990593
v 3.859742 9.578414 2.102937
v 1.423705 10.421523 3.989569
v 0.742261 11.626922 3.238388
v 1.796159 9.157534 4.209003
v -0.523685 10.008769 4.635644
v -0.759560 11.165265 3.876404
v -0.264356 8.737278 4.876780
v -2.477172 9.625910 3.989566
v -2.324868 8.317020 4.209000
v -2.008898 7.282848 4.002998
v -4.388452 7.896139 2.102931
v -3.971483 6.882567 2.000009
v -5.042757 7.762689 -0.000001
v -4.593763 6.755647 -0.000001
v -4.388449 7.896139 -2.102936
v -3.971481 6.882567 -2.000010
v -2.324866 8.317020 -4.209001
v -2.008895 7.282847 -4.002996
v -0.264353 8.737276 -4.876778
v -0.049231 7.682533 -4.638091
v 1.796162 9.157530 -4.209001
v 1.910433 8.082220 -4.002996
v 3.859745 9.578414 -2.102933
v 3.873019 8.482501 -2.000007
v 3.447940 7.457832 -1.691600
v 4.495301 8.609424 0.000002
v 3.975390 7.565412 0.000002
v 3.873019 8.482504 2.000011
v 3.447937 7.457832 1.691605
v 2.341078 6.830364 1.093087
v 1.791913 7.120076 3.381721
v 1.910431 8.082224 4.003001
v -0.049234 7.682538 4.638093
v 0.134433 6.782022 3.920033
v 0.213093 6.396348 2.521587
v -1.523047 6.443971 3.381718
v -0.857940 6.177907 2.171791
v -3.179069 6.106211 1.691602
v -1.914886 5.962332 1.093084
v -3.706521 5.998634 -0.000000
v -2.257628 5.892428 -0.000000
v -3.179069 6.106211 -1.691603
v -1.914886 5.962332 -1.093085
v -1.523044 6.443967 -3.381719
v -0.857940 6.177901 -2.171789
v 0.134436 6.782021 -3.920031
v 0.213096 6.396348 -2.521585
v 1.791915 7.120072 -3.381719
v 1.284131 6.614791 -2.171789
v 2.341078 6.830364 -1.093082
v 0.228626 6.320207 0.000002
v 2.683816 6.900268 0.000002
v 1.284128 6.614791 2.171791
v 3.654751 8.710244 -2.571111
v 3.149835 8.524899 -2.218591
v 4.015018 8.785912 -2.214858
v 3.356638 8.493553 -2.861015
v 3.998690 8.497842 -3.071266
v 3.655632 8.697168 -1.860742
v 4.000794 8.466521 -1.369591
v 3.358223 8.469944 -1.578271
v 3.441556 8.158383 -1.096867
v 2.856585 8.198514 -1.680492
v 2.619741 8.160320 -2.224647
v 2.331676 7.665676 -1.428682
v 3.153758 7.609281 -0.608491
v 1.865177 6.737029 -1.225882
v 2.075516 7.692657 -2.232581
v 1.538690 6.772215 -2.248858
v 2.329686 7.695290 -3.037562
v 1.862643 6.774712 -3.273239
v 3.149736 7.669149 -3.861300
v 2.855240 8.218522 -2.767610
v 3.438765 8.199923 -3.353762
v 3.978428 8.117011 -3.589448
v 4.524697 8.145342 -3.356109
v 3.952947 7.632816 -4.118463
v 3.904806 6.696796 -4.625624
v 4.756858 7.588372 -3.864776
v 4.927769 6.639408 -4.302257
v 5.578940 7.531977 -3.044585
v 5.950304 6.569260 -3.282077
v 5.835036 7.503700 -2.240709
v 5.109669 8.105213 -2.772484
v 4.849649 8.439462 -2.222266
v 5.340483 8.023575 -2.230529
v 4.637978 8.429152 -2.863784
v 4.364345 8.674579 -2.572645
v 4.365222 8.661503 -1.862276
v 4.639563 8.405542 -1.581043
v 5.111013 8.085204 -1.685367
v 4.527488 8.103803 -1.099214
v 3.981796 8.066883 -0.865728
v 4.760880 7.528506 -0.611965
v 4.932830 6.564091 -0.210124
v 5.580930 7.502367 -1.435705
v 3.957604 7.563546 -0.354827
v 3.910672 6.609494 0.117665
v 2.887709 6.666881 -0.205702
v 3.867790 5.756528 0.112661
v 3.843380 5.286216 -0.244111
v 4.894173 5.710935 -0.216408
v 2.840602 5.814150 -0.211967
v 2.966086 5.335435 -0.521656
v 1.812929 5.884651 -1.237276
v 2.089055 5.395604 -1.396668
v 2.701025 5.092947 -1.713352
v 1.808835 5.425789 -2.273974
v 1.485168 5.919980 -2.264479
v 1.810387 5.922488 -3.293092
v 2.086884 5.427918 -3.152488
v 2.699621 5.113842 -2.848667
v 2.961744 5.400032 -4.031285
v 2.835517 5.889811 -4.322837
v 3.861897 5.844218 -4.651903
v 2.882651 6.742197 -4.297835
v 3.838350 5.361096 -4.312624
v 3.825317 5.070866 -3.592947
v 4.715644 5.311874 -4.035076
v 4.889089 5.786594 -4.327275
v 5.916761 5.716095 -3.301969
v 5.592675 5.251710 -3.160066
v 4.952850 5.000586 -2.853539
v 5.872898 5.221523 -2.282760
v 6.244522 5.680767 -2.274766
v 5.919304 5.678259 -1.246150
v 6.276791 6.534073 -2.259100
v 5.594846 5.219397 -1.404246
v 4.954254 4.979694 -1.718224
v 4.719986 5.247283 -0.525449
v 4.395368 4.997512 -1.156824
v 3.828558 5.022666 -0.973942
v 3.823126 4.970981 -2.284835
v 3.258507 5.096026 -3.410067
v 4.392579 5.039020 -3.412519
v 5.135007 4.981019 -2.286273
v 3.261295 5.054510 -1.154372
v 2.518867 5.112514 -2.280617
v 5.952835 6.531579 -1.234720
v 0.155474 3.255787 0.500115
v -0.440082 1.213743 1.104569
v 0.030123 2.468912 0.715762
v -0.116386 2.538946 0.617617
v -0.013237 2.470704 0.600658
v -0.332797 1.913712 0.833272
v -0.184057 1.854290 0.927997
v -0.229730 1.848778 0.815823
v 0.562561 2.269965 -0.797360
v 0.480396 0.929933 -1.199260
v 0.576409 1.587193 -0.981443
v 0.410305 1.642391 -1.028072
v 0.474389 1.594256 -0.955821
v 0.491917 -0.284500 -1.200857
v 0.526629 0.208009 -1.292635
v 1.284395 0.209260 -0.542080
v 1.187589 -0.284512 -0.497409
v 1.284395 0.209254 0.542080
v 1.187589 -0.284512 0.497409
v 0.528746 0.208731 1.298917
v 0.491917 -0.284500 1.200857
v -0.522216 0.206217 1.281009
v -0.491917 -0.284500 1.200857
v -1.257606 0.205025 0.528755
v -1.187589 -0.284512 0.497409
v -1.257609 0.205019 -0.528755
v -1.187589 -0.284512 -0.497409
v -0.524282 0.206975 -1.285368
v -0.491917 -0.284500 -1.200857
vn -0.8384 0.4256 -0.3404
vn -0.8358 0.4278 0.3441
vn -0.8840 0.2826 0.3723
vn -0.8889 0.2802 -0.3625
vn 0.3087 0.2350 0.9217
vn 0.9063 0.0932 0.4122
vn 0.8951 0.0998 0.4346
vn 0.2671 0.1664 0.9492
vn 0.3099 0.2298 -0.9226
vn -0.3838 0.3644 -0.8485
vn -0.4181 0.2332 -0.8780
vn 0.2731 0.1583 -0.9489
vn -0.0883 0.2933 0.9519
vn -0.4217 0.2273 0.8778
vn 0.9032 0.0970 -0.4182
vn 0.8930 0.0978 -0.4393
vn 0.3307 0.2479 0.9106
vn -0.0497 0.3037 0.9515
vn -0.4103 0.2552 0.8755
vn 0.3356 0.1795 0.9248
vn -0.4032 0.0015 0.9151
vn 0.3697 -0.0318 0.9286
vn -0.3995 -0.0005 -0.9167
vn -0.9284 0.0236 -0.3709
vn -0.8802 0.3261 -0.3449
vn -0.4020 0.2639 -0.8768
vn -0.3659 -0.3343 -0.8685
vn 0.3599 -0.3432 -0.8675
vn 0.2584 -0.7426 -0.6179
vn -0.2584 -0.7426 -0.6179
vn 0.8674 -0.3476 0.3562
vn 0.3591 -0.3453 0.8671
vn 0.2584 -0.7426 0.6179
vn 0.6210 -0.7413 0.2548
vn -0.6552 0.3993 0.6413
vn -0.8252 0.4525 0.3380
vn -0.8779 0.3247 0.3519
vn 0.6677 0.1557 -0.7279
vn 0.9065 0.1274 -0.4025
vn 0.9095 0.1231 -0.3971
vn 0.3433 0.1736 -0.9230
vn 0.8441 0.3084 -0.4387
vn 0.2416 0.1682 -0.9557
vn 0.2411 0.1285 -0.9620
vn 0.8563 0.2788 -0.4348
vn -0.4582 0.0360 -0.8881
vn -0.4794 -0.0131 -0.8775
vn -0.9307 -0.0303 0.3645
vn -0.4582 0.0360 0.8881
vn -0.4794 -0.0131 0.8775
vn -0.9336 -0.0812 0.3490
vn 0.2416 0.1682 0.9557
vn 0.2411 0.1285 0.9620
vn -0.9307 -0.0303 -0.3645
vn -0.9336 -0.0812 -0.3490
vn 0.8441 0.3084 0.4387
vn 0.8563 0.2788 0.4348
vn 0.9229 -0.0466 0.3821
vn 0.9217 -0.0416 -0.3856
vn 0.9124 0.1224 0.3906
vn 0.8675 -0.3461 -0.3572
vn 0.6210 -0.7413 -0.2548
vn -0.9267 0.0269 0.3748
vn -0.8760 -0.3224 0.3587
vn -0.8759 -0.3235 -0.3579
vn -0.6210 -0.7413 -0.2548
vn -0.6210 -0.7413 0.2548
vn 0.3738 -0.0270 -0.9271
vn 0.8641 0.2334 -0.4460
vn 0.2356 0.1735 -0.9562
vn 0.8641 0.2334 0.4460
vn 0.2302 0.1705 0.9581
vn -0.4459 0.1124 0.8880
vn -0.6564 0.3969 0.6416
vn -0.9201 0.0925 0.3807
vn -0.9224 0.0956 -0.3742
vn -0.4466 0.1196 -0.8867
vn -0.3709 0.3867 -0.8443
vn -0.8248 0.4564 -0.3338
vn -0.0243 0.3014 -0.9532
vn -0.3669 -0.3335 0.8684
vn -0.2584 -0.7426 0.6179
vn 0.9092 0.1283 0.3961
vn 0.5016 0.4526 0.7372
vn 0.5748 0.3927 0.7179
vn 0.1596 0.9206 0.3565
vn 0.0687 0.9167 0.3937
vn 0.0436 -0.8345 -0.5493
vn 0.0140 -0.8758 -0.4825
vn 0.4659 -0.8759 0.1258
vn 0.5383 -0.8346 0.1167
vn 0.7009 -0.3513 0.6208
vn 0.7773 -0.3038 0.5509
vn 0.4776 0.3483 0.8066
vn -0.0796 0.8315 0.5498
vn -0.2952 0.9206 -0.2557
vn -0.3570 0.9167 -0.1793
vn -0.5492 0.8316 -0.0824
vn -0.6343 0.3484 -0.6902
vn -0.5212 0.3927 -0.7577
vn -0.2295 0.7506 0.6196
vn -0.6594 0.7507 0.0412
vn 0.7131 -0.2630 0.6499
vn -0.5609 0.4527 -0.6932
vn -0.7238 0.3767 -0.5781
vn 0.8197 -0.1823 0.5430
vn 0.7719 -0.1873 0.6076
vn 0.3445 0.3766 0.8599
vn 0.3115 0.2742 0.9098
vn -0.7811 0.2743 -0.5609
vn -0.3588 -0.1871 -0.9145
vn -0.2833 -0.1822 -0.9416
vn 0.2792 -0.6299 -0.7247
vn 0.7743 -0.6301 -0.0585
vn -0.7959 0.5920 0.1272
vn 0.6655 -0.7455 -0.0360
vn -0.3919 -0.3512 -0.8503
vn -0.4162 -0.2629 -0.8704
vn -0.3031 -0.3037 -0.9033
vn 0.2263 -0.7454 -0.6270
vn -0.3513 0.5919 0.7254
vn 0.3994 -0.4958 -0.7711
vn 0.8534 -0.4960 -0.1603
vn 0.3607 -0.6281 -0.6895
vn 0.7641 -0.6282 -0.1466
vn -0.6984 0.2801 -0.6587
vn -0.2214 -0.2899 -0.9311
vn 0.8275 -0.2900 0.4807
vn 0.4290 0.2800 0.8588
vn -0.2286 0.7107 0.6653
vn -0.7028 0.7109 0.0272
vn -0.0000 -1.0000 -0.0000
vn -0.4013 -0.2146 0.8905
vn -0.4216 -0.0985 0.9014
vn -0.8570 -0.3655 0.3634
vn -0.7606 -0.5431 0.3557
vn 0.5914 0.6953 -0.4085
vn 0.7131 0.5847 -0.3869
vn 0.7131 0.5847 0.3869
vn 0.5914 0.6953 0.4085
vn -0.8570 -0.3655 -0.3634
vn -0.7606 -0.5431 -0.3557
vn -0.4450 -0.8199 0.3602
vn -0.4450 -0.8199 -0.3602
vn 0.2341 0.2984 0.9253
vn 0.1550 0.2954 0.9427
vn -0.4013 -0.2146 -0.8905
vn -0.2405 -0.3715 -0.8968
vn 0.0240 0.3800 0.9247
vn 0.0635 0.3188 0.9457
vn -0.2405 -0.3715 0.8968
vn -0.1252 -0.3830 0.9152
vn -0.1252 -0.3830 -0.9152
vn 0.0635 0.3188 -0.9457
vn 0.0240 0.3800 -0.9247
vn 0.2948 0.8630 -0.4103
vn 0.2948 0.8630 0.4103
vn -0.2332 -0.8988 -0.3712
vn -0.4216 -0.0985 -0.9014
vn 0.2341 0.2984 -0.9253
vn 0.1550 0.2954 -0.9427
vn -0.2332 -0.8988 0.3712
vn 0.1210 0.9171 -0.3799
vn 0.1210 0.9171 0.3799
vn -0.5358 0.8443 -0.0000
vn -0.7302 0.6752 -0.1046
vn -0.7302 0.6752 0.1046
vn -0.6062 0.7540 0.2531
vn -0.4291 0.8666 0.2548
vn -0.3015 0.9475 0.1063
vn -0.3015 0.9475 -0.1063
vn -0.4291 0.8666 -0.2548
vn -0.6062 0.7540 -0.2531
vn -0.6902 0.7236 -0.0000
vn -0.4217 0.8748 -0.2384
vn -0.5751 0.6998 -0.4237
vn -0.4217 0.8748 0.2384
vn -0.1998 0.9798 -0.0000
vn 0.0454 0.9701 -0.2384
vn -0.1693 0.8298 -0.5317
vn -0.1693 0.8298 0.5317
vn -0.5751 0.6998 0.4237
vn 0.0454 0.9701 0.2384
vn -0.5002 0.5692 0.6525
vn -0.7708 0.5140 0.3764
vn -0.8719 0.4897 -0.0000
vn -0.8514 0.1944 0.4871
vn -0.9855 0.1694 -0.0000
vn -0.5494 0.2560 0.7954
vn -0.7708 0.5140 -0.3764
vn -0.8514 0.1944 -0.4871
vn -0.5002 0.5692 -0.6525
vn -0.5494 0.2560 -0.7954
vn -0.1307 0.6409 -0.7564
vn -0.0725 0.3556 -0.9318
vn 0.2373 0.7196 -0.6525
vn 0.4052 0.4507 -0.7954
vn 0.5079 0.7748 -0.3764
vn 0.7073 0.5123 -0.4871
vn 0.2551 0.8692 -0.4237
vn 0.3517 0.9361 -0.0000
vn 0.2551 0.8692 0.4237
vn 0.5079 0.7748 0.3764
vn 0.6105 0.7921 -0.0000
vn 0.8405 0.5418 -0.0000
vn 0.7073 0.5123 0.4871
vn 0.9826 0.1856 -0.0000
vn 0.8405 0.1580 0.5182
vn 0.8405 0.1580 -0.5182
vn 0.2373 0.7196 0.6525
vn 0.4052 0.4507 0.7954
vn 0.5104 0.0907 0.8552
vn -0.1307 0.6409 0.7564
vn -0.0725 0.3556 0.9318
vn 0.0029 -0.0143 0.9999
vn -0.5051 -0.1164 0.8552
vn -0.8353 -0.1838 0.5182
vn -0.6863 -0.5511 0.4746
vn -0.3846 -0.4895 0.7826
vn 0.0821 -0.4027 0.9117
vn -0.9768 -0.2141 -0.0000
vn -0.8111 -0.5850 -0.0000
vn -0.8353 -0.1838 -0.5182
vn -0.6863 -0.5511 -0.4746
vn -0.5051 -0.1164 -0.8552
vn -0.3846 -0.4895 -0.7826
vn 0.0029 -0.0143 -0.9999
vn 0.0821 -0.4027 -0.9117
vn 0.5104 0.0907 -0.8552
vn 0.5456 -0.2998 -0.7826
vn 0.8473 -0.2383 -0.4746
vn 0.9754 -0.2206 -0.0000
vn 0.6606 -0.6819 -0.3142
vn 0.8473 -0.2383 0.4746
vn 0.7447 -0.6674 -0.0000
vn 0.6606 -0.6819 0.3142
vn 0.5456 -0.2998 0.7826
vn 0.4679 -0.7212 0.5109
vn 0.2887 -0.9457 0.1494
vn 0.3431 -0.9346 0.0939
vn 0.3683 -0.9297 -0.0000
vn 0.1604 -0.7867 0.5961
vn 0.1968 -0.9647 0.1751
vn -0.1481 -0.8468 0.5109
vn 0.1047 -0.9832 0.1494
vn -0.3408 -0.8861 0.3142
vn 0.0503 -0.9943 0.0939
vn -0.4238 -0.9058 -0.0000
vn 0.0252 -0.9997 -0.0000
vn -0.3408 -0.8861 -0.3142
vn 0.0503 -0.9943 -0.0939
vn -0.1481 -0.8468 -0.5109
vn 0.1047 -0.9832 -0.1494
vn 0.1604 -0.7867 -0.5961
vn 0.1968 -0.9647 -0.1751
vn 0.4679 -0.7212 -0.5109
vn 0.2887 -0.9457 -0.1494
vn 0.3431 -0.9346 -0.0939
vn 0.1998 -0.9798 -0.0000
vn -0.4841 0.8749 0.0167
vn -0.2040 0.9508 -0.2333
vn -0.3738 0.8374 -0.3987
vn -0.2034 0.9415 0.2686
vn 0.0502 0.9986 0.0183
vn 0.2973 0.9256 -0.2344
vn 0.2979 0.9163 0.2675
vn 0.5694 0.8219 0.0144
vn 0.0420 0.8581 -0.5118
vn 0.0433 0.8387 0.5429
vn -0.3728 0.8222 0.4302
vn -0.2955 0.7479 0.5944
vn -0.5418 0.7648 0.3488
vn -0.6205 0.7840 0.0152
vn -0.6681 0.6022 0.4370
vn -0.3947 0.5835 0.7098
vn -0.7806 0.6249 0.0125
vn -0.8196 0.2601 0.5106
vn -0.4915 0.2376 0.8378
vn -0.9597 0.2811 0.0064
vn -0.8208 0.2787 -0.4986
vn -0.6691 0.6179 -0.4129
vn -0.5426 0.7770 -0.3191
vn -0.4936 0.2683 -0.8273
vn -0.3964 0.6092 -0.6868
vn -0.2970 0.7692 -0.5658
vn 0.0370 0.7631 -0.6453
vn 0.0284 0.5991 -0.8002
vn 0.3702 0.7357 -0.5672
vn 0.4525 0.5665 -0.6887
vn 0.0105 0.2502 -0.9681
vn 0.5144 0.2176 -0.8295
vn 0.8425 0.1951 -0.5022
vn 0.7259 0.5478 -0.4159
vn 0.6164 0.7188 -0.3216
vn 0.9830 0.1835 0.0022
vn 0.8394 0.5435 0.0090
vn 0.6961 0.7178 0.0124
vn 0.4542 0.7958 -0.4005
vn 0.4552 0.7806 0.4284
vn 0.6172 0.7065 0.3463
vn 0.3716 0.7143 0.5930
vn 0.0386 0.7388 0.6728
vn 0.4543 0.5408 0.7079
vn 0.7270 0.5321 0.4340
vn 0.0304 0.5693 0.8216
vn 0.0129 0.2144 0.9767
vn 0.5165 0.1870 0.8356
vn 0.8437 0.1765 0.5070
vn 0.4824 -0.3228 0.8143
vn -0.0133 -0.3048 0.9523
vn -0.5088 -0.2730 0.8165
vn -0.0378 -0.7789 0.6260
vn -0.3748 -0.7559 0.5369
vn -0.5875 -0.7412 0.3246
vn -0.8333 -0.2508 0.4927
vn -0.9710 -0.2391 -0.0032
vn -0.2522 -0.9613 0.1104
vn -0.6780 -0.7350 -0.0127
vn -0.2868 -0.9578 -0.0173
vn -0.1761 -0.9666 0.1864
vn -0.5883 -0.7288 -0.3502
vn -0.8345 -0.2325 -0.4995
vn -0.5108 -0.2428 -0.8247
vn -0.2525 -0.9566 -0.1451
vn -0.3762 -0.7356 -0.5634
vn -0.1766 -0.9591 -0.2214
vn -0.0394 -0.7554 -0.6541
vn -0.0156 -0.2695 -0.9629
vn 0.4803 -0.2926 -0.8268
vn -0.0491 -0.9654 -0.2561
vn 0.2981 -0.7695 -0.5648
vn 0.0786 -0.9719 -0.2219
vn 0.5108 -0.7841 -0.3526
vn 0.8049 -0.3149 -0.5030
vn 0.9421 -0.3353 -0.0073
vn 0.1547 -0.9771 -0.1460
vn 0.6008 -0.7992 -0.0155
vn 0.1893 -0.9818 -0.0183
vn 0.5116 -0.7965 0.3223
vn 0.8061 -0.3332 0.4891
vn 0.2994 -0.7897 0.5354
vn 0.0791 -0.9794 0.1858
vn 0.1550 -0.9818 0.1095
vn -0.0485 -0.9742 0.2205
vn -0.0502 -0.9986 -0.0183
vn -0.2196 0.2498 -0.9431
vn -0.2135 0.2948 -0.9314
vn -0.2141 0.2905 -0.9326
vn 0.7638 0.0512 -0.6434
vn 0.7859 0.1437 -0.6014
vn 0.7815 0.1220 -0.6119
vn -0.2076 0.3349 -0.9191
vn 0.7972 0.2141 -0.5645
vn -0.8480 0.4187 0.3249
vn -0.8795 0.3367 0.3364
vn -0.8854 0.3186 0.3384
vn -0.8486 0.4172 0.3252
vn 0.3192 0.2610 0.9111
vn 0.2628 0.1619 0.9512
vn 0.2500 0.1406 0.9580
vn 0.3136 0.2506 0.9159
vn -0.8448 0.4267 0.3230
vn 0.3371 0.2949 0.8941
vn -0.9074 0.2392 0.3455
vn 0.2125 0.0791 0.9740
vt 0.048775 0.616258
vt 0.051341 0.624291
vt 0.060189 0.609624
vt 0.066926 0.606730
vt 0.066802 0.624665
vt 0.061474 0.624428
vt 0.059055 0.610216
vt 0.052659 0.613559
vt 0.055097 0.624342
vt 0.052659 0.629184
vt 0.048775 0.631883
vt 0.051341 0.639916
vt 0.055097 0.639967
vt 0.053728 0.628625
vt 0.060189 0.625249
vt 0.061474 0.640053
vt 0.056290 0.639983
vt 0.066926 0.622355
vt 0.059447 0.615833
vt 0.051150 0.619487
vt 0.049076 0.609922
vt 0.059232 0.606051
vt 0.047041 0.594771
vt 0.059730 0.595021
vt 0.047881 0.608924
vt 0.047054 0.594994
vt 0.038227 0.594965
vt 0.041364 0.613429
vt 0.047965 0.610345
vt 0.047444 0.572062
vt 0.059287 0.572062
vt 0.058358 0.566891
vt 0.048373 0.566891
vt 0.067661 0.572062
vt 0.065418 0.566892
vt 0.049359 0.604746
vt 0.045004 0.607257
vt 0.041364 0.597804
vt 0.047236 0.595061
vt 0.060304 0.599891
vt 0.067377 0.597270
vt 0.068147 0.587451
vt 0.060069 0.590146
vt 0.062017 0.649069
vt 0.058683 0.649200
vt 0.053998 0.675649
vt 0.055214 0.675649
vt 0.055011 0.649147
vt 0.052262 0.675649
vt 0.052976 0.649074
vt 0.051013 0.675649
vt 0.055011 0.664772
vt 0.058683 0.664825
vt 0.053998 0.691274
vt 0.052262 0.691274
vt 0.052976 0.664699
vt 0.051013 0.691274
vt 0.068826 0.595028
vt 0.068147 0.603076
vt 0.067661 0.587687
vt 0.065418 0.582517
vt 0.038227 0.579340
vt 0.046909 0.579506
vt 0.039070 0.572062
vt 0.041312 0.566892
vt 0.059730 0.579396
vt 0.068826 0.579403
vt 0.059232 0.590426
vt 0.059744 0.579086
vt 0.047054 0.579369
vt 0.047965 0.594720
vt 0.059297 0.588993
vt 0.065550 0.637014
vt 0.060950 0.636918
vt 0.055791 0.652411
vt 0.060950 0.652543
vt 0.051964 0.614042
vt 0.054275 0.624331
vt 0.052935 0.636684
vt 0.055791 0.636786
vt 0.052935 0.652309
vt 0.061068 0.609246
vt 0.050056 0.619968
vt 0.045004 0.622882
vt 0.058304 0.600711
vt 0.050056 0.604343
vt 0.059287 0.587687
vt 0.047444 0.587687
vt 0.048373 0.582516
vt 0.058358 0.582516
vt 0.059447 0.600208
vt 0.067377 0.612895
vt 0.060310 0.611019
vt 0.058085 0.590863
vt 0.039070 0.587687
vt 0.041312 0.582517
vt 0.075356 0.639901
vt 0.085138 0.640701
vt 0.083687 0.643150
vt 0.073112 0.643064
vt 0.072847 0.631653
vt 0.082760 0.634537
vt 0.084515 0.634537
vt 0.075292 0.631653
vt 0.085502 0.637126
vt 0.095756 0.643966
vt 0.095166 0.645665
vt 0.094130 0.646821
vt 0.081999 0.643150
vt 0.070847 0.643064
vt 0.093240 0.646821
vt 0.092978 0.645665
vt 0.081007 0.640701
vt 0.064124 0.637039
vt 0.061414 0.637039
vt 0.076310 0.635179
vt 0.069767 0.639901
vt 0.061009 0.633944
vt 0.064665 0.616425
vt 0.070112 0.629390
vt 0.067670 0.633944
vt 0.061249 0.620218
vt 0.053850 0.620218
vt 0.063255 0.629390
vt 0.057226 0.616425
vt 0.066996 0.626013
vt 0.069902 0.626013
vt 0.053689 0.622841
vt 0.095520 0.642736
vt 0.081305 0.637126
vt 0.070542 0.635179
vt 0.093528 0.643966
vt 0.094589 0.642736
vt 0.056718 0.622841
vt 0.061803 0.613757
vt 0.064870 0.613757
vt 0.102714 0.656036
vt 0.103212 0.656036
vt 0.101327 0.656603
vt 0.101918 0.656305
vt 0.103060 0.656305
vt 0.102417 0.656603
vt 0.101673 0.656798
vt 0.101223 0.656798
vt 0.053365 0.561938
vt 0.042377 0.633998
vt 0.039467 0.640815
vt 0.038958 0.640420
vt 0.041602 0.633163
vt 0.044368 0.636135
vt 0.040765 0.641826
vt 0.045886 0.628416
vt 0.040216 0.641398
vt 0.043524 0.635230
vt 0.046458 0.629825
vt 0.053249 0.630671
vt 0.047290 0.631901
vt 0.052876 0.628094
vt 0.047896 0.633436
vt 0.052619 0.626305
vt 0.053516 0.632484
vt 0.039675 0.641461
vt 0.039891 0.958970
vt 0.051910 0.972132
vt 0.044987 0.956812
vt 0.060647 0.978735
vt 0.069383 0.972132
vt 0.060647 0.958970
vt 0.060646 0.958970
vt 0.047908 0.939583
vt 0.044987 0.941187
vt 0.034267 0.923958
vt 0.047908 0.923958
vt 0.034267 0.939583
vt 0.039891 0.943345
vt 0.029069 0.920635
vt 0.028147 0.895198
vt 0.022884 0.894865
vt 0.044431 0.895198
vt 0.060647 0.943345
vt 0.060647 0.920635
vt 0.060647 0.894865
vt 0.073386 0.923958
vt 0.076862 0.895198
vt 0.087027 0.923958
vt 0.093146 0.895198
vt 0.076307 0.941187
vt 0.073386 0.939583
vt 0.076307 0.956812
vt 0.081403 0.958970
vt 0.087027 0.939583
vt 0.092224 0.920635
vt 0.081403 0.943345
vt 0.098409 0.894865
vt 0.100374 0.866532
vt 0.094933 0.866532
vt 0.077778 0.866532
vt 0.060646 0.920635
vt 0.060646 0.894865
vt 0.060646 0.866532
vt 0.043516 0.866532
vt 0.026360 0.866532
vt 0.028038 0.843030
vt 0.044354 0.843030
vt 0.060646 0.843030
vt 0.020920 0.866532
vt 0.022864 0.843030
vt 0.060647 0.866532
vt 0.060647 0.843030
vt 0.076939 0.843030
vt 0.093256 0.843030
vt 0.098429 0.843030
vt 0.088195 0.822964
vt 0.092580 0.791714
vt 0.088195 0.791714
vt 0.098429 0.811780
vt 0.074427 0.791714
vt 0.069551 0.783120
vt 0.078338 0.783120
vt 0.081188 0.783120
vt 0.076939 0.811780
vt 0.060646 0.791714
vt 0.060646 0.822964
vt 0.060646 0.783120
vt 0.046867 0.791714
vt 0.051742 0.783120
vt 0.044354 0.811780
vt 0.033099 0.791714
vt 0.042955 0.783120
vt 0.033099 0.822964
vt 0.028714 0.791714
vt 0.040106 0.783120
vt 0.022864 0.811780
vt 0.060647 0.791714
vt 0.060647 0.783120
vt 0.060647 0.822964
vt 0.060647 0.781423
vt 0.060646 0.943345
vt 0.046459 0.951133
vt 0.054724 0.959165
vt 0.049952 0.949846
vt 0.060647 0.963110
vt 0.066570 0.959165
vt 0.074836 0.951133
vt 0.060647 0.951133
vt 0.051583 0.938107
vt 0.041830 0.938107
vt 0.037937 0.935744
vt 0.033525 0.916299
vt 0.047232 0.916299
vt 0.029265 0.916274
vt 0.026527 0.879007
vt 0.043576 0.879007
vt 0.021098 0.879007
vt 0.060647 0.935744
vt 0.060647 0.916274
vt 0.069712 0.938107
vt 0.074061 0.916299
vt 0.060647 0.879007
vt 0.077718 0.879007
vt 0.094767 0.879007
vt 0.087769 0.916299
vt 0.079465 0.938107
vt 0.100196 0.879007
vt 0.092028 0.916274
vt 0.083357 0.935744
vt 0.071343 0.949846
vt 0.077789 0.845379
vt 0.060647 0.845379
vt 0.043506 0.845379
vt 0.060647 0.826581
vt 0.046007 0.795331
vt 0.043506 0.814129
vt 0.031383 0.795331
vt 0.060647 0.795331
vt 0.026371 0.845379
vt 0.031383 0.826581
vt 0.020920 0.845379
vt 0.041839 0.784412
vt 0.026724 0.795331
vt 0.038810 0.784412
vt 0.051181 0.784412
vt 0.020920 0.814129
vt 0.031384 0.795331
vt 0.031384 0.826581
vt 0.060647 0.784412
vt 0.075287 0.795331
vt 0.070113 0.784412
vt 0.077789 0.814129
vt 0.089910 0.795331
vt 0.094923 0.845379
vt 0.089910 0.826581
vt 0.100374 0.845379
vt 0.079455 0.784412
vt 0.094570 0.795331
vt 0.082484 0.784412
vt 0.100374 0.814129
vt 0.061068 0.577996
vt 0.060304 0.568641
vt 0.059452 0.569030
vt 0.060189 0.578374
vt 0.058304 0.569461
vt 0.059235 0.559298
vt 0.058085 0.559613
vt 0.051150 0.588237
vt 0.053728 0.597375
vt 0.052659 0.597934
vt 0.050085 0.588818
vt 0.050085 0.573193
vt 0.052659 0.582309
vt 0.051964 0.582792
vt 0.049359 0.573496
vt 0.049076 0.578672
vt 0.050056 0.588718
vt 0.047985 0.563561
vt 0.050056 0.573093
vt 0.055097 0.608717
vt 0.052675 0.598004
vt 0.052675 0.582379
vt 0.054275 0.593081
vt 0.055176 0.625767
vt 0.059949 0.579392
s 1
usemtl forest.009
f 37/1/1 40/1/2 22/2/3 25/2/4
f 43/3/5 46/4/6 14/5/7 17/6/8
f 320/7/9 34/8/10 31/9/11 27/6/12
f 34/10/10 37/11/1 25/12/4 31/13/11
f 314/14/13 43/15/5 17/16/8 312/17/14
f 46/18/6 49/18/15 11/5/16 14/5/7
f 44/19/17 318/20/18 313/21/19 42/22/20
f 333/23/21 331/24/22 42/22/20 313/25/19
f 43/15/5 314/14/13 318/20/18 44/19/17
f 339/26/23 337/27/24 36/28/25 33/29/26
f 340/30/27 325/31/28 99/32/29 106/33/30
f 330/34/31 332/31/32 102/32/33 101/35/34
f 317/36/35 41/37/36 39/38/37 313/39/19
f 322/40/38 50/41/39 48/42/40 321/43/41
f 10/44/42 28/45/43 8/46/44 7/47/45
f 28/45/43 30/48/46 1/49/47 8/46/44
f 21/50/48 19/48/49 4/49/50 3/51/51
f 19/52/49 16/53/52 5/54/53 4/55/50
f 30/52/46 24/56/54 2/57/55 1/55/47
f 24/50/54 21/50/48 3/51/51 2/51/55
f 16/45/52 13/44/56 6/47/57 5/46/53
f 329/58/58 327/58/59 48/59/40 45/59/60
f 328/60/61 330/60/31 101/61/34 100/61/62
f 335/62/63 333/63/21 313/39/19 39/38/37
f 336/64/64 338/64/65 105/65/66 104/65/67
f 331/66/22 329/67/58 45/42/60 42/68/20
f 337/62/24 335/62/63 39/38/37 36/38/25
f 326/69/68 339/70/23 33/71/26 321/72/41
f 28/45/43 10/44/42 12/73/69 29/74/70
f 29/74/70 12/73/69 11/5/16 27/6/12
f 10/44/42 13/44/56 15/73/71 12/73/69
f 12/73/69 15/73/71 14/5/7 11/5/16
f 13/44/56 16/45/52 18/74/72 15/73/71
f 15/73/71 18/74/72 17/6/8 14/5/7
f 16/53/52 19/52/49 20/75/73 18/76/72
f 40/1/2 315/77/74 312/78/14 22/2/3
f 19/48/49 21/50/48 23/79/75 20/80/73
f 18/76/72 20/75/73 312/17/14 17/16/8
f 21/50/48 24/50/54 26/79/76 23/79/75
f 23/79/75 26/79/76 25/2/4 22/2/3
f 24/56/54 30/52/46 32/75/77 26/81/76
f 26/81/76 32/75/77 31/13/11 25/12/4
f 30/48/46 28/45/43 29/74/70 32/80/77
f 32/80/77 29/74/70 27/6/12 31/9/11
f 13/44/56 10/44/42 7/47/45 6/47/57
f 320/82/9 49/4/15 50/41/39 322/40/38
f 325/31/28 328/34/61 100/35/62 99/32/29
f 37/11/1 34/10/10 35/83/78 38/84/79
f 38/84/79 35/83/78 33/29/26 36/28/25
f 40/1/2 37/1/1 38/37/79 41/37/36
f 41/37/36 38/37/79 36/38/25 39/38/37
f 34/8/10 320/7/9 323/85/80 35/86/78
f 334/30/81 336/64/64 104/65/67 103/33/82
f 315/77/74 40/1/2 41/37/36 317/36/35
f 332/87/32 334/88/81 103/89/82 102/90/33
f 46/4/6 43/3/5 44/91/17 47/41/83
f 47/41/83 44/91/17 42/68/20 45/42/60
f 49/18/15 46/18/6 47/92/83 50/92/39
f 50/92/39 47/92/83 45/59/60 48/59/40
f 49/4/15 320/93/9 27/6/12 11/5/16
f 35/86/78 323/85/80 321/94/41 33/71/26
f 338/95/65 340/88/27 106/89/30 105/96/66
f 75/97/84 74/98/85 73/99/86 76/100/87
f 80/101/88 69/102/89 68/103/90 81/104/91
f 67/105/92 66/106/93 52/107/94 74/98/85
f 74/98/85 52/107/94 54/108/95 73/99/86
f 76/100/87 73/99/86 72/109/96 77/110/97
f 72/109/96 56/111/98 58/112/99 71/113/100
f 89/114/101 76/100/87 77/110/97 88/115/102
f 81/104/91 68/103/90 67/105/92 82/116/103
f 82/116/103 67/105/92 74/98/85 75/97/84
f 88/115/102 77/110/97 78/117/104 87/118/105
f 65/119/106 83/120/107 90/121/108 51/122/109
f 57/123/110 87/118/105 86/124/111 59/125/112
f 85/126/113 80/101/88 81/104/91 84/127/114
f 90/121/108 75/97/84 76/100/87 89/114/101
f 55/128/115 88/115/102 87/118/105 57/123/110
f 83/120/107 82/116/103 75/97/84 90/121/108
f 68/103/90 64/129/116 66/106/93 67/105/92
f 78/117/104 71/113/100 70/130/117 79/131/118
f 79/131/118 70/130/117 69/102/89 80/101/88
f 73/99/86 54/108/95 56/111/98 72/109/96
f 71/113/100 58/112/99 60/132/119 70/130/117
f 77/110/97 72/109/96 71/113/100 78/117/104
f 70/130/117 60/132/119 62/133/120 69/102/89
f 69/102/89 62/133/120 64/129/116 68/103/90
f 84/127/114 81/104/91 82/116/103 83/120/107
f 53/134/121 89/114/101 88/115/102 55/128/115
f 61/135/122 85/126/113 84/127/114 63/136/123
f 87/118/105 78/117/104 79/131/118 86/124/111
f 86/124/111 79/131/118 80/101/88 85/126/113
f 51/122/109 90/121/108 89/114/101 53/134/121
f 63/136/123 84/127/114 83/120/107 65/119/106
f 59/125/112 86/124/111 85/126/113 61/135/122
f 62/133/120 96/137/124 97/138/125 64/129/116
f 58/112/99 94/139/126 95/140/127 60/132/119
f 64/129/116 97/138/125 98/141/128 66/106/93
f 66/106/93 98/141/128 91/142/129 52/107/94
f 52/107/94 91/142/129 92/143/130 54/108/95
f 54/108/95 92/143/130 93/144/131 56/111/98
f 60/132/119 95/140/127 96/137/124 62/133/120
f 56/111/98 93/144/131 94/139/126 58/112/99
f 9/145/132 99/32/29 100/35/62
f 9/145/132 100/35/62 101/35/34
f 9/145/132 101/35/34 102/32/33
f 9/145/132 102/32/33 103/33/82
f 9/145/132 103/33/82 104/65/67
f 9/145/132 104/65/67 105/65/66
f 9/145/132 105/65/66 106/33/30
f 9/145/132 106/33/30 99/32/29
f 116/146/133 135/147/134 132/148/135 117/149/136
f 121/150/137 138/151/138 136/151/139 122/150/140
f 117/149/136 132/148/135 133/148/141 118/149/142
f 130/152/143 117/149/136 118/149/142 129/152/144
f 122/150/140 136/151/139 134/153/145 123/154/146
f 123/154/146 134/153/145 135/147/134 116/146/133
f 129/152/144 118/149/142 119/146/147 128/155/148
f 114/156/149 124/157/150 131/155/151 107/158/152
f 110/158/153 128/155/148 127/157/154 111/156/155
f 126/159/156 121/150/137 122/150/140 125/159/157
f 131/155/151 116/146/133 117/149/136 130/152/143
f 109/160/158 129/152/144 128/155/148 110/158/153
f 124/157/150 123/154/146 116/146/133 131/155/151
f 119/146/147 139/147/159 137/153/160 120/154/161
f 120/154/161 137/153/160 138/151/138 121/150/137
f 118/149/142 133/148/141 139/147/159 119/146/147
f 125/159/157 122/150/140 123/154/146 124/157/150
f 108/160/162 130/152/143 129/152/144 109/160/158
f 112/161/163 126/159/156 125/159/157 113/161/164
f 128/155/148 119/146/147 120/154/161 127/157/154
f 127/157/154 120/154/161 121/150/137 126/159/156
f 107/158/152 131/155/151 130/152/143 108/160/162
f 113/161/164 125/159/157 124/157/150 114/156/149
f 111/156/155 127/157/154 126/159/156 112/161/163
f 115/162/165 133/148/166 132/148/167
f 115/162/165 135/147/168 134/153/169
f 115/162/165 132/148/167 135/147/168
f 115/162/165 134/153/169 136/151/170
f 115/162/165 138/151/171 137/153/172
f 115/162/165 137/153/172 139/147/173
f 115/162/165 139/147/173 133/148/166
f 115/162/165 136/151/170 138/151/171
f 141/163/174 140/164/175 143/165/176
f 146/164/177 140/164/175 141/163/174
f 142/166/178 145/167/179 140/164/175
f 142/166/178 140/164/175 146/164/177
f 143/165/176 140/164/175 144/168/180
f 145/167/179 144/168/180 140/164/175
f 147/169/181 146/164/177 149/165/182
f 146/164/177 147/169/181 148/167/183
f 142/166/178 146/164/177 148/167/183
f 149/165/182 146/164/177 141/163/174
f 150/170/184 147/169/181 149/165/182
f 149/171/182 151/172/185 150/173/184
f 149/165/182 141/163/174 151/174/185
f 151/172/185 141/175/174 153/176/186
f 152/177/187 151/172/185 153/176/186 154/178/188
f 150/173/184 151/172/185 152/177/187 180/179/189
f 153/176/186 141/175/174 155/172/190
f 154/178/188 153/176/186 155/172/190 156/177/191
f 155/174/190 141/163/174 143/165/176
f 143/171/176 157/173/192 155/172/190
f 156/177/191 155/172/190 157/173/192 158/179/193
f 157/173/192 144/180/180 159/181/194
f 143/165/176 144/168/180 157/170/192
f 158/179/193 157/173/192 159/181/194 160/182/195
f 160/182/195 159/181/194 161/183/196 162/184/197
f 159/181/194 144/180/180 161/183/196
f 161/183/196 163/185/198 171/186/199 162/184/197
f 164/187/200 163/185/198 161/183/196
f 161/188/196 144/168/180 164/189/200
f 164/189/200 165/190/201 163/191/198
f 164/189/200 145/167/179 165/190/201
f 144/168/180 145/167/179 164/189/200
f 165/190/201 148/167/183 166/189/202
f 167/191/203 165/190/201 166/189/202
f 168/192/204 165/193/201 167/185/203
f 148/167/183 165/190/201 145/167/179
f 163/185/198 165/193/201 168/192/204
f 169/194/205 168/192/204 167/185/203 172/186/206
f 171/186/199 163/185/198 168/192/204 169/194/205
f 170/195/207 169/194/205 172/186/206 173/196/208
f 195/196/209 171/186/199 169/194/205 170/195/207
f 167/185/203 175/183/210 174/184/211 172/186/206
f 172/186/206 174/184/211 176/197/212 173/196/208
f 174/184/211 175/183/210 178/198/213 177/199/214
f 176/197/212 174/184/211 177/199/214 179/200/215
f 177/199/214 178/198/213 150/173/184 180/179/189
f 179/200/215 177/199/214 180/179/189 181/201/216
f 180/179/189 152/177/187 183/202/217 181/201/216
f 181/201/216 183/202/217 184/203/218 182/204/219
f 205/205/220 179/200/215 181/201/216 182/204/219
f 183/202/217 152/177/187 154/178/188 185/206/221
f 184/203/218 183/202/217 185/206/221 186/207/222
f 185/206/221 154/178/188 156/177/191 187/202/223
f 186/207/222 185/206/221 187/202/223 188/203/224
f 187/202/223 156/177/191 158/179/193 189/201/225
f 188/203/224 187/202/223 189/201/225 190/204/226
f 189/201/225 158/179/193 160/182/195 191/208/227
f 190/204/226 189/201/225 191/208/227 192/209/228
f 191/208/227 160/182/195 162/184/197 193/197/229
f 192/209/228 191/208/227 193/197/229 194/210/230
f 162/184/197 171/186/199 195/196/209 193/197/229
f 193/197/229 195/196/209 196/211/231 194/210/230
f 196/211/231 195/196/209 170/195/207 198/212/232
f 197/213/233 196/211/231 198/212/232
f 194/210/230 196/211/231 197/213/233
f 198/212/232 170/195/207 173/196/208 200/211/234
f 199/214/235 197/215/233 198/216/232
f 199/214/235 198/216/232 201/215/236
f 198/212/232 200/211/234 201/213/236
f 200/211/234 204/210/237 201/213/236
f 201/215/236 203/217/238 225/218/239 202/219/240
f 224/220/241 199/214/235 201/215/236 202/219/240
f 204/221/237 203/217/238 201/215/236
f 204/210/237 176/197/212 179/200/215 205/205/220
f 173/196/208 176/197/212 204/210/237 200/211/234
f 203/217/238 204/221/237 206/222/242
f 204/210/237 205/205/220 206/223/242
f 206/223/242 205/205/220 182/204/219
f 207/224/243 206/222/242 208/225/244 209/226/245
f 225/218/239 203/217/238 206/222/242 207/224/243
f 208/225/244 206/222/242 182/227/219
f 208/225/244 182/227/219 210/228/246
f 208/225/244 210/228/246 211/229/247 209/226/245
f 210/230/246 184/203/218 186/207/222
f 182/204/219 184/203/218 210/230/246
f 211/229/247 210/228/246 212/231/248 213/232/249
f 212/231/248 210/228/246 186/233/222
f 212/231/248 186/233/222 214/228/250
f 213/232/249 212/231/248 214/228/250 215/229/251
f 186/207/222 188/203/224 214/230/250
f 214/230/250 188/203/224 190/204/226
f 215/229/251 214/228/250 216/225/252 217/226/253
f 216/225/252 214/228/250 190/227/226
f 216/225/252 190/227/226 218/234/254
f 217/226/253 216/225/252 218/234/254 219/235/255
f 218/236/254 192/209/228 194/210/230
f 190/204/226 192/209/228 218/236/254
f 219/235/255 218/234/254 220/217/256 221/218/257
f 220/217/256 218/234/254 194/221/230
f 220/217/256 194/221/230 197/215/233
f 220/217/256 197/215/233 222/219/258 221/218/257
f 223/237/259 219/235/255 221/218/257
f 221/218/257 222/219/258 223/237/259
f 217/226/253 223/237/259 215/229/251
f 217/226/253 219/235/255 223/237/259
f 223/237/259 222/219/258 224/220/241
f 224/220/241 202/219/240 223/237/259
f 202/219/240 225/218/239 223/237/259
f 223/237/259 225/218/239 207/224/243
f 223/237/259 207/224/243 209/226/245
f 209/226/245 211/229/247 223/237/259
f 223/237/259 211/229/247 213/232/249
f 223/237/259 213/232/249 215/229/251
f 222/219/258 197/215/233 199/214/235 224/220/241
f 178/198/213 147/238/181 150/173/184
f 175/183/210 147/238/181 178/198/213
f 166/189/202 147/169/181 175/188/210
f 166/187/202 175/183/210 167/185/203
f 166/189/202 148/167/183 147/169/181
f 142/166/178 148/167/183 145/167/179
f 227/239/260 226/240/261 229/241/262
f 231/240/263 228/242/264 226/240/261
f 260/243/265 261/243/266 257/244/267
f 226/240/261 260/243/265 230/245/268
f 229/241/262 226/240/261 230/245/268
f 232/245/269 231/240/263 233/241/270
f 261/243/266 228/242/264 231/240/263
f 228/242/264 260/243/265 226/240/261
f 233/241/270 231/240/263 227/239/260
f 234/246/271 232/245/269 233/241/270
f 233/241/270 235/247/272 234/246/271
f 233/241/270 227/239/260 235/247/272
f 235/247/272 227/239/260 236/248/273
f 235/247/272 237/249/274 238/250/275 234/246/271
f 237/249/274 235/247/272 236/248/273 240/251/276
f 238/250/275 237/249/274 239/252/277 271/253/278
f 237/249/274 240/251/276 241/254/279 239/252/277
f 243/252/280 241/254/279 240/251/276 242/249/281
f 236/248/273 245/247/282 242/249/281 240/251/276
f 288/253/283 243/252/280 242/249/281 244/250/284
f 242/249/281 245/247/282 246/246/285 244/250/284
f 245/247/282 227/239/260 229/241/262
f 236/248/273 227/239/260 245/247/282
f 229/241/262 246/246/285 245/247/282
f 246/246/285 230/245/268 247/255/286
f 229/241/262 230/245/268 246/246/285
f 244/250/284 246/246/285 247/255/286 249/256/287
f 249/256/287 247/255/286 248/257/288 251/258/289
f 247/255/286 230/245/268 248/257/288
f 244/250/284 249/256/287 250/259/290 288/253/283
f 249/256/287 251/258/289 252/260/291 250/259/290
f 254/261/292 252/260/291 251/258/289 253/262/293
f 248/257/288 256/263/294 253/262/293 251/258/289
f 299/264/295 254/261/292 253/262/293 255/265/296
f 253/262/293 256/263/294 258/266/297 255/265/296
f 256/263/294 257/244/267 258/266/297
f 259/267/298 257/244/267 256/263/294
f 259/267/298 256/263/294 248/257/288
f 259/267/298 260/243/265 257/244/267
f 248/257/288 230/245/268 259/267/298
f 230/245/268 260/243/265 259/267/298
f 228/242/264 261/243/266 260/243/265
f 232/245/269 261/243/266 231/240/263
f 257/244/267 261/243/266 262/267/299
f 262/267/299 261/243/266 232/245/269
f 263/263/300 257/244/267 262/267/299
f 262/267/299 232/245/269 264/257/301
f 262/267/299 264/257/301 263/263/300
f 264/257/301 232/245/269 265/255/302
f 263/263/300 264/257/301 266/258/303 268/262/304
f 264/257/301 265/255/302 269/256/305 266/258/303
f 270/259/306 267/260/307 266/258/303 269/256/305
f 267/260/307 311/261/308 268/262/304 266/258/303
f 271/253/278 270/259/306 269/256/305 238/250/275
f 269/256/305 265/255/302 234/246/271 238/250/275
f 274/268/309 267/260/307 270/259/306 272/269/310
f 272/269/310 270/259/306 271/253/278 275/270/311
f 273/271/312 272/269/310 275/270/311
f 274/268/309 272/269/310 273/271/312
f 276/272/313 275/273/311 278/274/314
f 276/272/313 273/275/312 275/273/311
f 275/270/311 277/276/315 278/277/314
f 271/253/278 239/252/277 277/276/315 275/270/311
f 278/277/314 277/276/315 281/278/316
f 279/279/317 278/274/314 280/280/318 310/281/319
f 276/272/313 278/274/314 279/279/317 309/282/320
f 280/280/318 278/274/314 281/283/316
f 280/280/318 281/283/316 283/284/321
f 277/276/315 239/252/277 241/254/279 281/278/316
f 281/278/316 282/276/322 283/285/321
f 281/278/316 241/254/279 243/252/280 282/276/322
f 283/285/321 282/276/322 286/270/323
f 310/281/319 280/280/318 283/284/321 284/279/324
f 284/279/324 283/284/321 285/272/325 306/282/326
f 285/272/325 283/284/321 286/273/323
f 285/272/325 286/273/323 289/275/327
f 286/270/323 287/269/328 289/271/327
f 286/270/323 288/253/283 250/259/290 287/269/328
f 282/276/322 243/252/280 288/253/283 286/270/323
f 289/271/327 287/269/328 292/268/329
f 290/286/330 289/275/327 291/287/331 307/288/332
f 306/282/326 285/272/325 289/275/327 290/286/330
f 291/287/331 289/275/327 292/289/329
f 291/287/331 292/289/329 294/290/333
f 287/269/328 250/259/290 252/260/291 292/268/329
f 292/268/329 293/291/334 294/292/333
f 252/260/291 254/261/292 293/291/334 292/268/329
f 294/292/333 293/291/334 297/293/335
f 295/294/336 294/290/333 296/295/337 308/296/338
f 291/287/331 294/290/333 295/294/336 307/288/332
f 296/295/337 294/290/333 297/297/335
f 296/295/337 297/297/335 300/290/339
f 293/291/334 254/261/292 299/264/295 297/293/335
f 297/293/335 298/291/340 300/292/339
f 297/293/335 299/264/295 311/261/308 298/291/340
f 298/291/340 274/268/309 300/292/339
f 300/290/339 302/287/341 303/288/342 301/294/343
f 308/296/338 296/295/337 300/290/339 301/294/343
f 274/289/309 302/287/341 300/290/339
f 302/287/341 274/289/309 273/275/312
f 303/288/342 302/287/341 273/275/312 304/286/344
f 301/294/343 303/288/342 305/237/345
f 305/237/345 303/288/342 304/286/344
f 306/282/326 305/237/345 284/279/324
f 306/282/326 290/286/330 305/237/345
f 305/237/345 290/286/330 307/288/332
f 307/288/332 295/294/336 305/237/345
f 305/237/345 295/294/336 308/296/338
f 308/296/338 301/294/343 305/237/345
f 305/237/345 304/286/344 309/282/320
f 309/282/320 279/279/317 305/237/345
f 305/237/345 279/279/317 310/281/319
f 305/237/345 310/281/319 284/279/324
f 304/286/344 273/275/312 276/272/313 309/282/320
f 311/261/308 299/264/295 255/265/296 268/262/304
f 311/261/308 267/260/307 274/268/309 298/291/340
f 255/265/296 258/266/297 263/263/300 268/262/304
f 265/255/302 232/245/269 234/246/271
f 258/266/297 257/244/267 263/263/300
f 227/239/260 231/240/263 226/240/261
f 320/298/346 322/299/347 324/300/348
f 320/301/349 324/300/350 323/302/351
f 322/299/347 321/303/352 324/300/348
f 324/300/350 321/304/353 323/302/351
f 318/305/354 314/306/355 316/307/356 319/308/357
f 319/309/358 316/310/359 315/311/360 317/312/361
f 313/313/362 318/305/354 319/314/357
f 313/315/363 319/316/358 317/312/361
f 314/306/355 312/317/364 316/318/356
f 316/319/359 312/320/365 315/311/360
f 20/80/73 23/79/75 22/2/3 312/321/14
f 326/322/68 327/67/59 328/34/61 325/31/28
f 327/58/59 329/58/58 330/60/31 328/60/61
f 329/67/58 331/66/22 332/31/32 330/34/31
f 331/24/22 333/23/21 334/88/81 332/87/32
f 333/63/21 335/62/63 336/64/64 334/30/81
f 335/62/63 337/62/24 338/64/65 336/64/64
f 337/27/24 339/26/23 340/88/27 338/95/65
f 339/70/23 326/69/68 325/31/28 340/30/27
f 327/67/59 326/322/68 321/43/41 48/42/40
