# Blender 4.2.2 LTS
# www.blender.org
mtllib Kay_Tree3.mtl
o Tree_1_C_Color1
v 1.421995 0.364213 0.621241
v -0.714202 0.327198 1.499871
v -1.599538 0.311857 -0.621297
v 0.477919 2.845335 0.444566
v -1.037459 2.745732 1.073331
v -1.665499 2.704453 -0.444623
v -0.484294 4.481835 -0.824689
v -0.019739 4.377794 0.341552
v -1.141489 4.629018 0.824632
v -1.606395 4.733138 -0.341610
v 0.033064 5.814946 -0.693195
v 0.375104 5.601045 0.287087
v -0.450811 6.117543 0.693140
v -0.793108 6.331601 -0.287142
v 1.045428 6.951138 -0.538912
v 1.282631 6.750515 0.223181
v 0.709862 7.234958 0.538855
v 0.472481 7.435731 -0.223239
v 1.792312 7.817488 -0.468187
v 2.043496 7.747527 0.193888
v 1.436973 7.916462 0.468132
v 1.185602 7.986474 -0.193943
v 1.750314 9.183837 -0.352803
v 1.944548 9.235384 0.146095
v 1.475537 9.110921 0.352748
v 1.281156 9.059339 -0.146150
v 0.860986 11.411391 -0.156398
v 0.947037 11.445287 0.064740
v 0.739252 11.363437 0.156340
v 0.653138 11.329515 -0.064798
v 0.012713 -1.110588 -0.000028
v 0.477135 -0.794858 -1.105993
v 1.130171 -0.794858 0.458069
v -0.446692 -0.794858 1.105937
v -1.100213 -0.794858 -0.458129
v 1.066339 0.358051 -1.146672
v 1.544530 0.366337 -0.000028
v -0.088378 0.338043 1.621585
v -1.243551 0.318026 1.146616
v -1.722201 0.309731 -0.000028
v -1.243551 0.318026 -1.146672
v -0.088378 0.338042 -1.621642
v 0.225622 2.828752 -0.820593
v -1.412968 2.721050 0.820536
v -1.752513 2.698732 -0.000029
v -1.412968 2.721050 -0.820593
v -0.593510 2.774912 -1.160490
v 1.016670 1.585039 0.551186
v -1.656608 1.443082 -0.551243
v -0.873311 1.484675 1.330743
v -0.206500 4.419619 -0.630464
v -0.206500 4.419622 0.630409
v -1.419459 4.691273 0.630409
v -1.670807 4.747564 -0.000029
v -1.419459 4.691273 -0.630464
v -0.812859 4.555419 -0.891607
v -1.159776 3.779409 0.909738
v 0.110694 3.734705 0.376805
v -0.415454 3.753218 -0.909795
v -1.686320 3.797934 -0.376862
v 0.237596 5.687037 -0.529941
v 0.422480 5.571418 -0.000029
v 0.237596 5.687037 0.529884
v -0.655474 6.245530 0.529884
v -0.655474 6.245530 -0.529941
v -0.208849 5.966230 -0.749443
v -1.303896 5.578682 -0.315283
v -0.897679 5.405691 0.761074
v 0.082465 4.988286 0.315226
v -0.323447 5.161147 -0.761132
v 1.187272 6.831168 -0.411995
v 1.315485 6.722724 -0.000029
v 1.187269 6.831171 0.411938
v 0.877662 7.093035 0.582585
v 0.567931 7.355002 0.411938
v 0.567931 7.355002 -0.411995
v 0.877662 7.093033 -0.582640
v -0.145796 6.965991 -0.253152
v 0.131681 6.741781 0.611077
v 0.801193 6.200792 0.253098
v 0.523923 6.424835 -0.611135
v 1.942515 7.775651 -0.357927
v 2.078287 7.737834 -0.000029
v 1.942515 7.775651 0.357872
v 1.614661 7.866971 0.506122
v 1.286676 7.958324 0.357869
v 1.150774 7.996175 -0.000029
v 1.614661 7.866971 -0.506177
v 1.491913 7.379418 -0.498248
v 0.912682 7.728391 -0.206396
v 1.152668 7.583807 0.498193
v 1.731718 7.234939 0.206338
v 1.866459 9.214663 -0.269718
v 1.971449 9.242523 -0.000029
v 1.866459 9.214663 0.269661
v 1.612937 9.147385 0.381373
v 1.359315 9.080079 0.269661
v 1.254226 9.052190 -0.000029
v 1.612937 9.147385 -0.381431
v 2.124497 8.395864 0.174769
v 1.889845 8.392144 -0.422034
v 1.323063 8.383157 -0.174826
v 1.557891 8.386882 0.421976
v 0.912444 11.431659 -0.119569
v 0.958958 11.449983 -0.000029
v 0.912444 11.431659 0.119514
v 0.800126 11.387417 0.169030
v 0.687765 11.343157 0.119514
v 0.641206 11.324816 -0.000029
v 0.687765 11.343157 -0.119569
v 0.800126 11.387417 -0.169086
v 1.027698 10.091345 -0.108076
v 1.170372 10.147191 0.260825
v 1.514619 10.281944 0.108021
v 1.372054 10.226137 -0.260881
v 0.877580 -0.791772 -0.855378
v 1.234682 -0.791772 -0.000028
v 0.877580 -0.791772 0.855321
v 0.015269 -0.791772 1.209630
v -0.847381 -0.791772 0.855321
v -1.204823 -0.791772 -0.000028
v -0.847381 -0.791772 -0.855378
v 0.015269 -0.791772 -1.209686
v 1.423685 -0.399545 0.582594
v 0.593258 -0.401462 -1.406626
v -1.412566 -0.406090 -0.582651
v -0.581519 -0.404170 1.406567
v 0.299532 -1.007648 -0.685871
v 0.704506 -1.007648 0.284053
v -0.273364 -1.007648 0.685815
v -0.678624 -1.007648 -0.284110
v -1.341648 1.459806 -1.017377
v -1.341651 1.459806 1.017321
v 0.702004 1.568328 -1.017377
v -0.319620 1.514079 -1.438790
v -1.765130 1.437318 -0.000028
v -0.319620 1.514079 1.438733
v -1.474600 3.790486 0.695470
v -0.100828 3.742147 0.695470
v -0.100828 3.742150 -0.695527
v -0.787580 3.766314 -0.983620
v -1.759270 3.800502 -0.000029
v -1.474600 3.790486 -0.695527
v -1.140560 5.509123 -0.581876
v -1.140560 5.509123 0.581821
v -0.080721 5.057780 0.581821
v -0.080721 5.057780 -0.581876
v -0.610534 5.283408 -0.822892
v 0.327820 6.583292 0.660668
v 0.839599 6.169761 -0.000029
v -0.034225 6.875838 -0.467208
v -0.034225 6.875838 0.467150
v 0.689727 6.290863 0.467150
v 0.689727 6.290863 -0.467208
v 0.327820 6.583292 -0.660725
v 1.322308 7.481603 -0.538677
v 0.879434 7.748424 -0.000029
v 1.322308 7.481603 0.538620
v 1.764935 7.214928 -0.000029
v 1.009179 7.670254 0.380852
v 1.635311 7.293022 0.380852
v 1.635311 7.293022 -0.380907
v 2.030163 8.394367 0.322586
v 2.030163 8.394369 -0.322643
v 1.723885 8.389512 -0.456278
v 1.290529 8.382642 -0.000029
v 1.723885 8.389512 0.456220
v 2.156998 8.396379 -0.000029
v 1.417486 8.384654 0.322586
v 1.085068 10.113802 -0.199446
v 1.085068 10.113798 0.199391
v 1.457307 10.259510 0.199391
v 1.457307 10.259510 -0.199446
v 1.271223 10.186667 -0.282050
v 1.007934 10.083606 -0.000029
v 1.271223 10.186667 0.281994
v 1.534367 10.289672 -0.000029
v 1.091081 -0.399930 1.076519
v 1.091081 -0.399930 -1.076575
v 0.005931 -0.402430 -1.522509
v -1.529464 -0.405968 -0.000028
v 0.005928 -0.402429 1.522452
v 1.540465 -0.398894 -0.000028
v -1.079650 -0.404932 -1.076578
v -1.079650 -0.404932 1.076519
v 0.626781 -0.976197 -0.608576
v 0.880847 -0.976197 -0.000028
v 0.626781 -0.976197 0.608519
v 0.013279 -0.976197 0.860592
v -0.600457 -0.976197 0.608519
v -0.854761 -0.976197 -0.000028
v -0.600457 -0.976197 -0.608576
v 0.013279 -0.976197 -0.860649
v 1.786817 8.316123 0.426890
v 5.281924 8.448308 0.196121
v 1.814565 8.562628 0.175284
v 5.267094 8.559727 0.080882
v 1.814565 8.562628 -0.175311
v 5.267094 8.559727 -0.080908
v 1.786817 8.316123 -0.426917
v 5.281924 8.448308 -0.196151
v 1.747316 7.960532 -0.430602
v 5.302499 8.289615 -0.196363
v 1.719424 7.706469 -0.178945
v 5.316523 8.177679 -0.081231
v 1.719424 7.706469 0.178916
v 5.316523 8.177679 0.081201
v 1.747316 7.960532 0.430573
v 5.302499 8.289615 0.196334
v 4.268199 8.243481 0.291563
v 4.243772 8.072695 0.121524
v 4.243772 8.072695 -0.121553
v 4.268199 8.243481 -0.291589
v 4.301399 8.481225 -0.288294
v 4.323952 8.645545 -0.118199
v 4.323952 8.645545 0.118172
v 4.301399 8.481225 0.288265
v 3.395496 8.674273 0.346891
v 3.399029 8.869237 0.141079
v 3.399029 8.869237 -0.141106
v 3.395496 8.674275 -0.346918
v 3.390364 8.386078 -0.356092
v 3.386656 8.173050 -0.150295
v 3.386656 8.173050 0.150265
v 3.390364 8.386078 0.356066
v 2.680646 8.269114 0.411635
v 2.761002 8.037295 0.173339
v 2.761002 8.037298 -0.173369
v 2.680646 8.269117 -0.411661
v 2.572132 8.584541 -0.402368
v 2.498944 8.799301 -0.164035
v 2.498944 8.799301 0.164009
v 2.572132 8.584541 0.402341
v -1.481185 3.215238 -0.334722
v -1.220053 2.915559 -0.498230
v -0.847992 2.915686 -0.712153
v -0.575353 3.215368 -0.855616
v -0.562997 3.647224 -0.842914
v -0.823500 3.955396 -0.678528
v -1.202672 3.955450 -0.460462
v -1.476098 3.647295 -0.317780
v -3.068033 5.632844 -3.529355
v -2.874537 5.738414 -3.506125
v -2.681716 5.738595 -3.616994
v -2.606357 5.632991 -3.795197
v -2.692054 5.486666 -3.932263
v -2.882305 5.386548 -3.949876
v -3.067733 5.386452 -3.843228
v -3.146316 5.486607 -3.670641
v -2.793332 4.198178 -2.815713
v -2.665351 4.036816 -3.056854
v -2.388214 4.036920 -3.216141
v -2.113061 4.198277 -3.206975
v -1.996751 4.436242 -3.027702
v -2.119011 4.611229 -2.776724
v -2.411877 4.611068 -2.608268
v -2.692872 4.436129 -2.627155
v -2.097638 3.802990 -1.434754
v -1.807581 4.079091 -1.508684
v -1.448528 4.079171 -1.715209
v -1.240160 3.803046 -1.927965
v -1.304207 3.423527 -2.019217
v -1.591980 3.164167 -1.941692
v -1.935956 3.164093 -1.743936
v -2.146402 3.423453 -1.534911
v -2.430786 4.192539 -2.625598
v -2.502757 4.068861 -2.749755
v -2.573114 4.078967 -2.923842
v -2.602028 4.217349 -3.049434
v -2.571716 4.406266 -3.051724
v -2.499408 4.533223 -2.927344
v -2.427907 4.522848 -2.750355
v -2.399299 4.381179 -2.624907
v -3.441112 5.033364 -2.273430
v -3.412580 5.090272 -2.366374
v -3.454932 5.096358 -2.471185
v -3.542249 5.048101 -2.524150
v -3.621382 4.975327 -2.494707
v -3.646667 4.921216 -2.402852
v -3.605922 4.915356 -2.302120
v -3.521850 4.960813 -2.248055
v -3.217758 4.540031 -2.344438
v -3.321717 4.470039 -2.422127
v -3.376496 4.477926 -2.557531
v -3.352233 4.559564 -2.677289
v -3.259192 4.671820 -2.712459
v -3.149487 4.748649 -2.636627
v -3.091308 4.740289 -2.492686
v -3.121337 4.651783 -2.371045
v -2.782069 4.440593 -2.482005
v -2.782352 4.568334 -2.610722
v -2.851087 4.578238 -2.780877
v -2.945506 4.464335 -2.886662
v -3.008478 4.299502 -2.866705
v -3.005457 4.180514 -2.738531
v -2.940096 4.171099 -2.576885
v -2.848398 4.276278 -2.470551
v 1.626822 9.764866 -0.270865
v 1.694181 9.600220 -0.157564
v 1.718416 9.559352 0.046178
v 1.685717 9.665575 0.224817
v 1.614015 9.860121 0.273377
v 1.545552 10.028048 0.160773
v 1.520949 10.069536 -0.046251
v 1.554744 9.960049 -0.225662
v 2.368746 11.431834 -0.081302
v 2.281622 11.406963 0.045422
v 2.313565 11.391586 0.197539
v 2.444850 11.395110 0.282017
v 2.594433 11.414765 0.249819
v 2.675032 11.438544 0.124343
v 2.644437 11.453244 -0.021348
v 2.519680 11.450808 -0.107029
v 2.476929 10.717851 -0.240391
v 2.623914 10.649688 -0.130646
v 2.655806 10.619267 0.058444
v 2.555073 10.643219 0.223815
v 2.373553 10.710134 0.270340
v 2.215941 10.782173 0.162978
v 2.182141 10.814446 -0.037487
v 2.293534 10.786606 -0.205227
v 1.994834 10.281033 -0.235259
v 1.911164 10.351073 -0.065908
v 1.944618 10.319093 0.132620
v 2.074383 10.205010 0.237347
v 2.219797 10.080276 0.188628
v 2.296852 10.016826 0.021412
v 2.264946 10.047295 -0.167815
v 2.141779 10.154798 -0.274684
v 6.019382 8.689638 0.138701
v 5.979280 8.759036 0.057256
v 6.019382 8.689638 -0.138728
v 6.075989 8.591534 -0.137562
v 6.115267 8.524185 -0.056325
v 6.115267 8.524185 0.056296
v 6.075989 8.591534 0.137532
v 5.979280 8.759036 -0.057282
v 0.533624 0.322991 -1.484463
v -0.162067 2.828486 -1.056834
v 0.524959 2.848426 -0.096511
v 0.544831 2.849731 0.102334
v 0.480141 2.820590 0.008535
v -0.589513 2.749919 1.146847
v 0.130082 1.537957 -1.351066
v 0.320837 1.548088 -1.272624
v 0.202698 1.524754 -1.253482
v 0.005645 4.372109 -0.097853
v 0.025259 4.367716 0.102685
v -0.045670 4.365118 0.008713
v -0.717698 4.534109 0.850568
v -0.914998 4.578295 0.870752
v -0.822821 4.549254 0.800593
v -0.194155 5.987226 0.726901
v -0.806739 6.340125 0.096746
v -0.823613 6.350678 -0.102465
v -0.769471 6.305023 -0.008909
v 0.476070 7.465374 -0.001909
v 1.232084 7.973528 -0.269356
v 1.380611 7.932158 -0.400386
v 1.338132 7.926732 -0.289506
v 1.366222 9.108821 -0.253515
v 1.114050 1.565101 0.001865
v -0.691640 3.762937 0.943317
v -0.889161 3.769887 0.963416
v -0.796936 3.754880 0.893596
v 0.143879 3.733539 -0.097095
v 0.163743 3.732840 0.102487
v 0.096438 3.710170 0.008461
v -1.351318 5.570589 -0.001787
v -0.520780 5.245186 0.782005
v -0.707572 5.324732 0.801965
v -0.620994 5.280455 0.731747
v 0.131843 4.995573 0.001483
v -0.153263 6.972026 0.096437
v -0.168694 6.984496 -0.102383
v -0.123186 6.930226 -0.008861
v 0.997632 7.649326 -0.367036
v 1.360725 8.383754 -0.233784
v 1.517742 8.386245 -0.366368
v 1.476316 8.375507 -0.252821
v 1.047186 0.317100 1.119703
v 0.191975 2.863998 0.791308
v 0.793357 1.573181 0.881996
v 0.548186 1.560159 1.080771
v 0.603718 1.527797 0.895202
v -3.253890 19.956511 -1.790920
v -1.271141 19.602613 -4.254725
v -3.367581 17.537245 -5.407529
v -3.378081 15.148583 -6.661868
v -2.967015 13.175303 -7.028285
v -2.318726 11.653230 -6.684297
v -1.491630 10.716625 -5.646869
v -0.359444 10.435575 -3.626503
v 1.419994 10.858970 0.000002
v -0.803429 18.083002 -6.472906
v -0.194353 16.104080 -7.740703
v 0.389142 14.208266 -8.143353
v 0.873170 12.635634 -7.744791
v 1.208067 11.547541 -6.545756
v 1.385053 10.972501 -4.210604
v 0.169473 21.010159 -1.790920
v 1.623832 19.073515 -5.407529
v 2.975657 17.104147 -6.661869
v 3.745301 15.241229 -7.028285
v 4.065067 13.618043 -6.684294
v 3.907764 12.378459 -5.646869
v 3.129552 11.509419 -3.626503
v 1.861126 20.338209 -3.210062
v 2.795337 20.854200 0.000001
v 4.296400 19.896080 -2.611238
v 6.165902 18.086044 -3.323932
v 7.106462 16.275734 -3.511522
v 7.261721 14.601916 -3.339657
v 6.605092 13.208647 -2.824673
v 4.851104 12.039284 -1.825255
v 5.383081 19.987101 0.000001
v 7.203862 18.381113 0.000001
v 8.172193 16.603750 0.000002
v 8.275291 14.913876 0.000002
v 7.464204 13.473069 0.000002
v 5.409359 12.211105 0.000002
v 0.169473 21.010155 1.790923
v 4.296400 19.896080 2.611244
v 6.165899 18.086048 3.323940
v 7.106459 16.275738 3.511530
v 7.261718 14.601919 3.339663
v 6.605090 13.208647 2.824677
v 4.851104 12.039287 1.825259
v 1.861123 20.338209 3.210065
v -1.271141 19.602613 4.254728
v 1.623832 19.073511 5.407532
v 2.975652 17.104147 6.661872
v 3.745298 15.241236 7.028288
v 4.065062 13.618048 6.684300
v 3.907759 12.378461 5.646873
v 3.129549 11.509421 3.626507
v -0.803432 18.083002 6.472908
v -0.194356 16.104080 7.740703
v 0.389139 14.208271 8.143357
v 0.873167 12.635639 7.744792
v 1.208061 11.547543 6.545758
v 1.385050 10.972501 4.210605
v -1.599533 20.669580 0.000001
v -3.253890 19.956507 1.790920
v -3.367581 17.537245 5.407529
v -3.378084 15.148582 6.661869
v -2.967018 13.175304 7.028286
v -2.318728 11.653232 6.684298
v -1.491636 10.716628 5.646870
v -0.359446 10.435578 3.626508
v -4.274945 18.449638 3.210062
v -5.337615 18.351027 -0.000001
v -6.040148 16.714676 2.611239
v -6.568329 14.166683 3.323935
v -6.328178 12.140800 3.511525
v -5.515382 10.669362 3.339658
v -4.188961 9.886441 2.824675
v -2.080999 9.905717 1.825256
v -6.989943 16.178909 -0.000001
v -7.592567 13.827043 -0.000004
v -7.393909 11.812790 -0.000004
v -6.528952 10.357402 -0.000001
v -5.048076 9.622020 -0.000001
v -2.639254 9.733894 -0.000001
v -6.040145 16.714678 -2.611241
v -6.568326 14.166686 -3.323937
v -6.328176 12.140803 -3.511527
v -5.515379 10.669362 -3.339659
v -4.188959 9.886438 -2.824676
v -2.080996 9.905714 -1.825257
v -4.274941 18.449638 -3.210062
v 8.160586 13.762698 -0.960878
v 6.752757 14.001728 -0.000001
v 9.119728 13.485655 0.000002
v 7.182053 13.630650 -1.722287
v 8.691617 12.796786 -2.282775
v 9.792815 12.748322 -0.960878
v 8.160583 13.762698 0.960879
v 8.691617 12.796786 2.282779
v 9.792815 12.748322 0.960879
v 7.182053 13.630650 1.722287
v 7.081777 12.860620 2.901288
v 5.807520 13.652532 1.401001
v 4.612996 13.005415 1.783382
v 5.250052 13.838424 -0.000001
v 4.114162 13.299334 -0.000001
v 5.807523 13.652532 -1.401003
v 4.612998 13.005415 -1.783381
v 7.081777 12.860620 -2.901287
v 6.134081 12.060109 -3.574275
v 8.199731 12.005291 -3.472889
v 7.641570 11.107162 -4.153099
v 9.461642 11.381611 -2.901287
v 9.163489 10.177430 -3.574272
v 10.735900 10.589703 -1.401000
v 10.107678 11.812467 -1.722286
v 10.630481 11.591847 0.000002
v 10.107678 11.812467 1.722288
v 10.735900 10.589703 1.401004
v 11.149409 10.172162 0.000002
v 11.168979 8.914991 0.000002
v 10.738805 7.813521 0.000002
v 10.684572 9.232125 -1.783381
v 10.684572 9.232125 1.783383
v 10.230672 8.129312 1.884030
v 9.163489 10.177430 3.574276
v 9.461642 11.381614 2.901288
v 8.628097 9.125259 3.770868
v 7.641570 11.107162 4.153100
v 8.199728 12.005291 3.472893
v 7.027910 10.119723 4.369133
v 6.134078 12.060109 3.574273
v 5.427720 11.114188 3.770865
v 4.996988 10.246409 3.586307
v 3.825147 12.110139 1.884029
v 3.472851 11.193613 1.791818
v 3.317014 12.425926 -0.000001
v 2.989590 11.493946 -0.000001
v 3.825147 12.110136 -1.884028
v 3.472851 11.193609 -1.791817
v 5.427720 11.114188 -3.770867
v 4.996988 10.246406 -3.586306
v 7.027910 10.119721 -4.369133
v 6.518860 9.300614 -4.155292
v 8.628097 9.125257 -3.770867
v 8.040726 8.354817 -3.586306
v 10.230669 8.129309 -1.884028
v 9.564866 7.407616 -1.791817
v 8.657500 7.002079 -1.515514
v 10.048129 7.107285 0.000002
v 9.067120 6.747517 0.000002
v 9.564866 7.407619 1.791818
v 8.657500 7.002081 1.515516
v 7.550692 7.274737 0.979302
v 7.371435 7.801329 3.029703
v 8.040730 8.354823 3.586310
v 6.518857 9.300614 4.155291
v 6.084244 8.601277 3.511978
v 5.898107 8.301765 2.259105
v 4.797050 9.401231 3.029700
v 5.066346 8.818681 1.945719
v 3.510988 10.200476 1.515516
v 4.245521 9.328795 0.979299
v 3.101368 10.455040 -0.000001
v 3.979350 9.494211 -0.000001
v 3.510988 10.200476 -1.515515
v 4.245524 9.328793 -0.979301
v 4.797050 9.401227 -3.029698
v 5.066343 8.818679 -1.945717
v 6.084244 8.601277 -3.511977
v 5.898107 8.301765 -2.259104
v 7.371435 7.801326 -3.029698
v 6.729867 7.784848 -1.945717
v 7.550692 7.274734 -0.979298
v 5.861356 8.242635 0.000002
v 7.816863 7.109319 0.000002
v 6.729867 7.784851 1.945722
v -6.817293 8.807420 -4.057331
v -7.431256 7.819736 -2.986505
v -6.228499 9.661754 -3.320327
v -7.051759 7.831126 -4.608201
v -5.875975 8.766687 -5.326736
v -5.421908 9.864424 -4.283696
v -6.731223 9.067230 -2.313571
v -5.671491 9.383925 -1.184057
v -5.335837 10.124233 -2.539938
v -6.897482 8.296817 -1.482671
v -6.215003 8.121756 -0.394122
v -7.371554 7.093740 -1.578727
v -7.181371 5.921961 -1.058017
v -7.772882 6.491336 -2.771720
v -7.673866 5.352616 -2.606943
v -7.497053 6.714922 -4.121203
v -7.341123 5.439756 -4.294418
v -6.474891 7.337278 -5.659247
v -6.120968 6.182662 -6.130382
v -5.406764 7.931977 -6.332015
v -4.844316 7.075421 -6.864566
v -4.440358 8.878437 -5.989299
v -3.531141 8.144452 -6.550515
v -3.283806 9.906456 -4.804691
v -4.550655 9.725711 -5.013940
v -4.116209 10.330880 -3.524285
v -4.396381 10.191401 -1.888410
v -3.158308 10.285270 -2.262218
v -2.729551 10.311653 -3.589867
v -1.642742 9.921187 -3.585335
v -0.834008 9.199384 -3.517709
v -2.150563 9.371600 -5.136449
v -1.990815 9.853807 -1.900048
v -1.184028 9.125038 -1.737714
v -3.210969 9.110902 -0.064082
v -4.180469 9.662914 -0.724173
v -2.469552 8.342331 0.196611
v -4.472295 8.198378 0.672288
v -5.095673 8.871009 -0.029569
v -3.810749 7.386960 0.961386
v -5.800794 7.149108 0.356049
v -5.205537 6.269824 0.640453
v -4.606102 5.598269 0.539333
v -6.660078 4.976934 -0.849368
v -5.989454 4.368659 -0.877572
v -7.178860 4.393168 -2.488422
v -6.482846 3.813461 -2.436406
v -6.828843 4.467514 -4.268420
v -6.149959 3.884169 -4.129282
v -5.543319 5.250221 -6.202746
v -4.927353 4.628567 -5.968934
v -4.202122 6.205590 -6.967517
v -3.651799 5.537179 -6.696277
v -2.807331 7.322725 -6.646587
v -2.325273 6.599637 -6.391055
v -1.352793 8.615615 -5.156765
v -0.941925 7.829247 -4.974150
v -0.872026 6.965099 -4.591957
v -0.448532 8.384447 -3.415316
v -0.453967 7.435253 -3.273621
v -0.781420 8.313740 -1.722439
v -0.736271 7.374881 -1.841668
v -1.349639 6.451195 -2.172305
v -1.767902 6.746758 -0.289376
v -2.004026 7.569341 0.117215
v -3.279583 6.660727 0.844558
v -2.846716 5.978397 0.326747
v -2.705104 5.554034 -0.781851
v -3.968735 5.079634 0.067653
v -3.430211 4.973034 -0.950856
v -5.136001 4.042092 -1.127930
v -4.175212 4.310828 -1.713930
v -5.554060 3.571941 -2.446265
v -4.446620 4.006064 -2.565610
v -5.271756 3.632314 -3.878217
v -4.262933 4.046036 -3.491119
v -4.240122 4.260433 -5.430509
v -3.604501 4.446931 -4.481861
v -3.161308 5.028794 -6.046631
v -2.907468 4.943196 -4.881570
v -2.039292 5.927557 -5.787538
v -2.182362 5.524197 -4.712564
v -1.437361 6.186402 -3.949494
v -2.767249 5.198276 -2.826137
v -1.165950 6.491166 -3.097813
v -2.008071 6.050300 -1.181563
v 1.559151 9.742469 -0.207324
v 1.610746 9.616359 -0.120543
v 1.629307 9.585058 0.035509
v 1.604263 9.666419 0.172337
v 1.549342 9.815424 0.209528
v 1.496904 9.944046 0.123282
v 1.478062 9.975821 -0.035284
v 1.503944 9.891964 -0.172701
v 1.699022 8.314311 0.379890
v 1.723715 8.533674 0.155983
v 1.723715 8.533674 -0.156010
v 1.699022 8.314311 -0.379917
v 1.663869 7.997868 -0.383195
v 1.639048 7.771776 -0.159246
v 1.639048 7.771776 0.159216
v 1.663869 7.997868 0.383168
v 1.641341 8.740927 2.255694
v 1.395487 8.529383 2.739422
v 1.037547 8.664758 2.270819
v 1.208223 8.139134 2.982694
v 0.653212 8.377752 2.225064
v 0.364262 7.910081 2.132177
v 1.121512 8.509632 1.387042
v 1.342064 8.757644 1.756354
v 1.854864 8.700964 1.715327
v 1.955520 8.417452 1.320317
v 1.987568 7.955230 1.005283
v 2.509724 8.172555 2.076534
v 2.208910 8.535291 2.177104
v 1.908285 8.472704 2.698395
v 2.042231 8.046954 2.915969
v 2.095459 7.494231 2.990708
v 1.048729 7.609927 3.074452
v 1.481292 6.847807 2.870588
v 2.042358 7.016810 2.879298
v 0.978779 7.134368 2.964390
v 0.578348 7.068102 2.407794
v 0.878537 6.902779 2.163186
v 0.297191 7.433501 2.025163
v 0.528704 7.280221 1.494240
v 0.848420 7.031451 1.609015
v 0.871242 7.593853 0.985479
v 0.940838 8.070926 1.089028
v 1.373749 7.307312 0.891600
v 1.372563 7.048433 1.234424
v 1.934821 7.476295 0.900387
v 2.276694 7.087017 1.354392
v 1.932706 6.911605 1.522268
v 2.616406 7.177159 1.839614
v 2.672026 7.655005 1.947542
v 2.326338 6.874898 2.267946
v 1.962821 6.782933 2.076435
v 1.438677 6.765951 2.451026
v 1.400988 6.871155 1.834609
v 0.542586 6.933737 0.501887
v 0.780205 6.753473 1.049821
v 0.716240 7.050505 0.430819
v 0.857393 6.596235 0.997833
v 0.910805 6.994266 0.345111
v 1.016454 6.550260 0.927764
v 1.005165 6.800025 0.298113
v 1.167096 6.641641 0.879388
v 0.947736 6.587111 0.320511
v 1.222753 6.819926 0.882587
v 0.778014 6.477906 0.395259
v 0.984206 7.028232 1.007678
v 0.592259 6.531599 0.477086
v 0.831616 6.932986 1.054891
v 0.494162 6.718220 0.520319
v 1.147015 6.981173 0.935959
v 1.539214 7.040915 1.759106
v 1.548173 6.984210 1.825075
v 1.502962 6.961286 1.890597
v 1.432265 6.981722 1.921739
v 1.357121 7.093548 1.839320
v 1.401024 7.119357 1.768204
v 1.477029 7.097389 1.734724
v 1.371892 7.035165 1.902733
v 1.375159 6.595066 1.540663
v 1.305249 6.533595 1.382454
v 1.282857 6.533354 1.610088
v 1.203351 6.465734 1.458254
v 1.200596 6.876424 1.543264
v 1.114367 6.846717 1.387926
v 1.329277 6.671727 1.326718
v 1.395465 6.720154 1.490053
v 1.325311 6.840376 1.488326
v 1.253505 6.806500 1.326633
v 1.169647 6.566078 1.659962
v 1.079299 6.501592 1.512903
v 1.010597 6.763842 1.467101
v 1.107723 6.803327 1.616809
v 1.097501 6.675323 1.662974
v 1.000115 6.621791 1.516869
vn -0.9054 0.2126 -0.3674
vn -0.9696 0.2232 0.1002
vn -0.8889 0.4457 0.1061
vn -0.8272 0.4350 -0.3557
vn -0.3776 0.1198 0.9182
vn 0.0977 0.2175 0.9712
vn -0.1770 0.1185 0.9770
vn -0.3855 0.0982 0.9175
vn -0.0982 0.1635 -0.9817
vn -0.6331 0.0578 -0.7719
vn -0.6364 0.0691 -0.7682
vn -0.1029 0.1756 -0.9791
vn 0.8591 0.3686 -0.3551
vn 0.7152 0.3511 -0.6044
vn 0.7442 0.2618 -0.6145
vn 0.8889 0.2834 -0.3599
vn -0.9949 -0.0145 0.0994
vn -0.7728 0.0300 0.6339
vn -0.7766 0.0419 0.6286
vn -0.9950 0.0012 0.0994
vn -0.6260 -0.0886 -0.7747
vn -0.9134 -0.1360 -0.3838
vn -0.9233 0.0013 -0.3840
vn -0.9246 0.0157 -0.3807
vn -0.0841 -0.0004 -0.9965
vn 0.9266 0.0382 0.3741
vn 0.9841 0.0271 0.1758
vn 0.9455 -0.3069 -0.1083
vn 0.8902 -0.2607 0.3736
vn -0.7620 -0.1100 0.6381
vn -0.3766 -0.0490 0.9251
vn -0.3793 0.1118 0.9185
vn -0.9844 -0.1468 0.0971
vn -0.9943 0.0423 0.0977
vn -0.7809 0.0599 0.6218
vn -0.7647 0.1932 0.6148
vn 0.6238 0.0973 0.7755
vn 0.1073 0.0285 0.9938
vn 0.1041 -0.3645 0.9254
vn 0.6050 -0.3247 0.7270
vn 0.5804 0.3162 0.7504
vn 0.6100 0.2292 0.7585
vn 0.3912 0.1776 0.9030
vn 0.8463 0.3833 0.3699
vn 0.8819 0.2893 0.3722
vn 0.3799 0.0611 -0.9230
vn 0.3626 -0.3551 -0.8616
vn -0.0705 -0.3812 -0.9218
vn 0.3583 0.2705 -0.8935
vn -0.1077 0.1309 -0.9855
vn 0.3770 0.1970 -0.9050
vn 0.7605 0.1289 -0.6364
vn 0.5114 0.2816 -0.8119
vn 0.7224 0.3226 -0.6116
vn 0.9046 0.3916 0.1682
vn 0.9360 0.3029 0.1790
vn 0.0957 0.2043 0.9742
vn 0.3723 0.2395 0.8967
vn -0.2561 0.2987 0.9194
vn 0.1287 0.0287 0.9913
vn 0.1301 0.0136 0.9914
vn -0.2116 0.3447 0.9145
vn -0.3791 0.1429 0.9143
vn -0.1737 0.1175 0.9778
vn -0.1238 0.1485 0.9811
vn -0.3245 0.2299 0.9175
vn 0.7571 0.3273 0.5653
vn 0.8588 0.3501 0.3739
vn 0.6292 0.0524 0.7755
vn -0.6422 0.0735 -0.7630
vn 0.3852 0.0688 -0.9203
vn 0.7738 0.0442 -0.6319
vn 0.9275 0.3604 -0.0994
vn 0.1933 0.2133 -0.9577
vn -0.6284 0.1732 -0.7584
vn -0.1077 0.1128 -0.9878
vn -0.0797 0.1298 -0.9883
vn -0.5647 0.3255 -0.7584
vn -0.4745 0.4478 -0.7579
vn -0.0425 0.1510 -0.9876
vn -0.9253 0.0490 -0.3759
vn 0.4017 0.0570 0.9140
vn 0.6048 -0.1434 0.7834
vn 0.3829 -0.0587 0.9219
vn 0.9299 0.0244 -0.3670
vn 0.7441 -0.2035 -0.6363
vn -0.5340 0.7710 -0.3469
vn -0.5745 0.8116 0.1059
vn -0.6203 0.7783 0.0977
vn -0.5731 0.7333 -0.3658
vn -0.7100 0.6042 -0.3618
vn -0.7605 0.6282 -0.1641
vn -0.6358 0.7549 -0.1608
vn -0.5985 0.7165 -0.3584
vn -0.6952 0.3796 0.6104
vn -0.5914 0.5233 0.6135
vn 0.6794 -0.3662 -0.6359
vn 0.8580 -0.5030 -0.1043
vn 0.8050 -0.4577 0.3774
vn 0.5563 -0.2727 0.7850
vn -0.7177 0.5920 0.3667
vn 0.3764 -0.0539 -0.9249
vn 0.3585 -0.1301 -0.9244
vn -0.4944 0.6185 0.6108
vn -0.5999 0.7134 0.3622
vn 0.5177 -0.3545 0.7787
vn -0.3512 0.5578 -0.7520
vn -0.3844 0.5248 -0.7595
vn -0.6947 0.4630 -0.5505
vn -0.7671 0.5145 -0.3834
vn -0.9073 0.1488 -0.3934
vn -0.8100 0.1355 -0.5706
vn -0.4519 0.6621 0.5978
vn -0.4960 0.6269 0.6007
vn 0.4962 -0.4042 0.7684
vn 0.1249 -0.0014 0.9922
vn 0.6252 -0.4538 -0.6349
vn 0.7861 -0.6100 -0.0998
vn -0.2015 0.3684 0.9076
vn 0.7353 -0.5595 0.3825
vn 0.5930 -0.5067 -0.6258
vn 0.7433 -0.6618 -0.0977
vn -0.0140 0.1597 -0.9871
vn -0.3957 0.5212 -0.7561
vn -0.0123 0.1594 -0.9871
vn 0.6964 -0.6117 0.3754
vn 0.3404 -0.1784 -0.9232
vn 0.3221 -0.2189 -0.9210
vn -0.0317 0.1280 -0.9913
vn 0.3424 -0.2174 -0.9140
vn -0.0391 0.1002 -0.9942
vn 0.4033 -0.1001 -0.9096
vn -0.6451 0.4366 0.6270
vn -0.8262 0.5549 0.0972
vn 0.5355 -0.3819 0.7533
vn 0.1275 -0.0220 0.9916
vn -0.2386 0.3404 0.9095
vn 0.6355 -0.1984 0.7462
vn 0.1512 0.0123 0.9884
vn 0.6390 -0.4688 -0.6098
vn 0.7977 -0.5957 -0.0940
vn -0.3095 0.2432 0.9193
vn 0.7480 -0.5546 0.3647
vn 0.7570 -0.2489 -0.6041
vn 0.9423 -0.3216 -0.0928
vn 0.1358 0.0860 0.9870
vn 0.6622 0.0622 0.7468
vn 0.6141 0.2289 0.7553
vn 0.0952 0.1153 0.9888
vn 0.8830 -0.2979 0.3628
vn -0.3420 0.2571 -0.9039
vn -0.4087 0.1059 -0.9065
vn -0.0759 0.0970 -0.9924
vn 0.9945 0.0481 -0.0933
vn 0.7943 0.0562 -0.6050
vn 0.7464 0.2572 -0.6138
vn 0.9492 0.3000 -0.0953
vn 0.9303 0.0511 0.3632
vn 0.8842 0.2865 0.3689
vn -0.6173 -0.0626 -0.7842
vn -0.9038 -0.1151 -0.4123
vn -0.8872 -0.2307 -0.3996
vn -0.6134 -0.1342 -0.7783
vn 0.4123 0.0739 -0.9081
vn 0.3698 0.1770 -0.9121
vn -0.7622 0.1346 0.6332
vn -0.9841 0.1477 0.0992
vn -0.1195 0.0689 -0.9904
vn -0.7720 -0.0872 0.6296
vn -0.9851 -0.1408 0.0985
vn -0.1267 0.0460 -0.9909
vn -0.6160 -0.1488 -0.7736
vn -0.1247 0.0442 -0.9912
vn -0.3713 0.1131 0.9216
vn -0.3906 0.0054 0.9205
vn -0.9616 -0.2558 0.0992
vn -0.7542 -0.1794 0.6316
vn -0.7489 -0.2010 0.6315
vn -0.9541 -0.2818 0.1012
vn -0.8878 -0.2551 -0.3830
vn 0.9822 0.1602 -0.0981
vn 0.0694 0.1180 0.9906
vn 0.5700 0.2955 0.7667
vn 0.5533 0.3099 0.7732
vn 0.0619 0.1174 0.9911
vn -0.3871 -0.0452 0.9209
vn -0.3851 -0.0574 0.9211
vn 0.9054 0.4131 -0.0981
vn 0.7009 0.3415 -0.6262
vn 0.6861 0.3619 -0.6310
vn 0.8912 0.4421 -0.1011
vn 0.8394 0.3905 0.3781
vn 0.8247 0.4166 0.3826
vn 0.3341 0.2129 -0.9182
vn 0.3218 0.2199 -0.9209
vn 0.9072 0.1533 0.3919
vn 0.0621 -0.7568 0.6507
vn 0.4192 -0.7546 0.5048
vn 0.9460 -0.3117 -0.0889
vn 0.7305 -0.3239 -0.6012
vn 0.8730 -0.3202 0.3678
vn 0.5930 -0.7664 0.2469
vn 0.6549 -0.7533 -0.0606
vn 0.5050 -0.7538 -0.4205
vn -0.5673 -0.4211 -0.7077
vn -0.0567 -0.7583 -0.6494
vn -0.4104 -0.7622 -0.5007
vn 0.2447 -0.7681 -0.5917
vn -0.6880 -0.4312 0.5837
vn -0.8901 -0.4475 0.0867
vn -0.6405 -0.7656 0.0597
vn -0.4939 -0.7635 0.4161
vn 0.3432 -0.9384 -0.0397
vn 0.2700 -0.9381 -0.2167
vn -0.8227 -0.4500 -0.3474
vn -0.5806 -0.7770 -0.2433
vn -0.3387 -0.4116 0.8461
vn -0.2399 -0.7724 0.5881
vn 0.0391 -0.9374 0.3461
vn 0.2145 -0.9378 0.2731
vn 0.1007 -0.9643 -0.2451
vn 0.2427 -0.9648 0.1012
vn -0.0001 -1.0000 -0.0000
vn -0.3457 -0.9375 0.0398
vn -0.2718 -0.9374 0.2177
vn -0.1011 -0.9641 0.2457
vn -0.0399 -0.9372 -0.3464
vn -0.2158 -0.9372 -0.2739
vn -0.2442 -0.9644 -0.1019
vn 0.0786 0.4378 0.8956
vn 0.1204 0.3710 0.9208
vn 0.1643 0.9105 0.3795
vn 0.0823 0.9302 0.3578
vn 0.0599 -0.9122 -0.4053
vn 0.0013 -0.9266 -0.3759
vn 0.0013 -0.9267 0.3759
vn 0.0599 -0.9122 0.4053
vn 0.0526 -0.3958 0.9168
vn 0.1604 -0.4001 0.9023
vn 0.0306 0.3572 0.9335
vn -0.0685 0.9171 0.3927
vn 0.1643 0.9105 -0.3794
vn 0.0823 0.9302 -0.3578
vn -0.0685 0.9171 -0.3927
vn 0.0306 0.3572 -0.9335
vn 0.1203 0.3710 -0.9208
vn -0.1840 0.9153 0.3583
vn -0.1840 0.9153 -0.3583
vn 0.0703 -0.3240 0.9434
vn 0.0786 0.4378 -0.8956
vn -0.0526 0.4266 -0.9029
vn -0.2036 -0.3900 0.8980
vn 0.1292 -0.3336 0.9338
vn -0.0526 0.4266 0.9029
vn -0.2536 0.3461 0.9033
vn -0.2536 0.3461 -0.9033
vn 0.1292 -0.3336 -0.9338
vn -0.2036 -0.3900 -0.8980
vn 0.2465 -0.8877 -0.3889
vn 0.2465 -0.8877 0.3889
vn -0.3177 0.8707 -0.3754
vn 0.2416 -0.9000 0.3628
vn 0.0526 -0.3958 -0.9168
vn 0.0703 -0.3240 -0.9434
vn 0.1604 -0.4001 -0.9023
vn 0.2416 -0.9000 -0.3628
vn -0.3177 0.8707 0.3754
vn -0.1923 -0.9082 -0.3716
vn -0.1923 -0.9082 0.3716
vn 0.3820 -0.8541 -0.3530
vn 0.3820 -0.8541 0.3530
vn -0.0442 0.3560 -0.9335
vn 0.2184 -0.3846 -0.8969
vn 0.2184 -0.3846 0.8969
vn -0.0441 0.3559 0.9335
vn -0.2372 0.8912 0.3866
vn -0.2372 0.8912 -0.3866
vn -0.9407 -0.3021 0.1543
vn -0.9747 -0.1745 0.1400
vn -0.7117 -0.4990 -0.4945
vn -0.6295 -0.6748 -0.3852
vn 0.6098 0.7551 0.2410
vn 0.6648 0.6306 0.4005
vn 0.0139 0.6265 0.7793
vn -0.0931 0.7514 0.6533
vn -0.0765 -0.4967 -0.8646
vn -0.0212 -0.6724 -0.7399
vn -0.4700 -0.8772 -0.0980
vn 0.1472 -0.8755 -0.4603
vn -0.6700 0.3004 0.6788
vn -0.7450 0.2902 0.6006
vn 0.5942 -0.2997 -0.7464
vn 0.6868 -0.4000 -0.6069
vn -0.7941 0.3591 0.4904
vn -0.7824 0.3370 0.5237
vn -0.8633 -0.4018 0.3053
vn -0.8246 -0.4154 0.3841
vn 0.7366 -0.4124 -0.5361
vn 0.8364 0.3384 -0.4311
vn 0.8138 0.3576 -0.4581
vn 0.4523 0.8918 -0.0095
vn -0.2306 0.8900 0.3933
vn 0.2331 -0.9166 -0.3249
vn 0.5972 -0.1729 -0.7833
vn 0.9183 0.3040 -0.2535
vn 0.8859 0.2929 -0.3596
vn -0.3908 -0.9195 0.0424
vn 0.3815 0.9166 -0.1196
vn -0.2866 0.9179 0.2746
vn -0.0022 -0.3215 0.9469
vn -0.0158 -0.2339 0.9721
vn -0.5893 -0.5370 0.6036
vn -0.5047 -0.6648 0.5507
vn 0.3535 0.7674 -0.5349
vn 0.4675 0.6791 -0.5660
vn 0.7552 0.6380 0.1504
vn 0.6544 0.7245 0.2167
vn -0.8640 -0.4972 -0.0793
vn -0.7713 -0.6264 -0.1128
vn -0.2409 -0.8671 0.4360
vn -0.5089 -0.8284 -0.2340
vn 0.5495 0.2557 0.7954
vn 0.4864 0.2508 0.8370
vn -0.6652 -0.2224 -0.7128
vn -0.5336 -0.3347 -0.7767
vn 0.3725 0.3233 0.8699
vn 0.4084 0.2719 0.8713
vn 0.1313 -0.4342 0.8912
vn 0.2332 -0.4385 0.8679
vn -0.4428 -0.3379 -0.8305
vn -0.2885 0.3768 -0.8802
vn -0.3109 0.4274 -0.8489
vn 0.1062 0.8968 -0.4295
vn 0.4071 0.8533 0.3259
vn -0.3408 -0.8857 -0.3151
vn -0.6887 -0.1327 -0.7128
vn -0.1366 0.3582 -0.9236
vn -0.2103 0.3552 -0.9109
vn -0.0659 -0.9248 0.3747
vn -0.0231 0.9378 -0.3464
vn 0.2587 0.8955 0.3622
vn 0.2720 0.0357 -0.9616
vn 0.2830 0.1546 -0.9466
vn 0.8588 0.0492 -0.5100
vn 0.8211 -0.1871 -0.5392
vn -0.7655 0.2388 0.5975
vn -0.8092 0.0952 0.5798
vn -0.9623 0.1878 -0.1969
vn -0.9144 0.3510 -0.2018
vn 0.9849 -0.0342 0.1699
vn 0.9441 -0.2881 0.1604
vn 0.6291 -0.5396 -0.5595
vn 0.7444 -0.6536 0.1371
vn -0.4912 0.2166 -0.8437
vn -0.4490 0.2613 -0.8545
vn 0.5790 -0.2131 0.7870
vn 0.4745 -0.4214 0.7728
vn -0.5714 0.3166 -0.7571
vn -0.3801 0.3668 -0.8491
vn 0.1840 -0.1353 -0.9736
vn -0.2100 -0.2969 -0.9315
vn 0.0247 -0.6159 0.7875
vn -0.0703 0.0661 0.9953
vn -0.3281 0.0055 0.9446
vn -0.5896 0.5356 0.6046
vn -0.7238 0.6634 -0.1899
vn 0.2013 -0.9652 0.1668
vn 0.6149 -0.0573 0.7865
vn -0.1297 -0.0053 0.9915
vn -0.1173 0.0019 0.9931
vn 0.1066 -0.8312 -0.5457
vn -0.6500 0.5186 0.5555
vn -0.7525 0.6439 -0.1380
vn 0.7806 0.3183 -0.5378
vn 0.7825 0.3090 -0.5405
vn 0.7822 0.3105 -0.5401
vn -0.1846 0.1362 -0.9733
vn -0.1811 0.1159 -0.9766
vn -0.1816 0.1183 -0.9762
vn 0.7841 0.3012 -0.5427
vn -0.1780 0.0979 -0.9792
vn 0.7224 0.3388 -0.6028
vn 0.7109 0.3622 -0.6028
vn 0.7222 0.3392 -0.6028
vn 0.8105 0.3787 0.4469
vn 0.7993 0.4012 0.4473
vn 0.8115 0.3765 0.4469
vn -0.4315 0.1357 0.8918
vn -0.4279 0.1151 0.8965
vn -0.4274 0.1126 0.8970
vn 0.6054 0.3097 0.7332
vn 0.6143 0.2179 0.7584
vn 0.6153 0.2001 0.7625
vn 0.6072 0.0044 0.7945
vn 0.6086 0.0156 0.7933
vn -0.4074 0.1459 0.9015
vn -0.4088 0.1416 0.9016
vn 0.8549 0.2702 0.4429
vn 0.8525 0.2771 0.4433
vn 0.7600 0.2445 -0.6022
vn 0.7602 0.2437 -0.6022
vn 0.7975 -0.0216 -0.6029
vn 0.7975 -0.0235 -0.6028
vn 0.9011 -0.0154 0.4333
vn 0.9012 -0.0248 0.4327
vn -0.5884 0.5380 0.6036
vn -0.6222 0.4988 0.6034
vn -0.5890 0.5373 0.6036
vn -0.6683 0.6028 -0.4360
vn -0.7080 0.5567 -0.4347
vn -0.6663 0.6050 -0.4360
vn -0.3812 0.2116 0.8999
vn -0.3813 0.2114 0.8999
vn 0.5525 -0.1939 0.8107
vn 0.5532 -0.1920 0.8106
vn 0.5042 -0.2990 0.8102
vn -0.3704 0.2299 0.9000
vn 0.8801 -0.2431 0.4078
vn 0.7804 -0.2264 -0.5828
vn -0.6112 0.6601 -0.4367
vn -0.6116 0.6597 -0.4366
vn -0.5453 0.5824 0.6029
vn -0.5455 0.5823 0.6028
vn -0.5350 0.5913 0.6035
vn -0.5961 0.6732 -0.4375
vn -0.8070 0.5230 -0.2743
vn -0.5939 0.7819 -0.1893
vn -0.7706 0.5822 -0.2593
vn -0.0979 0.2115 -0.9725
vn -0.0410 0.3153 -0.9481
vn -0.0916 0.2233 -0.9704
vn -0.1531 0.0542 -0.9867
vn -0.1536 0.0509 -0.9868
vn -0.9357 0.0924 -0.3406
vn -0.9363 0.0827 -0.3414
vn -0.9259 -0.1393 -0.3510
vn -0.1642 -0.0256 -0.9861
vn 0.0228 0.1903 0.9815
vn 0.0344 0.1438 0.9890
vn 0.0357 0.1387 0.9897
vn 0.9058 0.3701 0.2065
vn 0.9157 0.3395 0.2148
vn 0.9175 0.3337 0.2164
vn 0.9262 0.3029 0.2244
vn 0.0473 0.0919 0.9946
vn 0.2076 -0.9685 -0.1375
vn 0.2903 -0.9433 -0.1611
vn 0.2942 -0.9558 -0.0000
vn 0.1414 0.9050 -0.4013
vn 0.4152 0.8291 -0.3745
vn 0.1608 0.7508 -0.6407
vn -0.6258 0.6688 -0.4013
vn -0.2551 0.8289 -0.4978
vn -0.5551 0.5304 -0.6407
vn 0.1588 -0.9835 -0.0864
vn -0.1771 -0.9448 -0.2758
vn -0.0134 -0.8944 -0.4470
vn -0.5819 -0.6726 -0.4573
vn -0.2984 -0.5853 -0.7539
vn -0.5551 0.5304 0.6407
vn -0.8095 0.4521 0.3745
vn -0.8659 0.1109 0.4877
vn -0.5723 0.2013 0.7950
vn -0.8132 -0.2652 -0.5180
vn -0.4909 -0.1660 -0.8553
vn -0.4920 0.8416 -0.2227
vn 0.0046 -0.0150 -0.9999
vn 0.1407 -0.4573 -0.8781
vn -0.1938 0.6297 -0.7523
vn 0.3729 -0.9176 -0.1375
vn 0.2512 -0.8163 -0.5201
vn -0.5723 0.2013 -0.7950
vn -0.1069 0.3472 -0.9317
vn -0.2942 0.9558 -0.0000
vn -0.0664 0.9726 0.2227
vn -0.0664 0.9726 -0.2227
vn -0.4920 0.8416 0.2227
vn 0.4217 -0.9026 0.0865
vn 0.3729 -0.9176 0.1375
vn 0.4993 0.1388 -0.8553
vn 0.5758 -0.3162 -0.7539
vn 0.3600 0.4883 -0.7950
vn 0.5140 -0.7321 -0.4470
vn 0.1414 0.9050 0.4013
vn 0.1608 0.7508 0.6407
vn 0.4152 0.8291 0.3745
vn 0.8216 0.2380 -0.5180
vn 0.8593 -0.2290 -0.4573
vn 0.6776 -0.6817 -0.2758
vn 0.4217 -0.9026 -0.0864
vn 0.6537 0.5786 -0.4877
vn 0.2207 0.9754 -0.0000
vn 0.4443 -0.8959 -0.0000
vn 0.9800 -0.1991 -0.0000
vn 0.5252 0.8510 -0.0000
vn 0.7836 0.6213 -0.0000
vn 0.7484 -0.6632 -0.0000
vn 0.9603 0.2791 -0.0000
vn -0.2551 0.8289 0.4978
vn 0.2076 -0.9685 0.1375
vn 0.1588 -0.9835 0.0865
vn 0.8593 -0.2290 0.4573
vn 0.6776 -0.6817 0.2759
vn 0.6537 0.5786 0.4877
vn 0.8216 0.2380 0.5180
vn 0.5758 -0.3162 0.7539
vn 0.5140 -0.7321 0.4470
vn 0.3600 0.4883 0.7950
vn 0.4993 0.1388 0.8553
vn -0.8659 0.1109 -0.4877
vn -0.8095 0.4521 -0.3745
vn -0.6258 0.6688 0.4013
vn 0.2903 -0.9433 0.1611
vn 0.2512 -0.8163 0.5201
vn -0.1069 0.3472 0.9317
vn 0.0046 -0.0150 0.9999
vn -0.7309 0.6825 -0.0000
vn 0.1407 -0.4573 0.8781
vn -0.1938 0.6297 0.7523
vn -0.0134 -0.8944 0.4470
vn -0.4909 -0.1660 0.8553
vn -0.2984 -0.5853 0.7539
vn -0.1771 -0.9448 0.2758
vn -0.8132 -0.2652 0.5180
vn -0.5819 -0.6726 0.4573
vn 0.1364 -0.9907 -0.0000
vn -0.9510 -0.3092 -0.0000
vn -0.6984 -0.7157 -0.0000
vn -0.9128 0.4084 -0.0000
vn -0.9973 0.0731 -0.0000
vn -0.2460 -0.9693 -0.0000
vn -0.0046 1.0000 -0.0000
vn 0.2805 0.9265 -0.2508
vn 0.0628 0.9036 -0.4237
vn 0.2805 0.9265 0.2508
vn 0.5278 0.8493 -0.0000
vn 0.7065 0.6617 -0.2508
vn 0.4470 0.7193 -0.5317
vn 0.4470 0.7193 0.5317
vn 0.0628 0.9036 0.4237
vn 0.7065 0.6617 0.2508
vn 0.0275 0.7573 0.6525
vn -0.2071 0.9030 0.3764
vn -0.2972 0.9548 -0.0000
vn -0.4852 0.7262 0.4871
vn -0.5999 0.8001 -0.0000
vn -0.2234 0.5634 0.7954
vn -0.2071 0.9030 -0.3764
vn -0.4852 0.7262 -0.4871
vn 0.0275 0.7573 -0.6525
vn -0.2234 0.5634 -0.7954
vn 0.3453 0.5555 -0.7564
vn 0.1916 0.3082 -0.9318
vn 0.6668 0.3599 -0.6525
vn 0.6041 0.0492 -0.7954
vn 0.9014 0.2142 -0.3764
vn 0.8659 -0.1135 -0.4871
vn 0.7824 0.4564 -0.4237
vn 0.8987 0.4387 -0.0000
vn 0.7824 0.4564 0.4237
vn 0.9014 0.2142 0.3764
vn 0.9877 0.1563 -0.0000
vn 0.9830 -0.1836 -0.0000
vn 0.8659 -0.1135 0.4871
vn 0.8416 -0.5401 -0.0000
vn 0.7194 -0.4625 0.5182
vn 0.7194 -0.4625 -0.5182
vn 0.6668 0.3599 0.6525
vn 0.6041 0.0492 0.7954
vn 0.4332 -0.2847 0.8552
vn 0.3453 0.5555 0.7564
vn 0.1916 0.3082 0.9318
vn -0.0077 -0.0124 0.9999
vn -0.4471 0.2624 0.8552
vn -0.7333 0.4402 0.5182
vn -0.8773 0.0710 0.4746
vn -0.6157 -0.0915 0.7826
vn -0.2169 -0.3491 0.9117
vn -0.8569 0.5154 -0.0000
vn -0.9912 0.1320 -0.0000
vn -0.7333 0.4402 -0.5182
vn -0.8773 0.0710 -0.4746
vn -0.4471 0.2624 -0.8552
vn -0.6157 -0.0915 -0.7826
vn -0.0077 -0.0124 -0.9999
vn -0.2169 -0.3491 -0.9117
vn 0.4332 -0.2847 -0.8552
vn 0.1906 -0.5926 -0.7826
vn 0.4521 -0.7552 -0.4746
vn 0.5573 -0.8303 -0.0000
vn 0.0117 -0.9493 -0.3142
vn 0.4521 -0.7552 0.4746
vn 0.0827 -0.9966 -0.0000
vn 0.0117 -0.9493 0.3142
vn 0.1906 -0.5926 0.7826
vn -0.1554 -0.8455 0.5109
vn -0.4398 -0.8856 0.1494
vn -0.3926 -0.9149 0.0939
vn -0.3710 -0.9286 -0.0000
vn -0.4238 -0.6819 0.5961
vn -0.5197 -0.8362 0.1751
vn -0.6893 -0.5137 0.5109
vn -0.5993 -0.7864 0.1494
vn -0.8563 -0.4099 0.3142
vn -0.6465 -0.7571 0.0939
vn -0.9302 -0.3671 -0.0000
vn -0.6684 -0.7438 -0.0000
vn -0.8563 -0.4099 -0.3142
vn -0.6465 -0.7571 -0.0939
vn -0.6893 -0.5137 -0.5109
vn -0.5993 -0.7864 -0.1494
vn -0.4238 -0.6819 -0.5961
vn -0.5197 -0.8362 -0.1751
vn -0.1554 -0.8455 -0.5109
vn -0.4398 -0.8856 -0.1494
vn -0.3926 -0.9149 -0.0939
vn -0.5278 -0.8493 -0.0000
vn -0.9374 0.3483 -0.0056
vn -0.7813 0.5489 -0.2971
vn -0.8443 0.3142 -0.4340
vn -0.7568 0.6228 0.1984
vn -0.6105 0.7872 -0.0872
vn -0.3847 0.8493 -0.3614
vn -0.5429 0.5885 -0.5991
vn -0.4911 0.7450 0.4515
vn -0.8030 0.4390 0.4031
vn -0.3603 0.9232 0.1341
vn -0.6672 0.3884 0.6356
vn -0.8990 0.1824 0.3982
vn -0.9973 0.0619 0.0400
vn -0.8252 -0.1207 0.5518
vn -0.9582 -0.2723 0.0879
vn -0.5665 0.1093 0.8168
vn -0.9357 0.0716 -0.3455
vn -0.8727 -0.2641 -0.4107
vn -0.7308 0.1963 -0.6537
vn -0.6440 -0.1249 -0.7547
vn -0.4362 0.4036 -0.8043
vn -0.2670 0.1485 -0.9522
vn -0.1358 0.6471 -0.7502
vn 0.1261 0.4585 -0.8797
vn 0.0960 0.8531 -0.5128
vn 0.3849 0.6885 -0.6147
vn -0.1745 0.8216 -0.5426
vn -0.0967 0.9851 -0.1420
vn -0.1332 0.9464 0.2944
vn 0.1327 0.9639 0.2308
vn 0.1987 0.9679 -0.1540
vn 0.5151 0.8437 -0.1511
vn 0.4324 0.8319 0.3478
vn 0.7993 0.5873 -0.1270
vn 0.7093 0.5780 0.4034
vn 0.6588 0.4255 -0.6205
vn -0.0722 0.8392 0.5390
vn 0.2037 0.6927 0.6919
vn 0.4594 0.4258 0.7795
vn -0.3624 0.6263 0.6903
vn -0.1761 0.4229 0.8889
vn 0.0576 0.1357 0.9891
vn -0.3599 -0.1948 0.9124
vn -0.6428 -0.4462 0.6227
vn -0.3497 -0.7159 0.6043
vn -0.0912 -0.4861 0.8691
vn 0.2953 -0.1893 0.9364
vn -0.7816 -0.6102 0.1295
vn -0.4697 -0.8695 0.1527
vn -0.6933 -0.5987 -0.4011
vn -0.3959 -0.8556 -0.3334
vn -0.4433 -0.4465 -0.7772
vn -0.1676 -0.7165 -0.6772
vn -0.0399 -0.1586 -0.9865
vn 0.2064 -0.4577 -0.8648
vn 0.3760 0.1741 -0.9101
vn 0.5829 -0.1480 -0.7989
vn 0.8414 0.0817 -0.5341
vn 0.9716 0.2223 -0.0811
vn 0.8771 -0.3701 -0.3062
vn 0.8877 0.2214 0.4036
vn 0.9614 -0.2749 -0.0065
vn 0.9077 -0.2776 0.3146
vn 0.6593 0.0824 0.7474
vn 0.7618 -0.3665 0.5341
vn 0.6824 -0.6966 0.2214
vn 0.7236 -0.6716 0.1594
vn 0.7394 -0.6702 0.0634
vn 0.5192 -0.5443 0.6589
vn 0.6096 -0.7493 0.2588
vn 0.2649 -0.7429 0.6147
vn 0.5339 -0.8091 0.2455
vn 0.0998 -0.8896 0.4457
vn 0.4873 -0.8505 0.1978
vn 0.0187 -0.9890 0.1464
vn 0.4626 -0.8799 0.1083
vn 0.0692 -0.9821 -0.1752
vn 0.4782 -0.8782 0.0122
vn 0.2151 -0.8933 -0.3946
vn 0.5193 -0.8531 -0.0498
vn 0.4611 -0.7198 -0.5189
vn 0.5925 -0.8008 -0.0871
vn 0.7120 -0.5169 -0.4753
vn 0.6678 -0.7406 -0.0739
vn 0.7144 -0.6992 -0.0262
vn 0.6105 -0.7872 0.0872
vn -0.5632 -0.3800 -0.7338
vn -0.7950 0.1328 -0.5919
vn -0.3514 -0.8320 -0.4294
vn -0.9090 0.4040 -0.1027
vn -0.8468 0.2920 0.4445
vn -0.6462 -0.1374 0.7507
vn -0.4152 -0.6524 0.6340
vn -0.2901 -0.9463 0.1429
vn -0.5583 -0.2389 -0.7945
vn -0.4366 0.4122 -0.7997
vn -0.5583 -0.2389 0.7945
vn -0.6429 -0.6926 0.3269
vn -0.3497 0.8760 -0.3321
vn -0.3497 0.8760 0.3321
vn -0.6429 -0.6926 -0.3269
vn -0.4366 0.4122 0.7997
vn -0.1352 0.7384 0.6606
vn -0.4442 0.8671 0.2255
vn -0.7623 0.6201 0.1854
vn -0.2966 0.4044 0.8651
vn -0.9449 0.3038 0.1219
vn -0.3983 0.0472 0.9160
vn -0.4892 0.4353 -0.7558
vn -0.3743 0.7362 -0.5639
vn 0.1244 0.9680 0.2180
vn 0.6516 0.7460 0.1378
vn 0.3447 0.8916 -0.2935
vn -0.1848 0.9501 -0.2512
vn 0.4318 0.6471 -0.6283
vn 0.4471 0.3319 -0.8307
vn 0.9954 0.0893 -0.0334
vn 0.8981 0.4366 0.0526
vn -0.4600 -0.4253 0.7794
vn -0.9846 -0.1745 0.0130
vn -0.7437 -0.5841 0.3251
vn 0.3943 0.6799 0.6183
vn 0.5379 -0.0563 0.8411
vn 0.4733 -0.5285 0.7048
vn 0.5094 0.3153 0.8007
vn 0.9128 -0.3842 -0.1388
vn -0.0326 -0.7624 0.6463
vn -0.7869 -0.3995 -0.4703
vn -0.5477 -0.0504 -0.8351
vn -0.1032 -0.9914 0.0799
vn -0.3686 -0.9284 -0.0466
vn 0.5976 -0.5525 -0.5810
vn 0.6408 -0.7372 0.2143
vn 0.1463 -0.9853 -0.0878
vn 0.1310 -0.9199 -0.3697
vn -0.1170 -0.4014 -0.9084
vn 0.3856 -0.1536 -0.9098
vn -0.1345 -0.8576 -0.4964
vn -0.3839 -0.8630 -0.3285
vn -0.1244 -0.9680 -0.2180
vn -0.8637 -0.1573 0.4788
vn -0.8906 -0.1147 0.4400
vn -0.6570 0.6107 0.4420
vn -0.7243 0.5750 0.3804
vn 0.7474 -0.6230 -0.2309
vn 0.7551 -0.5904 -0.2850
vn 0.1288 -0.9895 -0.0654
vn 0.1644 -0.9847 0.0587
vn -0.1248 0.9876 0.0948
vn -0.0279 0.9681 0.2489
vn 0.6255 0.7792 -0.0389
vn 0.5829 0.7831 -0.2169
vn -0.4980 -0.7932 0.3505
vn -0.5657 -0.7888 0.2405
vn 0.9321 0.0962 -0.3493
vn 0.9526 0.1454 -0.2671
vn 0.8368 -0.5475 0.0065
vn 0.8957 -0.4409 0.0575
vn 0.4730 -0.6367 0.6091
vn 0.3633 -0.8158 0.4501
vn -0.7164 -0.0985 0.6907
vn -0.6663 0.0106 0.7456
vn -0.8150 0.5477 0.1895
vn -0.7904 0.5215 0.3213
vn 0.9045 0.0315 -0.4253
vn 0.8393 0.0695 -0.5392
vn -0.2642 -0.6344 0.7265
vn -0.1355 -0.4608 0.8771
vn -0.4205 0.7782 -0.4665
vn -0.3547 0.8978 -0.2611
vn 0.4267 0.6719 -0.6053
vn 0.2682 0.5792 -0.7698
vn -0.4909 -0.8002 0.3445
vn -0.8591 -0.1989 0.4716
vn 0.6480 0.7518 -0.1217
vn 0.9490 0.0304 -0.3138
vn 0.1530 -0.9863 0.0608
vn -0.7392 0.5184 0.4299
vn -0.1102 0.9710 0.2123
vn 0.7209 -0.6556 -0.2245
vt 0.051979 0.626913
vt 0.052175 0.626201
vt 0.052532 0.638711
vt 0.052502 0.638883
vt 0.068565 0.581389
vt 0.068965 0.581718
vt 0.068737 0.596272
vt 0.068423 0.596410
vt 0.053774 0.579116
vt 0.052563 0.578259
vt 0.052491 0.596828
vt 0.053456 0.597438
vt 0.070382 0.583314
vt 0.070034 0.583028
vt 0.069660 0.595964
vt 0.069944 0.595839
vt 0.067696 0.562307
vt 0.068211 0.562702
vt 0.068128 0.581030
vt 0.067721 0.580878
vt 0.068290 0.545701
vt 0.067577 0.541127
vt 0.067666 0.562021
vt 0.068188 0.562634
vt 0.067755 0.582914
vt 0.068116 0.581203
vt 0.054043 0.562026
vt 0.052665 0.561326
vt 0.054123 0.620731
vt 0.054173 0.620551
vt 0.054289 0.629327
vt 0.054241 0.629602
vt 0.052700 0.561735
vt 0.053316 0.561869
vt 0.053131 0.578689
vt 0.052586 0.578327
vt 0.052940 0.597014
vt 0.052503 0.596655
vt 0.067733 0.545580
vt 0.068325 0.546110
vt 0.067709 0.596785
vt 0.068057 0.596571
vt 0.068121 0.609661
vt 0.067800 0.610576
vt 0.055205 0.562278
vt 0.054152 0.551266
vt 0.055414 0.551302
vt 0.053566 0.597529
vt 0.054345 0.600435
vt 0.054028 0.611494
vt 0.053342 0.611796
vt 0.070139 0.582682
vt 0.070326 0.582837
vt 0.069899 0.595761
vt 0.069653 0.595869
vt 0.069668 0.546401
vt 0.070404 0.545059
vt 0.070460 0.535655
vt 0.069778 0.535641
vt 0.069476 0.582138
vt 0.069081 0.581813
vt 0.068855 0.596220
vt 0.069288 0.596030
vt 0.055443 0.561848
vt 0.054881 0.562128
vt 0.054523 0.579610
vt 0.054987 0.579904
vt 0.054701 0.598462
vt 0.054780 0.598858
vt 0.054340 0.611428
vt 0.054274 0.611386
vt 0.051952 0.556752
vt 0.052108 0.561205
vt 0.052071 0.577932
vt 0.052041 0.577646
vt 0.052096 0.596503
vt 0.052130 0.598539
vt 0.068941 0.546244
vt 0.069399 0.563491
vt 0.068756 0.563064
vt 0.054783 0.579786
vt 0.054234 0.597802
vt 0.053481 0.595991
vt 0.069247 0.630387
vt 0.069607 0.629325
vt 0.070152 0.637156
vt 0.069924 0.639459
vt 0.052798 0.612035
vt 0.052432 0.612196
vt 0.052819 0.624382
vt 0.052496 0.625286
vt 0.068444 0.608757
vt 0.068707 0.608019
vt 0.068948 0.618867
vt 0.068727 0.620043
vt 0.070693 0.564350
vt 0.070952 0.564522
vt 0.069748 0.605106
vt 0.069531 0.605714
vt 0.052415 0.612264
vt 0.053230 0.611845
vt 0.054072 0.598045
vt 0.054409 0.598653
vt 0.054035 0.611589
vt 0.053663 0.611655
vt 0.053583 0.622243
vt 0.053902 0.621290
vt 0.071057 0.564575
vt 0.070612 0.564279
vt 0.069922 0.563838
vt 0.052467 0.625383
vt 0.053201 0.623312
vt 0.053436 0.633891
vt 0.052802 0.637268
vt 0.053364 0.648040
vt 0.053903 0.643814
vt 0.068826 0.607687
vt 0.069208 0.606618
vt 0.052084 0.612410
vt 0.052055 0.612726
vt 0.053311 0.623002
vt 0.053906 0.621339
vt 0.054052 0.630612
vt 0.053540 0.633336
vt 0.055327 0.580147
vt 0.055451 0.580215
vt 0.069774 0.604975
vt 0.069527 0.605665
vt 0.069681 0.614926
vt 0.069894 0.613797
vt 0.067680 0.597101
vt 0.068040 0.596639
vt 0.067604 0.611288
vt 0.068092 0.609758
vt 0.054821 0.667862
vt 0.054765 0.666606
vt 0.055167 0.669776
vt 0.055187 0.669901
vt 0.068127 0.623258
vt 0.068427 0.621643
vt 0.068650 0.635228
vt 0.068989 0.632415
vt 0.053025 0.650853
vt 0.053105 0.650125
vt 0.053924 0.659107
vt 0.053923 0.659358
vt 0.053102 0.635668
vt 0.052820 0.637171
vt 0.053622 0.646012
vt 0.053384 0.647872
vt 0.070047 0.624061
vt 0.070262 0.622381
vt 0.054362 0.630565
vt 0.054637 0.638006
vt 0.054582 0.638507
vt 0.069866 0.613977
vt 0.069677 0.614987
vt 0.070207 0.622882
vt 0.070047 0.624131
vt 0.068218 0.622760
vt 0.068445 0.621546
vt 0.069009 0.632247
vt 0.068817 0.633759
vt 0.053770 0.632114
vt 0.054056 0.630551
vt 0.054184 0.641615
vt 0.054422 0.639686
vt 0.069061 0.618266
vt 0.069395 0.616489
vt 0.069528 0.628189
vt 0.069809 0.625990
vt 0.068129 0.621578
vt 0.069731 0.641407
vt 0.069587 0.642919
vt 0.054422 0.639756
vt 0.054947 0.648531
vt 0.054527 0.652781
vt 0.053998 0.643071
vt 0.070439 0.648617
vt 0.070446 0.652237
vt 0.070812 0.654276
vt 0.070846 0.652171
vt 0.071219 0.656649
vt 0.071179 0.656314
vt 0.071292 0.662612
vt 0.071342 0.662853
vt 0.070431 0.648370
vt 0.070943 0.652951
vt 0.070792 0.654151
vt 0.070323 0.649767
vt 0.069425 0.628997
vt 0.055525 0.656383
vt 0.055166 0.660188
vt 0.070578 0.632849
vt 0.070752 0.631089
vt 0.070791 0.644563
vt 0.070596 0.646625
vt 0.055127 0.646714
vt 0.055077 0.647222
vt 0.071158 0.640760
vt 0.071307 0.639184
vt 0.054099 0.657176
vt 0.054814 0.664242
vt 0.055682 0.654809
vt 0.055636 0.655211
vt 0.069548 0.643733
vt 0.069724 0.641551
vt 0.054299 0.655084
vt 0.054106 0.657032
vt 0.054971 0.662250
vt 0.054806 0.663995
vt 0.070702 0.631597
vt 0.070572 0.632906
vt 0.071261 0.639586
vt 0.071150 0.640758
vt 0.054755 0.650478
vt 0.054953 0.648474
vt 0.055361 0.658126
vt 0.055533 0.656385
vt 0.070379 0.634853
vt 0.070986 0.642501
vt 0.071307 0.650209
vt 0.071504 0.648725
vt 0.070878 0.653641
vt 0.071647 0.655810
vt 0.071854 0.655091
vt 0.054736 0.666756
vt 0.071266 0.657137
vt 0.071108 0.657592
vt 0.056046 0.663094
vt 0.055682 0.665834
vt 0.055483 0.673217
vt 0.055554 0.671939
vt 0.071110 0.651695
vt 0.056403 0.670108
vt 0.056022 0.671435
vt 0.071682 0.647408
vt 0.071833 0.646273
vt 0.071441 0.656529
vt 0.056208 0.661898
vt 0.056158 0.662250
vt 0.072051 0.654339
vt 0.072209 0.653789
vt 0.056149 0.679028
vt 0.056505 0.679099
vt 0.056315 0.691019
vt 0.056020 0.690041
vt 0.056584 0.669414
vt 0.056521 0.669699
vt 0.055408 0.667944
vt 0.055750 0.672314
vt 0.055909 0.678903
vt 0.055485 0.667320
vt 0.055318 0.668576
vt 0.055816 0.672154
vt 0.055641 0.672762
vt 0.071783 0.646625
vt 0.071671 0.647469
vt 0.072146 0.654074
vt 0.072028 0.654483
vt 0.055880 0.664350
vt 0.056057 0.663033
vt 0.056229 0.670716
vt 0.056426 0.669964
vt 0.072292 0.663429
vt 0.072145 0.663400
vt 0.071963 0.675230
vt 0.072085 0.675635
vt 0.072240 0.663495
vt 0.072130 0.663474
vt 0.072031 0.675695
vt 0.071940 0.675394
vt 0.071391 0.670117
vt 0.071404 0.668910
vt 0.070958 0.687473
vt 0.071032 0.688355
vt 0.056342 0.679066
vt 0.056520 0.679025
vt 0.056180 0.690571
vt 0.056338 0.690855
vt 0.071774 0.663403
vt 0.071967 0.663441
vt 0.071418 0.663333
vt 0.071270 0.663187
vt 0.071645 0.674416
vt 0.071805 0.674946
vt 0.055645 0.678812
vt 0.055667 0.678237
vt 0.071350 0.673438
vt 0.071239 0.672675
vt 0.055623 0.705144
vt 0.055407 0.703980
vt 0.054942 0.721934
vt 0.055076 0.722593
vt 0.055614 0.688300
vt 0.055779 0.684535
vt 0.071581 0.663365
vt 0.071485 0.673886
vt 0.056667 0.679054
vt 0.056615 0.679120
vt 0.056460 0.691260
vt 0.056405 0.691320
vt 0.055704 0.690191
vt 0.055956 0.678990
vt 0.055793 0.678958
vt 0.055860 0.689511
vt 0.055725 0.689063
vt 0.070942 0.687915
vt 0.071031 0.688457
vt 0.070567 0.706309
vt 0.070511 0.706035
vt 0.055845 0.689219
vt 0.071068 0.546223
vt 0.071146 0.563135
vt 0.071624 0.546343
vt 0.055840 0.706205
vt 0.055209 0.723252
vt 0.055505 0.704567
vt 0.055406 0.704082
vt 0.054997 0.722207
vt 0.071563 0.690991
vt 0.071473 0.690552
vt 0.070834 0.707627
vt 0.070890 0.707900
vt 0.071532 0.690911
vt 0.071465 0.690580
vt 0.055741 0.705721
vt 0.055848 0.706177
vt 0.055154 0.722979
vt 0.071248 0.689519
vt 0.071366 0.690096
vt 0.070701 0.706968
vt 0.070779 0.707354
vt 0.055317 0.703540
vt 0.055333 0.703098
vt 0.054886 0.721660
vt 0.071130 0.688942
vt 0.070622 0.706582
vt 0.055938 0.706616
vt 0.055907 0.706536
vt 0.055265 0.723525
vt 0.071116 0.546715
vt 0.071423 0.546781
vt 0.054163 0.545608
vt 0.055165 0.545608
vt 0.071594 0.535544
vt 0.071071 0.535529
vt 0.071425 0.535683
vt 0.071039 0.535677
vt 0.070790 0.529983
vt 0.071084 0.529938
vt 0.070273 0.546532
vt 0.071228 0.529852
vt 0.070813 0.529852
vt 0.052863 0.551098
vt 0.054153 0.551266
vt 0.053138 0.545477
vt 0.054835 0.551280
vt 0.055446 0.551154
vt 0.055188 0.545477
vt 0.054700 0.545563
vt 0.068516 0.535605
vt 0.067966 0.535458
vt 0.068348 0.529852
vt 0.068786 0.529983
vt 0.053939 0.599301
vt 0.070325 0.529938
vt 0.069788 0.529983
vt 0.070793 0.527149
vt 0.070498 0.527149
vt 0.052297 0.550415
vt 0.052341 0.551083
vt 0.052642 0.544078
vt 0.052723 0.545477
vt 0.069095 0.535616
vt 0.069777 0.535641
vt 0.069251 0.529938
vt 0.055999 0.561968
vt 0.055798 0.562406
vt 0.055800 0.551308
vt 0.055969 0.551169
vt 0.055459 0.545563
vt 0.055603 0.545477
vt 0.068488 0.535473
vt 0.067922 0.534790
vt 0.068763 0.529852
vt 0.068267 0.528453
vt 0.052891 0.551230
vt 0.053470 0.551241
vt 0.053161 0.545608
vt 0.053626 0.545563
vt 0.054161 0.542886
vt 0.054874 0.542886
vt 0.054873 0.542774
vt 0.054492 0.542348
vt 0.055168 0.542774
vt 0.054963 0.542348
vt 0.054160 0.539237
vt 0.068778 0.527149
vt 0.069073 0.527261
vt 0.070499 0.527261
vt 0.070588 0.526723
vt 0.053828 0.542359
vt 0.069453 0.526734
vt 0.069786 0.527261
vt 0.053449 0.542774
vt 0.053448 0.542886
vt 0.053153 0.542774
vt 0.053401 0.541658
vt 0.069074 0.527149
vt 0.069026 0.526033
vt 0.070117 0.526723
vt 0.058075 0.683664
vt 0.059125 0.679904
vt 0.059160 0.682176
vt 0.058089 0.686371
vt 0.058036 0.676611
vt 0.059034 0.674224
vt 0.059072 0.676603
vt 0.060327 0.677035
vt 0.060304 0.678982
vt 0.060288 0.680327
vt 0.059125 0.679905
vt 0.057055 0.685696
vt 0.058053 0.679625
vt 0.057138 0.682612
vt 0.056413 0.670493
vt 0.057265 0.678061
vt 0.056167 0.674910
vt 0.057361 0.674674
vt 0.055997 0.677964
vt 0.060344 0.675645
vt 0.056586 0.667385
vt 0.061421 0.682561
vt 0.061307 0.684059
vt 0.061374 0.683193
vt 0.061261 0.684673
vt 0.050869 0.616434
vt 0.050441 0.640940
vt 0.050517 0.639744
vt 0.051008 0.614265
vt 0.051685 0.621979
vt 0.050881 0.644001
vt 0.050696 0.644001
vt 0.051343 0.621979
vt 0.050692 0.639744
vt 0.051331 0.614265
vt 0.051882 0.602041
vt 0.052282 0.602041
vt 0.050512 0.642705
vt 0.051002 0.619631
vt 0.051662 0.616434
vt 0.052615 0.605884
vt 0.052560 0.609956
vt 0.051687 0.611539
vt 0.051636 0.605884
vt 0.052566 0.603330
vt 0.053670 0.603330
vt 0.052690 0.611539
vt 0.053668 0.609956
vt 0.052445 0.615715
vt 0.052023 0.615715
vt 0.053348 0.598733
vt 0.050872 0.640940
vt 0.050953 0.642705
vt 0.051815 0.619631
vt 0.052895 0.598733
vt 0.053340 0.614620
vt 0.052883 0.614620
vt 0.050055 0.635051
vt 0.049829 0.642215
vt 0.049749 0.641778
vt 0.049944 0.634223
vt 0.050199 0.636295
vt 0.049937 0.642752
vt 0.049965 0.642922
vt 0.050241 0.636550
vt 0.049722 0.641616
vt 0.049904 0.633983
vt 0.050306 0.628692
vt 0.050257 0.628395
vt 0.049919 0.642692
vt 0.050179 0.636019
vt 0.049958 0.634460
vt 0.050291 0.629436
vt 0.051076 0.629593
vt 0.050514 0.632028
vt 0.050411 0.630165
vt 0.051013 0.627149
vt 0.050877 0.626327
vt 0.050391 0.631282
vt 0.050940 0.628768
vt 0.050501 0.632871
vt 0.050553 0.633185
vt 0.050874 0.624873
vt 0.049764 0.641818
vt 0.049852 0.642287
vt 0.050079 0.635414
vt 0.050929 0.625210
vt 0.051025 0.630728
vt 0.051081 0.631068
vt 0.057047 0.712507
vt 0.057155 0.723092
vt 0.057266 0.722719
vt 0.057207 0.711679
vt 0.056758 0.713153
vt 0.056952 0.723071
vt 0.056928 0.723358
vt 0.056722 0.713582
vt 0.057289 0.722448
vt 0.057241 0.711274
vt 0.056852 0.702661
vt 0.056894 0.702160
vt 0.057014 0.723362
vt 0.056845 0.713303
vt 0.057130 0.711513
vt 0.056790 0.703206
vt 0.055767 0.700882
vt 0.056490 0.706534
vt 0.056687 0.704434
vt 0.055926 0.697833
vt 0.056042 0.696449
vt 0.056596 0.705277
vt 0.055884 0.699492
vt 0.056421 0.707189
vt 0.056377 0.707718
vt 0.056117 0.694741
vt 0.057211 0.722425
vt 0.057072 0.722680
vt 0.056930 0.712284
vt 0.056069 0.695309
vt 0.055738 0.702041
vt 0.055690 0.702615
vt 0.101523 0.515282
vt 0.101172 0.532588
vt 0.101293 0.532668
vt 0.086019 0.530971
vt 0.085668 0.548293
vt 0.085773 0.548360
vt 0.100847 0.550987
vt 0.085322 0.566795
vt 0.086030 0.567608
vt 0.086726 0.549067
vt 0.086053 0.567727
vt 0.101678 0.552102
vt 0.102307 0.533325
vt 0.101632 0.552064
vt 0.084816 0.566279
vt 0.084592 0.580546
vt 0.084480 0.580595
vt 0.100330 0.550607
vt 0.100105 0.564970
vt 0.099987 0.565022
vt 0.099957 0.576769
vt 0.100076 0.576437
vt 0.084451 0.592062
vt 0.084561 0.591752
vt 0.101194 0.564589
vt 0.101240 0.564568
vt 0.101675 0.552179
vt 0.086050 0.567804
vt 0.085615 0.580193
vt 0.085590 0.580178
vt 0.085423 0.589301
vt 0.085614 0.580254
vt 0.085444 0.589223
vt 0.101069 0.573598
vt 0.101024 0.573725
vt 0.084355 0.618875
vt 0.083799 0.607419
vt 0.084399 0.618472
vt 0.100024 0.602847
vt 0.099468 0.591510
vt 0.100067 0.602509
vt 0.084790 0.602086
vt 0.084686 0.602641
vt 0.100076 0.576458
vt 0.100311 0.587016
vt 0.100198 0.587617
vt 0.100675 0.597747
vt 0.085153 0.612564
vt 0.084687 0.602658
vt 0.101187 0.582318
vt 0.085539 0.598077
vt 0.100837 0.611669
vt 0.100800 0.612063
vt 0.100028 0.602890
vt 0.085175 0.627688
vt 0.085174 0.627857
vt 0.085986 0.635506
vt 0.101540 0.618944
vt 0.087000 0.641064
vt 0.086570 0.637421
vt 0.086891 0.641417
vt 0.102516 0.625792
vt 0.102128 0.622391
vt 0.102469 0.625399
vt 0.102592 0.631603
vt 0.102667 0.631966
vt 0.087042 0.647591
vt 0.087159 0.647653
vt 0.087095 0.657969
vt 0.102611 0.641830
vt 0.102366 0.515465
vt 0.101943 0.533100
vt 0.101837 0.533029
vt 0.086632 0.531166
vt 0.086212 0.548654
vt 0.086033 0.548536
vt 0.085484 0.566552
vt 0.086208 0.548769
vt 0.101283 0.551346
vt 0.101833 0.533144
vt 0.071016 0.544332
vt 0.051742 0.783120
vt 0.060647 0.783120
vt 0.060647 0.781423
vt 0.076307 0.940226
vt 0.087027 0.923958
vt 0.073386 0.923958
vt 0.044987 0.955851
vt 0.060647 0.958970
vt 0.047908 0.939583
vt 0.042955 0.783120
vt 0.033099 0.791714
vt 0.046867 0.791714
vt 0.033099 0.822964
vt 0.028038 0.839225
vt 0.044355 0.839225
vt 0.047908 0.923958
vt 0.034267 0.923958
vt 0.028147 0.891393
vt 0.044431 0.891393
vt 0.026360 0.862728
vt 0.043516 0.862728
vt 0.051910 0.972132
vt 0.060647 0.862728
vt 0.060647 0.839225
vt 0.060647 0.943345
vt 0.060647 0.920635
vt 0.069551 0.783120
vt 0.060647 0.822964
vt 0.060647 0.891060
vt 0.060647 0.978735
vt 0.069384 0.972132
vt 0.060647 0.791714
vt 0.078338 0.783120
vt 0.077778 0.862728
vt 0.076939 0.839225
vt 0.076862 0.891393
vt 0.074427 0.791714
vt 0.094934 0.862728
vt 0.093256 0.839225
vt 0.076307 0.955851
vt 0.088195 0.822964
vt 0.073386 0.939583
vt 0.088195 0.791714
vt 0.093146 0.891393
vt 0.081403 0.958970
vt 0.081188 0.783120
vt 0.087027 0.939583
vt 0.098430 0.839225
vt 0.092225 0.920635
vt 0.098409 0.891060
vt 0.092580 0.791714
vt 0.100374 0.862728
vt 0.081403 0.943345
vt 0.076939 0.807975
vt 0.044987 0.940226
vt 0.039890 0.958970
vt 0.034267 0.939583
vt 0.040106 0.783120
vt 0.020920 0.862728
vt 0.022865 0.839225
vt 0.039890 0.943345
vt 0.029070 0.920635
vt 0.022884 0.891060
vt 0.028714 0.791714
vt 0.098430 0.807975
vt 0.044355 0.807975
vt 0.022865 0.807975
vt 0.039891 0.943345
vt 0.051910 0.956507
vt 0.044987 0.941187
vt 0.060647 0.963110
vt 0.069383 0.956507
vt 0.060646 0.943345
vt 0.029069 0.920635
vt 0.028147 0.895198
vt 0.022884 0.894865
vt 0.044431 0.895198
vt 0.060647 0.894865
vt 0.076862 0.895198
vt 0.093146 0.895198
vt 0.076307 0.941187
vt 0.092224 0.920635
vt 0.098409 0.894865
vt 0.100374 0.866532
vt 0.094933 0.866532
vt 0.077778 0.866532
vt 0.060646 0.920635
vt 0.060646 0.894865
vt 0.060646 0.866532
vt 0.043516 0.866532
vt 0.026360 0.866532
vt 0.028038 0.843030
vt 0.044354 0.843030
vt 0.060646 0.843030
vt 0.020920 0.866532
vt 0.022864 0.843030
vt 0.060647 0.866532
vt 0.060647 0.843030
vt 0.076939 0.843030
vt 0.093256 0.843030
vt 0.098429 0.843030
vt 0.098429 0.811780
vt 0.076939 0.811780
vt 0.060646 0.791714
vt 0.060646 0.822964
vt 0.060646 0.783120
vt 0.044354 0.811780
vt 0.022864 0.811780
vt 0.051583 0.938107
vt 0.037937 0.935744
vt 0.029265 0.916274
vt 0.047232 0.916299
vt 0.021098 0.879007
vt 0.043576 0.879007
vt 0.074836 0.951133
vt 0.083357 0.935744
vt 0.069712 0.938107
vt 0.060647 0.951133
vt 0.049952 0.949846
vt 0.074061 0.916299
vt 0.077718 0.879007
vt 0.100196 0.879007
vt 0.092028 0.916274
vt 0.043506 0.845379
vt 0.020920 0.845379
vt 0.031383 0.826581
vt 0.071343 0.949846
vt 0.077789 0.845379
vt 0.100374 0.845379
vt 0.060647 0.826581
vt 0.020920 0.814129
vt 0.031384 0.795331
vt 0.031383 0.795331
vt 0.031384 0.826581
vt 0.060647 0.784412
vt 0.060647 0.795331
vt 0.041839 0.784412
vt 0.089910 0.795331
vt 0.079455 0.784412
vt 0.043506 0.814129
vt 0.077789 0.814129
vt 0.089910 0.826581
vt 0.100374 0.814129
vt 0.046459 0.951133
vt 0.051195 0.654663
vt 0.063313 0.656749
vt 0.064777 0.653183
vt 0.052179 0.650678
vt 0.062332 0.659202
vt 0.050549 0.657423
vt 0.052948 0.647797
vt 0.065831 0.650597
vt 0.080283 0.662468
vt 0.089853 0.655414
vt 0.090592 0.656534
vt 0.080411 0.664619
vt 0.088715 0.653719
vt 0.080113 0.659287
vt 0.087864 0.652498
vt 0.079966 0.656853
vt 0.076157 0.665263
vt 0.076031 0.662899
vt 0.075696 0.656648
vt 0.075840 0.659376
s 1
usemtl forest.010
f 10/1/1 54/2/2 369/3/3 67/4/4
f 5/5/5 343/6/6 364/7/7 57/8/8
f 135/9/9 132/10/10 46/11/11 47/12/12
f 340/13/13 43/14/14 140/15/15 366/16/16
f 136/17/17 133/18/18 44/19/19 45/20/20
f 41/21/21 3/22/22 49/23/23 132/24/10
f 132/24/10 49/23/23 6/25/24 46/26/11
f 42/27/25 41/28/21 132/10/10 135/9/9
f 8/29/26 348/30/27 373/31/28 69/32/29
f 39/33/30 2/34/31 50/35/32 133/36/18
f 133/36/18 50/35/32 5/37/5 44/38/19
f 40/39/33 39/40/30 133/18/18 136/17/17
f 142/41/34 138/42/35 53/43/36 54/44/2
f 381/45/37 38/27/38 182/46/39 178/47/40
f 343/48/6 382/49/41 139/50/42 363/51/43
f 382/52/41 4/53/44 58/54/45 139/55/42
f 42/56/25 338/57/46 125/58/47 180/59/48
f 339/60/49 47/61/12 141/62/50 59/63/51
f 36/64/52 338/65/46 345/66/53 134/67/54
f 4/68/44 341/69/55 367/70/56 58/71/45
f 3/72/22 40/73/33 136/74/17 49/75/23
f 49/75/23 136/74/17 45/76/20 6/77/24
f 2/78/31 38/56/38 137/79/57 50/80/32
f 137/9/57 384/81/58 382/82/41 343/83/6
f 13/84/59 353/85/60 149/86/61 79/87/62
f 44/38/19 5/37/5 57/88/8 138/89/35
f 138/89/35 57/88/8 9/90/63 53/91/36
f 45/20/20 44/19/19 138/42/35 142/41/34
f 9/92/63 351/93/64 371/94/65 68/95/66
f 383/96/67 48/97/68 4/53/44 382/52/41
f 139/55/42 58/54/45 8/98/26 52/99/69
f 46/11/11 143/100/70 141/101/50 47/12/12
f 134/67/54 345/66/53 339/102/49 43/103/14
f 140/104/15 59/105/51 7/106/71 51/107/72
f 362/108/73 134/109/54 43/14/14 340/13/13
f 344/110/74 135/79/9 47/61/12 339/60/49
f 141/101/50 143/100/70 55/111/75 56/112/76
f 148/113/77 144/114/78 65/115/79 66/116/80
f 59/63/51 141/62/50 56/117/76 7/118/71
f 6/77/24 45/76/20 142/119/34 60/120/81
f 60/120/81 142/119/34 54/2/2 10/1/1
f 50/80/32 137/79/57 343/6/6 5/5/5
f 350/121/82 52/122/69 146/123/83 370/124/84
f 48/125/68 362/126/73 341/69/55 4/68/44
f 347/127/85 51/128/72 147/129/86 373/130/28
f 46/26/11 6/25/24 60/131/81 143/132/70
f 143/132/70 60/131/81 10/133/1 55/134/75
f 18/135/87 357/136/88 157/137/89 90/138/90
f 55/134/75 10/133/1 67/139/4 144/140/78
f 144/140/78 67/139/4 14/141/91 65/142/79
f 56/112/76 55/111/75 144/114/78 148/113/77
f 14/143/91 355/144/92 375/145/93 78/146/94
f 53/91/36 9/90/63 68/147/66 145/148/95
f 145/148/95 68/147/66 13/149/59 64/150/96
f 373/130/28 147/129/86 61/151/97 62/152/98
f 69/32/29 373/153/28 62/154/98 12/155/99
f 52/99/69 8/98/26 69/156/29 146/157/83
f 146/157/83 69/156/29 12/158/99 63/159/100
f 363/51/43 139/50/42 52/122/69 350/121/82
f 369/160/3 145/161/95 64/162/96 354/163/101
f 51/107/72 7/106/71 70/164/102 147/165/86
f 147/165/86 70/164/102 11/166/103 61/167/97
f 366/16/16 140/15/15 51/128/72 347/127/85
f 7/118/71 56/117/76 148/168/77 70/169/102
f 70/169/102 148/168/77 66/170/80 11/171/103
f 54/44/2 53/43/36 145/161/95 369/172/3
f 64/162/96 152/173/104 374/174/105 354/163/101
f 57/8/8 364/7/7 351/93/64 9/92/63
f 63/175/100 153/176/106 149/177/61 353/178/60
f 58/71/45 367/70/56 348/30/27 8/29/26
f 76/179/107 18/180/87 90/181/90 377/182/108
f 67/4/4 369/3/3 355/144/92 14/143/91
f 358/183/109 22/184/110 102/185/111 378/186/112
f 370/124/84 146/123/83 63/175/100 353/178/60
f 75/187/113 160/188/114 157/189/89 357/190/88
f 68/95/66 371/94/65 353/191/60 13/84/59
f 149/177/61 153/176/106 73/192/115 74/193/116
f 61/151/97 154/194/117 150/195/118 62/152/98
f 79/87/62 149/86/61 74/196/116 17/197/119
f 12/155/99 62/154/98 150/198/118 80/199/120
f 150/195/118 154/194/117 71/200/121 72/201/122
f 155/177/123 151/202/124 76/203/107 77/193/125
f 80/199/120 150/198/118 72/204/122 16/205/126
f 65/142/79 14/141/91 78/206/94 151/207/124
f 151/207/124 78/206/94 18/180/87 76/179/107
f 66/116/80 65/115/79 151/202/124 155/177/123
f 64/150/96 13/149/59 79/208/62 152/209/104
f 152/209/104 79/208/62 17/210/119 75/211/113
f 63/159/100 12/158/99 80/212/120 153/213/106
f 153/213/106 80/212/120 16/214/126 73/215/115
f 61/167/97 11/166/103 81/216/127 154/217/117
f 154/217/117 81/216/127 15/218/128 71/219/121
f 11/171/103 66/170/80 155/86/123 81/220/127
f 81/220/127 155/86/123 77/196/125 15/221/128
f 15/221/128 77/196/125 156/222/129 89/223/130
f 377/224/108 90/181/90 22/184/110 358/183/109
f 374/174/105 152/173/104 75/187/113 357/190/88
f 89/223/130 156/222/129 88/225/131 19/226/132
f 78/146/94 375/145/93 357/227/88 18/135/87
f 157/189/89 160/188/114 86/228/133 87/229/134
f 73/192/115 161/230/135 158/231/136 74/193/116
f 90/138/90 157/137/89 87/232/134 22/233/110
f 17/197/119 74/196/116 158/222/136 91/234/137
f 158/231/136 161/230/135 84/235/138 85/236/139
f 71/200/121 162/237/140 159/238/141 72/201/122
f 91/234/137 158/222/136 85/225/139 21/239/142
f 16/205/126 72/204/122 159/240/141 92/241/143
f 159/238/141 162/237/140 82/242/144 83/243/145
f 167/244/146 163/245/147 95/246/148 96/247/149
f 92/241/143 159/240/141 83/248/145 20/249/150
f 76/203/107 377/250/108 156/231/129 77/193/125
f 359/251/151 379/252/152 165/244/153 88/236/131
f 75/211/113 17/210/119 91/253/137 160/254/114
f 160/254/114 91/253/137 21/255/142 86/256/133
f 73/215/115 16/214/126 92/257/143 161/258/135
f 161/258/135 92/257/143 20/259/150 84/260/138
f 71/219/121 15/218/128 89/261/130 162/262/140
f 162/262/140 89/261/130 19/263/132 82/264/144
f 168/265/154 164/266/155 93/267/156 94/268/157
f 84/260/138 20/259/150 100/269/158 163/270/147
f 163/270/147 100/269/158 24/271/159 95/272/148
f 85/236/139 84/235/138 163/245/147 167/244/146
f 361/273/160 26/274/161 112/275/162 170/276/163
f 82/264/144 19/263/132 101/277/164 164/278/155
f 164/278/155 101/277/164 23/279/165 93/280/156
f 83/243/145 82/242/144 164/266/155 168/265/154
f 19/226/132 88/225/131 165/281/153 101/282/164
f 378/186/112 102/185/111 26/274/161 361/273/160
f 86/228/133 169/283/166 166/284/167 87/229/134
f 101/282/164 165/281/153 99/285/168 23/286/165
f 22/233/110 87/232/134 166/287/167 102/288/111
f 166/284/167 169/283/166 97/289/169 98/290/170
f 174/291/171 170/292/163 110/293/172 111/294/173
f 102/288/111 166/287/167 98/295/170 26/296/161
f 21/239/142 85/225/139 167/281/146 103/297/174
f 103/297/174 167/281/146 96/285/149 25/298/175
f 20/249/150 83/248/145 168/299/154 100/300/158
f 100/300/158 168/299/154 94/301/157 24/302/159
f 156/231/129 377/250/108 359/251/151 88/236/131
f 99/247/168 361/303/160 170/292/163 174/291/171
f 86/256/133 21/255/142 103/304/174 169/305/166
f 169/305/166 103/304/174 25/306/175 97/307/169
f 175/308/176 171/309/177 108/310/178 109/311/179
f 165/244/153 379/252/152 361/312/160 99/247/168
f 170/276/163 112/275/162 30/311/180 110/310/172
f 36/313/52 134/109/54 362/314/73 37/315/181
f 176/291/182 172/316/183 106/317/184 107/294/185
f 97/307/169 25/306/175 113/318/186 171/319/177
f 171/319/177 113/318/186 29/320/187 108/293/178
f 98/290/170 97/289/169 171/309/177 175/308/176
f 177/321/188 173/322/189 104/323/190 105/324/191
f 95/272/148 24/271/159 114/325/192 172/326/183
f 172/326/183 114/325/192 28/324/193 106/323/184
f 96/247/149 95/246/148 172/316/183 176/291/182
f 38/27/38 381/45/37 384/81/58 137/9/57
f 93/280/156 23/279/165 115/327/194 173/328/189
f 173/328/189 115/327/194 27/329/195 104/317/190
f 94/268/157 93/267/156 173/322/189 177/321/188
f 23/286/165 99/285/168 174/330/171 115/331/194
f 115/331/194 174/330/171 111/332/173 27/333/195
f 26/296/161 98/295/170 175/334/176 112/335/162
f 112/335/162 175/334/176 109/336/179 30/336/180
f 25/298/175 96/285/149 176/330/182 113/337/186
f 113/337/186 176/330/182 107/332/185 29/338/187
f 24/302/159 94/301/157 177/339/188 114/340/192
f 114/340/192 177/339/188 105/341/191 28/341/193
f 381/342/37 1/343/196 48/97/68 383/96/67
f 178/47/40 182/46/39 119/344/197 118/345/198
f 36/313/52 37/315/181 183/346/199 179/347/200
f 124/348/201 178/349/40 118/350/198 33/351/202
f 338/352/46 42/56/25 135/79/9 344/110/74
f 179/347/200 183/346/199 117/353/203 116/354/204
f 184/355/205 180/356/48 123/344/206 122/357/207
f 125/358/47 179/359/200 116/360/204 32/361/208
f 185/362/209 181/363/210 121/364/211 120/365/212
f 43/103/14 339/366/49 59/105/51 140/104/15
f 180/59/48 125/58/47 32/367/208 123/368/206
f 41/28/21 42/27/25 180/356/48 184/355/205
f 116/354/204 117/353/203 187/369/213 186/370/214
f 40/73/33 3/72/22 126/371/215 181/372/210
f 181/372/210 126/371/215 35/373/216 121/374/211
f 39/40/30 40/39/33 181/363/210 185/362/209
f 38/56/38 2/78/31 127/375/217 182/376/39
f 182/376/39 127/375/217 34/377/218 119/368/197
f 37/378/181 1/379/196 124/380/201 183/381/199
f 183/381/199 124/380/201 33/382/202 117/383/203
f 3/22/22 41/21/21 184/384/205 126/385/215
f 126/385/215 184/384/205 122/386/207 35/387/216
f 2/34/31 39/33/30 185/388/209 127/389/217
f 127/389/217 185/388/209 120/390/212 34/391/218
f 118/345/198 119/344/197 189/392/219 188/393/220
f 32/361/208 116/360/204 186/394/214 128/395/221
f 186/394/214 187/396/213 129/397/222 31/398/223 128/395/221
f 33/382/202 129/397/222 187/396/213 117/383/203
f 120/365/212 121/364/211 191/399/224 190/400/225
f 33/351/202 118/350/198 188/401/220 129/402/222
f 188/393/220 189/392/219 130/403/226 31/398/223 129/397/222
f 34/377/218 130/404/226 189/405/219 119/368/197
f 122/357/207 123/344/206 193/392/227 192/406/228
f 34/391/218 120/390/212 190/407/225 130/403/226
f 190/407/225 191/408/224 131/409/229 31/398/223 130/403/226
f 35/373/216 131/409/229 191/408/224 121/374/211
f 35/387/216 122/386/207 192/410/228 131/411/229
f 192/406/228 193/392/227 128/395/221 31/398/223 131/409/229
f 32/367/208 128/412/221 193/405/227 123/368/206
f 1/379/196 37/378/181 362/126/73 48/125/68
f 218/413/230 217/414/231 216/415/232 219/416/233
f 223/417/234 212/418/235 211/418/236 224/417/237
f 210/419/238 209/420/239 195/421/240 217/414/231
f 217/414/231 195/421/240 197/422/241 216/415/232
f 219/416/233 216/415/232 215/415/242 220/416/243
f 215/415/242 199/422/244 201/421/245 214/423/246
f 232/424/247 219/416/233 220/416/243 231/424/248
f 224/417/237 211/418/236 210/419/238 225/425/249
f 225/425/249 210/419/238 217/414/231 218/413/230
f 231/424/248 220/416/243 221/413/250 230/426/251
f 208/427/252 226/428/253 233/426/254 194/429/255
f 200/429/256 230/426/251 229/428/257 202/427/258
f 228/430/259 223/417/234 224/417/237 227/430/260
f 233/426/254 218/413/230 219/416/233 232/424/247
f 198/431/261 231/424/248 230/426/251 200/429/256
f 226/428/253 225/425/249 218/413/230 233/426/254
f 211/418/236 207/432/262 209/420/239 210/419/238
f 221/413/250 214/423/246 213/419/263 222/425/264
f 222/425/264 213/419/263 212/418/235 223/417/234
f 216/415/232 197/422/241 199/422/244 215/415/242
f 214/423/246 201/421/245 203/420/265 213/419/263
f 220/416/243 215/415/242 214/423/246 221/413/250
f 213/419/263 203/420/265 205/432/266 212/418/235
f 212/418/235 205/432/266 207/432/262 211/418/236
f 227/430/260 224/417/237 225/425/249 226/428/253
f 196/431/267 232/424/247 231/424/248 198/431/261
f 204/433/268 228/430/259 227/430/260 206/433/269
f 230/426/251 221/413/250 222/425/264 229/428/257
f 229/428/257 222/425/264 223/417/234 228/430/259
f 194/429/255 233/426/254 232/424/247 196/431/267
f 206/433/269 227/430/260 226/428/253 208/427/252
f 202/427/258 229/428/257 228/430/259 204/433/268
f 205/432/266 334/434/270 335/434/271 207/432/262
f 201/421/245 332/435/272 333/436/273 203/420/265
f 207/432/262 335/434/271 336/436/274 209/420/239
f 209/420/239 336/436/274 330/435/275 195/421/240
f 195/421/240 330/435/275 331/437/276 197/422/241
f 197/422/241 331/437/276 337/437/277 199/422/244
f 203/420/265 333/436/273 334/434/270 205/432/266
f 199/422/244 337/437/277 332/435/272 201/421/245
f 250/438/278 249/439/279 248/440/280 251/441/281
f 255/442/282 244/443/283 243/444/284 256/445/285
f 251/441/281 248/440/280 247/446/286 252/447/287
f 264/448/288 251/441/281 252/447/287 263/449/289
f 256/445/285 243/444/284 242/450/290 257/451/291
f 257/451/291 242/450/290 249/439/279 250/438/278
f 263/449/289 252/447/287 253/452/292 262/453/293
f 241/454/294 258/455/295 265/456/296 234/457/297
f 237/458/298 262/453/293 261/459/299 238/460/300
f 260/461/301 255/442/282 256/445/285 259/462/302
f 265/456/296 250/438/278 251/441/281 264/448/288
f 236/463/303 263/449/289 262/453/293 237/458/298
f 258/455/295 257/451/291 250/438/278 265/456/296
f 253/452/292 246/464/304 245/465/305 254/466/306
f 254/466/306 245/465/305 244/443/283 255/442/282
f 252/447/287 247/446/286 246/464/304 253/452/292
f 259/462/302 256/445/285 257/451/291 258/455/295
f 235/467/307 264/448/288 263/449/289 236/463/303
f 239/468/308 260/461/301 259/462/302 240/469/309
f 262/453/293 253/452/292 254/466/306 261/459/299
f 261/459/299 254/466/306 255/442/282 260/461/301
f 234/457/297 265/456/296 264/448/288 235/467/307
f 240/469/309 259/462/302 258/455/295 241/454/294
f 238/460/300 261/459/299 260/461/301 239/468/308
f 282/470/310 281/471/311 280/472/312 283/473/313
f 287/474/314 276/475/315 275/476/316 288/477/317
f 283/473/313 280/472/312 279/478/318 284/479/319
f 296/480/320 283/473/313 284/479/319 295/481/321
f 288/477/317 275/476/316 274/482/322 289/483/323
f 289/483/323 274/482/322 281/471/311 282/470/310
f 295/481/321 284/479/319 285/484/324 294/485/325
f 273/486/326 290/487/327 297/488/328 266/489/329
f 269/490/330 294/485/325 293/491/331 270/492/332
f 292/493/333 287/474/314 288/477/317 291/494/334
f 297/488/328 282/470/310 283/473/313 296/480/320
f 268/495/335 295/481/321 294/485/325 269/490/330
f 290/487/327 289/483/323 282/470/310 297/488/328
f 285/484/324 278/496/336 277/497/337 286/498/338
f 286/498/338 277/497/337 276/475/315 287/474/314
f 284/479/319 279/478/318 278/496/336 285/484/324
f 291/494/334 288/477/317 289/483/323 290/487/327
f 267/499/339 296/480/320 295/481/321 268/495/335
f 271/500/340 292/493/333 291/494/334 272/501/341
f 294/485/325 285/484/324 286/498/338 293/491/331
f 293/491/331 286/498/338 287/474/314 292/493/333
f 266/489/329 297/488/328 296/480/320 267/499/339
f 272/501/341 291/494/334 290/487/327 273/486/326
f 270/492/332 293/491/331 292/493/333 271/500/340
f 314/502/342 313/503/343 312/504/344 315/505/345
f 319/506/346 308/507/347 307/508/348 320/509/349
f 315/505/345 312/504/344 311/510/350 316/511/351
f 328/512/352 315/505/345 316/511/351 327/513/353
f 320/509/349 307/508/348 306/514/354 321/515/355
f 321/515/355 306/514/354 313/503/343 314/502/342
f 327/513/353 316/511/351 317/516/356 326/517/357
f 305/518/358 322/519/359 329/520/360 298/521/361
f 301/522/362 326/517/357 325/523/363 302/524/364
f 324/525/365 319/506/346 320/509/349 323/526/366
f 329/520/360 314/502/342 315/505/345 328/512/352
f 300/527/367 327/513/353 326/517/357 301/522/362
f 322/519/359 321/515/355 314/502/342 329/520/360
f 317/516/356 310/528/368 309/529/369 318/530/370
f 318/530/370 309/529/369 308/507/347 319/506/346
f 316/511/351 311/510/350 310/528/368 317/516/356
f 323/526/366 320/509/349 321/515/355 322/519/359
f 299/531/371 328/512/352 327/513/353 300/527/367
f 303/532/372 324/525/365 323/526/366 304/533/373
f 326/517/357 317/516/356 318/530/370 325/523/363
f 325/523/363 318/530/370 319/506/346 324/525/365
f 298/521/361 329/520/360 328/512/352 299/531/371
f 304/533/373 323/526/366 322/519/359 305/518/358
f 302/524/364 325/523/363 324/525/365 303/532/372
f 338/534/374 344/535/375 346/536/376
f 338/537/377 346/538/378 345/539/379
f 344/535/375 339/540/380 346/536/376
f 346/538/378 339/541/381 345/539/379
f 341/542/382 362/543/383 342/544/384
f 342/545/385 362/546/386 340/547/387
f 343/548/388 363/549/389 365/550/390
f 343/551/391 365/552/392 364/553/393
f 351/554/394 364/553/393 365/552/392 352/555/395
f 352/556/396 365/550/390 363/549/389 350/557/397
f 340/547/387 366/558/398 368/559/399 342/560/385
f 342/561/384 368/562/400 367/563/401 341/542/382
f 348/564/402 367/563/401 368/565/400 349/566/403
f 349/567/404 368/559/399 366/558/398 347/568/405
f 355/569/406 369/570/407 356/571/408
f 356/572/409 369/573/410 354/574/411
f 350/557/397 370/575/412 372/576/413 352/556/396
f 352/577/395 372/578/414 371/579/415 351/554/394
f 353/580/416 371/579/415 372/578/414
f 353/581/417 372/582/413 370/575/412
f 347/568/405 373/583/418 349/567/404
f 349/566/403 373/584/419 348/564/402
f 354/574/411 374/585/420 376/586/421 356/587/409
f 356/571/408 376/588/422 375/589/423 355/569/406
f 357/590/424 375/589/423 376/588/422
f 357/591/425 376/586/421 374/585/420
f 359/592/426 377/593/427 360/594/428
f 360/595/429 377/596/430 358/597/431
f 358/597/431 378/598/432 380/599/433 360/595/429
f 360/594/428 380/600/434 379/601/435 359/592/426
f 361/602/436 379/601/435 380/600/434
f 361/603/437 380/599/433 378/598/432
f 338/65/46 36/64/52 179/359/200 125/358/47
f 381/604/438 383/605/439 385/606/440
f 381/607/441 385/608/442 384/609/443
f 382/610/444 384/609/443 385/611/442
f 382/612/445 385/613/440 383/605/439
f 1/343/196 381/614/37 178/349/40 124/348/201
f 393/615/446 400/616/447 394/617/448
f 408/618/449 410/619/450 402/620/451
f 471/621/452 387/622/453 388/623/454
f 470/624/455 469/625/456 392/626/457 393/615/446
f 469/627/456 468/628/458 391/629/459
f 445/630/460 453/631/461 454/632/462 446/633/463
f 393/615/446 394/617/448 470/624/455
f 468/628/458 467/634/464 390/635/465 391/629/459
f 471/621/452 386/636/466 387/622/453
f 391/629/459 390/635/465 397/637/467 398/638/468
f 388/630/454 387/639/453 395/640/469
f 394/617/448 400/616/447 407/641/470
f 391/629/459 398/638/468 399/642/471
f 389/633/472 388/630/454 395/640/469 396/643/473
f 443/644/474 422/645/475 401/645/476
f 393/615/446 392/626/457 399/646/471 400/616/447
f 390/635/465 389/633/472 396/643/473 397/637/467
f 443/644/474 386/636/466 444/636/477
f 428/647/478 436/641/479 394/617/448
f 398/638/468 397/637/467 404/648/480 405/649/481
f 395/640/469 387/639/453 402/620/451
f 399/642/471 398/638/468 405/649/481
f 396/643/473 395/640/469 402/620/451 403/650/482
f 400/616/447 399/646/471 406/651/483 407/641/470
f 397/637/467 396/643/473 403/650/482 404/648/480
f 429/618/484 431/620/485 423/619/486
f 404/648/480 412/652/487 413/653/488 405/649/481
f 387/622/453 401/645/476 408/654/449
f 405/649/481 413/653/488 414/655/489
f 402/656/451 387/622/453 408/654/449
f 406/651/483 414/657/489 415/647/490 407/641/470
f 403/650/482 411/658/491 412/652/487 404/648/480
f 402/620/451 410/619/450 411/658/491 403/650/482
f 408/654/449 401/645/476 409/659/492
f 394/617/448 415/647/490 421/660/493
f 408/654/449 409/659/492 410/661/450
f 414/655/489 413/653/488 419/662/494
f 411/658/491 410/619/450 416/663/495 417/664/496
f 443/644/474 444/636/477 422/645/475
f 415/647/490 414/657/489 420/665/497 421/660/493
f 412/652/487 411/658/491 417/664/496 418/666/498
f 444/636/477 430/622/499 422/645/475
f 421/660/493 428/647/478 394/617/448
f 413/653/488 412/652/487 418/666/498 419/662/494
f 410/619/450 409/667/492 416/663/495
f 416/663/495 409/667/492 423/619/486
f 450/615/500 458/624/501 394/617/448
f 419/662/494 426/653/502 427/655/503
f 417/664/496 416/663/495 423/619/486 424/658/504
f 421/660/493 420/665/497 427/657/503 428/647/478
f 418/666/498 417/664/496 424/658/504 425/652/505
f 419/662/494 418/666/498 425/652/505 426/653/502
f 434/668/506 435/651/507 427/657/503
f 423/661/486 409/659/492 429/654/484
f 427/657/503 435/651/507 436/641/479 428/647/478
f 424/658/504 432/650/508 433/648/509 425/652/505
f 466/632/510 465/631/511 388/630/454 389/633/472
f 451/669/512 453/631/461 445/630/460
f 425/652/505 433/648/509 434/649/506 426/653/502
f 409/659/492 422/645/475 429/654/484
f 429/654/484 422/645/475 430/622/499
f 394/617/448 436/641/479 442/616/513
f 429/654/484 430/622/499 431/656/485
f 401/645/476 387/622/453 386/636/466
f 436/641/479 435/651/507 441/646/514 442/616/513
f 433/648/509 432/650/508 438/643/515 439/637/516
f 444/636/477 386/636/466 452/670/517
f 394/617/448 442/616/513 450/615/500
f 434/649/506 433/648/509 439/637/516 440/638/518
f 431/620/485 430/639/499 437/640/519
f 434/649/506 440/638/518 441/642/514
f 432/650/508 431/620/485 437/640/519 438/643/515
f 438/643/515 437/640/519 445/630/460 446/633/463
f 442/616/513 441/646/514 449/626/520 450/615/500
f 439/637/516 438/643/515 446/633/463 447/635/521
f 440/638/518 439/637/516 447/635/521 448/629/522
f 437/640/519 430/639/499 445/630/460
f 441/642/514 440/638/518 448/629/522
f 449/626/520 457/625/523 458/624/501 450/615/500
f 446/633/463 454/632/462 455/634/524 447/635/521
f 423/619/486 431/620/485 432/650/508 424/658/504
f 471/669/452 388/630/454 465/631/511
f 447/635/521 455/634/524 456/628/525 448/629/522
f 430/622/499 444/636/477 451/621/512
f 448/629/522 456/628/525 457/627/523
f 445/623/460 430/622/499 451/621/512
f 451/621/512 452/670/517 453/671/461
f 394/617/448 458/624/501 464/672/526
f 451/621/512 444/636/477 452/670/517
f 443/644/474 401/645/476 386/636/466
f 394/617/448 464/672/526 470/624/455
f 456/628/525 455/634/524 461/673/527 462/674/528
f 453/631/461 452/675/517 459/676/529
f 457/627/523 456/628/525 462/674/528
f 454/632/462 453/631/461 459/676/529 460/677/530
f 458/624/501 457/625/523 463/678/531 464/672/526
f 455/634/524 454/632/462 460/677/530 461/673/527
f 461/673/527 460/677/530 466/632/510 467/634/464
f 407/641/470 415/647/490 394/617/448
f 462/674/528 461/673/527 467/634/464 468/628/458
f 459/676/529 452/675/517 465/631/511
f 462/674/528 468/628/458 469/627/456
f 460/677/530 459/676/529 465/631/511 466/632/510
f 464/672/526 463/678/531 469/625/456 470/624/455
f 452/670/517 386/636/466 471/621/452
f 465/671/511 452/670/517 471/621/452
f 467/634/464 466/632/510 389/633/472 390/635/465
f 422/645/475 409/659/492 401/645/476
f 435/651/507 434/668/506 441/646/514
f 426/653/502 434/649/506 427/655/503
f 420/665/497 419/679/494 427/657/503
f 420/665/497 414/657/489 419/679/494
f 406/651/483 405/668/481 414/657/489
f 406/651/483 399/646/471 405/668/481
f 392/626/457 391/680/459 399/646/471
f 392/626/457 469/625/456 391/680/459
f 463/678/531 462/681/528 469/625/456
f 463/678/531 457/625/523 462/681/528
f 449/626/520 448/680/522 457/625/523
f 449/626/520 441/646/514 448/680/522
f 473/682/532 472/683/533 475/684/534
f 478/683/535 472/683/533 473/682/532
f 474/685/536 477/686/537 472/683/533
f 474/685/536 472/683/533 478/683/535
f 475/684/534 472/683/533 476/639/538
f 477/686/537 476/639/538 472/683/533
f 479/687/539 478/683/535 481/684/540
f 478/683/535 479/687/539 480/686/541
f 474/685/536 478/683/535 480/686/541
f 481/684/540 478/683/535 473/682/532
f 482/630/542 479/687/539 481/684/540
f 481/684/540 483/631/543 482/630/542
f 481/684/540 473/682/532 483/631/543
f 483/631/543 473/682/532 485/688/544
f 484/689/545 483/631/543 485/688/544 486/690/546
f 482/630/542 483/631/543 484/689/545 512/691/547
f 485/688/544 473/682/532 487/631/548
f 486/690/546 485/688/544 487/631/548 488/689/549
f 487/631/548 473/682/532 475/684/534
f 475/684/534 489/630/550 487/631/548
f 488/689/549 487/631/548 489/630/550 490/691/551
f 489/630/550 476/639/538 491/640/552
f 475/684/534 476/639/538 489/630/550
f 490/691/551 489/630/550 491/640/552 492/692/553
f 492/692/553 491/640/552 493/620/554 494/693/555
f 491/640/552 476/639/538 493/620/554
f 493/620/554 495/619/556 503/694/557 494/693/555
f 496/695/558 495/619/556 493/620/554
f 493/620/554 476/639/538 496/695/558
f 496/695/558 497/667/559 495/619/556
f 496/695/558 477/686/537 497/667/559
f 476/639/538 477/686/537 496/695/558
f 497/667/559 480/686/541 498/695/560
f 499/619/561 497/667/559 498/695/560
f 500/696/562 497/667/559 499/619/561
f 480/686/541 497/667/559 477/686/537
f 495/619/556 497/667/559 500/696/562
f 501/697/563 500/696/562 499/619/561 504/694/564
f 503/694/557 495/619/556 500/696/562 501/697/563
f 502/698/565 501/697/563 504/694/564 505/699/566
f 527/699/567 503/694/557 501/697/563 502/698/565
f 499/619/561 507/620/568 506/693/569 504/694/564
f 504/694/564 506/693/569 508/700/570 505/699/566
f 506/693/569 507/620/568 510/701/571 509/702/572
f 508/700/570 506/693/569 509/702/572 511/703/573
f 509/702/572 510/701/571 482/630/542 512/691/547
f 511/703/573 509/702/572 512/691/547 513/704/574
f 512/691/547 484/689/545 515/705/575 513/704/574
f 513/704/574 515/705/575 516/706/576 514/707/577
f 537/708/578 511/703/573 513/704/574 514/707/577
f 515/705/575 484/689/545 486/690/546 517/709/579
f 516/706/576 515/705/575 517/709/579 518/710/580
f 517/709/579 486/690/546 488/689/549 519/705/581
f 518/710/580 517/709/579 519/705/581 520/706/582
f 519/705/581 488/689/549 490/691/551 521/704/583
f 520/706/582 519/705/581 521/704/583 522/707/584
f 521/704/583 490/691/551 492/692/553 523/711/585
f 522/707/584 521/704/583 523/711/585 524/712/586
f 523/711/585 492/692/553 494/693/555 525/700/587
f 524/712/586 523/711/585 525/700/587 526/713/588
f 494/693/555 503/694/557 527/699/567 525/700/587
f 525/700/587 527/699/567 528/714/589 526/713/588
f 528/714/589 527/699/567 502/698/565 530/715/590
f 529/655/591 528/714/589 530/715/590
f 526/713/588 528/714/589 529/655/591
f 530/715/590 502/698/565 505/699/566 532/714/592
f 531/665/593 529/657/591 530/716/590
f 531/665/593 530/716/590 533/657/594
f 530/715/590 532/714/592 533/655/594
f 532/714/592 536/713/595 533/655/594
f 533/657/594 535/651/596 557/641/597 534/647/598
f 556/660/599 531/665/593 533/657/594 534/647/598
f 536/717/595 535/651/596 533/657/594
f 536/713/595 508/700/570 511/703/573 537/708/578
f 505/699/566 508/700/570 536/713/595 532/714/592
f 535/651/596 536/717/595 538/718/600
f 536/713/595 537/708/578 538/719/600
f 538/719/600 537/708/578 514/707/577
f 539/720/601 538/718/600 540/626/602 541/615/603
f 557/641/597 535/651/596 538/718/600 539/720/601
f 540/626/602 538/718/600 514/721/577
f 540/626/602 514/721/577 542/625/604
f 540/626/602 542/625/604 543/624/605 541/615/603
f 542/627/604 516/706/576 518/710/580
f 514/707/577 516/706/576 542/627/604
f 543/624/605 542/625/604 544/678/606 545/672/607
f 544/678/606 542/625/604 518/722/580
f 544/678/606 518/722/580 546/625/608
f 545/672/607 544/678/606 546/625/608 547/624/609
f 518/710/580 520/706/582 546/627/608
f 546/627/608 520/706/582 522/707/584
f 547/624/609 546/625/608 548/626/610 549/615/611
f 548/626/610 546/625/608 522/721/584
f 548/626/610 522/721/584 550/646/612
f 549/615/611 548/626/610 550/646/612 551/616/613
f 550/642/612 524/712/586 526/713/588
f 522/707/584 524/712/586 550/642/612
f 551/616/613 550/646/612 552/651/614 553/641/615
f 552/651/614 550/646/612 526/717/588
f 552/651/614 526/717/588 529/657/591
f 552/651/614 529/657/591 554/647/616 553/641/615
f 555/617/617 551/616/613 553/641/615
f 553/641/615 554/647/616 555/617/617
f 549/615/611 555/617/617 547/624/609
f 549/615/611 551/616/613 555/617/617
f 555/617/617 554/647/616 556/660/599
f 556/660/599 534/647/598 555/617/617
f 534/647/598 557/641/597 555/617/617
f 555/617/617 557/641/597 539/720/601
f 555/617/617 539/720/601 541/615/603
f 541/615/603 543/624/605 555/617/617
f 555/617/617 543/624/605 545/672/607
f 555/617/617 545/672/607 547/624/609
f 554/647/616 529/657/591 531/665/593 556/660/599
f 510/701/571 479/687/539 482/630/542
f 507/620/568 479/687/539 510/701/571
f 498/695/560 479/687/539 507/620/568
f 498/695/560 507/620/568 499/619/561
f 498/695/560 480/686/541 479/687/539
f 474/685/536 480/686/541 477/686/537
f 559/682/618 558/683/619 561/684/620
f 564/683/621 558/683/619 559/682/618
f 560/685/622 563/686/623 558/683/619
f 560/685/622 558/683/619 564/683/621
f 561/684/620 558/683/619 562/639/624
f 563/686/623 562/639/624 558/683/619
f 565/687/625 564/683/621 567/684/626
f 564/683/621 565/687/625 566/686/627
f 560/685/622 564/683/621 566/686/627
f 567/684/626 564/683/621 559/682/618
f 568/630/628 565/687/625 567/684/626
f 567/684/626 569/631/629 568/630/628
f 567/684/626 559/682/618 569/631/629
f 569/631/629 559/682/618 571/688/630
f 570/689/631 569/631/629 571/688/630 572/690/632
f 568/630/628 569/631/629 570/689/631 598/691/633
f 571/688/630 559/682/618 573/631/634
f 572/690/632 571/688/630 573/631/634 574/689/635
f 573/631/634 559/682/618 561/684/620
f 561/684/620 575/630/636 573/631/634
f 574/689/635 573/631/634 575/630/636 576/691/637
f 575/630/636 562/639/624 577/640/638
f 561/684/620 562/639/624 575/630/636
f 576/691/637 575/630/636 577/640/638 578/692/639
f 578/692/639 577/640/638 579/620/640 580/693/641
f 577/640/638 562/639/624 579/620/640
f 579/620/640 581/619/642 589/694/643 580/693/641
f 582/695/644 581/619/642 579/620/640
f 579/620/640 562/639/624 582/695/644
f 582/695/644 583/667/645 581/619/642
f 582/695/644 563/686/623 583/667/645
f 562/639/624 563/686/623 582/695/644
f 583/667/645 566/686/627 584/695/646
f 585/619/647 583/667/645 584/695/646
f 586/696/648 583/667/645 585/619/647
f 566/686/627 583/667/645 563/686/623
f 581/619/642 583/667/645 586/696/648
f 587/697/649 586/696/648 585/619/647 590/694/650
f 589/694/643 581/619/642 586/696/648 587/697/649
f 588/698/651 587/697/649 590/694/650 591/699/652
f 613/699/653 589/694/643 587/697/649 588/698/651
f 585/619/647 593/620/654 592/693/655 590/694/650
f 590/694/650 592/693/655 594/700/656 591/699/652
f 592/693/655 593/620/654 596/701/657 595/702/658
f 594/700/656 592/693/655 595/702/658 597/703/659
f 595/702/658 596/701/657 568/630/628 598/691/633
f 597/703/659 595/702/658 598/691/633 599/704/660
f 598/691/633 570/689/631 601/705/661 599/704/660
f 599/704/660 601/705/661 602/706/662 600/707/663
f 623/708/664 597/703/659 599/704/660 600/707/663
f 601/705/661 570/689/631 572/690/632 603/709/665
f 602/706/662 601/705/661 603/709/665 604/710/666
f 603/709/665 572/690/632 574/689/635 605/705/667
f 604/710/666 603/709/665 605/705/667 606/706/668
f 605/705/667 574/689/635 576/691/637 607/704/669
f 606/706/668 605/705/667 607/704/669 608/707/670
f 607/704/669 576/691/637 578/692/639 609/711/671
f 608/707/670 607/704/669 609/711/671 610/712/672
f 609/711/671 578/692/639 580/693/641 611/700/673
f 610/712/672 609/711/671 611/700/673 612/713/674
f 580/693/641 589/694/643 613/699/653 611/700/673
f 611/700/673 613/699/653 614/714/675 612/713/674
f 614/714/675 613/699/653 588/698/651 616/715/676
f 615/655/677 614/714/675 616/715/676
f 612/713/674 614/714/675 615/655/677
f 616/715/676 588/698/651 591/699/652 618/714/678
f 617/665/679 615/657/677 616/716/676
f 617/665/679 616/716/676 619/657/680
f 616/715/676 618/714/678 619/655/680
f 618/714/678 622/713/681 619/655/680
f 619/657/680 621/651/682 643/641/683 620/647/684
f 642/660/685 617/665/679 619/657/680 620/647/684
f 622/717/681 621/651/682 619/657/680
f 622/713/681 594/700/656 597/703/659 623/708/664
f 591/699/652 594/700/656 622/713/681 618/714/678
f 621/651/682 622/717/681 624/718/686
f 622/713/681 623/708/664 624/719/686
f 624/719/686 623/708/664 600/707/663
f 625/720/687 624/718/686 626/626/688 627/615/689
f 643/641/683 621/651/682 624/718/686 625/720/687
f 626/626/688 624/718/686 600/721/663
f 626/626/688 600/721/663 628/625/690
f 626/626/688 628/625/690 629/624/691 627/615/689
f 628/627/690 602/706/662 604/710/666
f 600/707/663 602/706/662 628/627/690
f 629/624/691 628/625/690 630/678/692 631/672/693
f 630/678/692 628/625/690 604/722/666
f 630/678/692 604/722/666 632/625/694
f 631/672/693 630/678/692 632/625/694 633/624/695
f 604/710/666 606/706/668 632/627/694
f 632/627/694 606/706/668 608/707/670
f 633/624/695 632/625/694 634/626/696 635/615/697
f 634/626/696 632/625/694 608/721/670
f 634/626/696 608/721/670 636/646/698
f 635/615/697 634/626/696 636/646/698 637/616/699
f 636/642/698 610/712/672 612/713/674
f 608/707/670 610/712/672 636/642/698
f 637/616/699 636/646/698 638/651/700 639/641/701
f 638/651/700 636/646/698 612/717/674
f 638/651/700 612/717/674 615/657/677
f 638/651/700 615/657/677 640/647/702 639/641/701
f 641/617/703 637/616/699 639/641/701
f 639/641/701 640/647/702 641/617/703
f 635/615/697 641/617/703 633/624/695
f 635/615/697 637/616/699 641/617/703
f 641/617/703 640/647/702 642/660/685
f 642/660/685 620/647/684 641/617/703
f 620/647/684 643/641/683 641/617/703
f 641/617/703 643/641/683 625/720/687
f 641/617/703 625/720/687 627/615/689
f 627/615/689 629/624/691 641/617/703
f 641/617/703 629/624/691 631/672/693
f 641/617/703 631/672/693 633/624/695
f 640/647/702 615/657/677 617/665/679 642/660/685
f 596/701/657 565/687/625 568/630/628
f 593/620/654 565/687/625 596/701/657
f 584/695/646 565/687/625 593/620/654
f 584/695/646 593/620/654 585/619/647
f 584/695/646 566/686/627 565/687/625
f 560/685/622 566/686/627 563/686/623
f 305/518/358 298/521/361 644/521/704 651/518/705
f 298/521/361 299/531/371 645/531/706 644/521/704
f 304/533/373 305/518/358 651/518/705 650/533/707
f 302/524/364 303/532/372 649/532/708 648/524/709
f 300/527/367 301/522/362 647/522/710 646/527/711
f 299/531/371 300/527/367 646/527/711 645/531/706
f 303/532/372 304/533/373 650/533/707 649/532/708
f 301/522/362 302/524/364 648/524/709 647/522/710
f 200/429/256 202/427/258 656/427/712 655/429/713
f 206/433/269 208/427/252 659/427/714 658/433/715
f 196/431/267 198/431/261 654/431/716 653/431/717
f 202/427/258 204/433/268 657/433/718 656/427/712
f 208/427/252 194/429/255 652/429/719 659/427/714
f 194/429/255 196/431/267 653/431/717 652/429/719
f 198/431/261 200/429/256 655/429/713 654/431/716
f 204/433/268 206/433/269 658/433/715 657/433/718
f 661/723/720 662/724/721 664/725/722 663/726/723
f 663/726/723 664/725/722 665/727/724 676/728/725
f 686/728/726 665/727/724 664/725/722 666/726/727
f 660/729/728 672/730/729 668/731/730
f 660/732/728 668/731/730 667/723/731
f 662/724/721 660/733/728 667/723/731
f 667/723/731 668/731/730 669/734/732 666/726/727
f 666/726/727 669/734/732 670/735/733 686/728/726
f 693/736/734 670/735/733 669/734/732 671/737/735
f 672/730/729 671/737/735 669/734/732 668/731/730
f 679/738/736 682/739/737 680/740/738
f 664/725/722 662/724/721 667/723/731 666/726/727
f 660/741/728 673/731/739 672/730/729
f 675/735/740 676/728/725 679/738/736 678/742/741
f 673/731/739 661/723/720 663/726/723 674/734/742
f 693/736/734 675/735/740 678/742/741 692/743/743
f 678/742/741 679/738/736 677/744/744
f 660/732/728 661/723/720 673/731/739
f 682/745/737 683/746/745 680/747/738
f 682/739/737 685/738/746 683/748/745
f 673/731/739 674/734/742 671/737/735 672/730/729
f 696/749/747 677/750/744 680/747/738 681/751/748
f 690/752/749 694/752/750 695/753/751 691/753/752
f 685/754/746 687/750/753 683/746/745
f 685/738/746 689/742/754 687/744/753
f 676/728/725 665/727/724 682/739/737 679/738/736
f 689/755/754 690/752/749 687/750/753
f 689/742/754 692/743/743 690/756/749
f 686/728/726 685/738/746 682/739/737 665/727/724
f 683/746/745 687/750/753 688/749/755 684/751/756
f 692/757/743 694/752/750 690/752/749
f 692/743/743 678/742/741 694/756/750
f 686/728/726 670/735/733 689/742/754 685/738/746
f 687/750/753 690/752/749 691/753/752 688/749/755
f 678/755/741 677/750/744 694/752/750
f 693/736/734 671/737/735 674/734/742 675/735/740
f 693/736/734 692/743/743 689/742/754 670/735/733
f 695/753/751 696/749/747 697/617/757
f 694/752/750 677/750/744 696/749/747 695/753/751
f 688/749/755 697/617/757 684/751/756
f 688/749/755 691/753/752 697/617/757
f 691/753/752 695/753/751 697/617/757
f 696/749/747 681/751/748 697/617/757
f 681/751/748 684/751/756 697/617/757
f 680/747/738 683/746/745 684/751/756 681/751/748
f 660/758/728 662/724/721 661/723/720
f 680/747/738 677/750/744 679/754/736
f 676/728/725 675/735/740 674/734/742 663/726/723
f 712/759/758 699/760/759 711/761/760 698/762/761
f 706/759/762 705/760/763 703/763/764 708/764/765
f 700/765/766 709/766/767 713/766/768 702/765/769
f 710/764/770 701/763/771 699/760/759 712/759/758
f 704/762/772 707/761/773 705/760/763 706/759/762
f 722/767/774 715/768/775 716/769/776 724/770/777
f 708/764/765 703/763/764 701/763/771 710/764/770
f 702/765/769 713/766/768 707/761/773 704/762/772
f 736/767/778 721/768/779 718/771/780 735/772/781
f 729/772/782 714/771/783 715/768/775 722/767/774
f 732/770/784 717/769/785 721/768/779 736/767/778
f 735/772/781 718/771/780 719/773/786 726/774/787
f 724/770/777 716/769/776 717/769/785 732/770/784
f 730/774/788 720/773/789 714/771/783 729/772/782
f 726/774/787 719/773/786 720/773/789 730/774/788
f 698/762/761 711/761/760 709/766/767 700/765/766
f 701/763/771 733/775/790 737/776/791 699/760/759
f 713/766/768 731/777/792 728/778/793 707/761/773
f 703/763/764 725/775/794 733/775/790 701/763/771
f 699/760/759 737/776/791 734/778/795 711/761/760
f 711/761/760 734/778/795 727/777/796 709/766/767
f 709/766/767 727/777/796 731/777/792 713/766/768
f 705/760/763 723/776/797 725/775/794 703/763/764
f 729/772/782 722/767/774 723/776/797 728/778/793
f 722/767/774 724/770/777 725/775/794 723/776/797
f 724/770/777 732/770/784 733/775/790 725/775/794
f 735/772/781 726/774/787 727/777/796 734/778/795
f 726/774/787 730/774/788 731/777/792 727/777/796
f 730/774/788 729/772/782 728/778/793 731/777/792
f 732/770/784 736/767/778 737/776/791 733/775/790
f 736/767/778 735/772/781 734/778/795 737/776/791
f 707/761/773 728/778/793 723/776/797 705/760/763
