# Blender 4.2.2 LTS
# www.blender.org
mtllib Kay_Tree1.mtl
o Tree_1_A_Color1
v -0.088559 6.273983 -0.197385
v -0.188875 6.273983 -0.081936
v -0.188875 6.273983 0.081935
v -0.088559 6.273983 0.197384
v 0.050856 6.273983 0.197466
v 0.148525 6.273983 0.082014
v 0.148525 6.273983 -0.082015
v 0.050856 6.273983 -0.197464
v 0.000003 -0.739744 0.000000
v 0.694836 4.595575 -0.151087
v 1.079137 3.054521 -0.251224
v 0.978550 3.834342 -0.206412
v 0.427117 4.603790 0.326192
v 0.651205 3.039543 0.563087
v 0.609128 3.828255 0.447759
v 0.132199 4.600498 0.280976
v 0.139090 3.034139 0.501095
v 0.194823 3.819901 0.384148
v -0.031269 4.595838 0.106849
v -0.162580 3.030898 0.192985
v -0.034519 3.813484 0.145040
v -0.031269 4.595838 -0.106847
v -0.162580 3.030898 -0.192986
v -0.034519 3.813484 -0.145037
v 0.651205 3.039543 -0.563087
v 0.427117 4.603790 -0.326190
v 0.609128 3.828255 -0.447760
v 0.132199 4.600498 -0.280973
v 0.139090 3.034139 -0.501092
v 0.194823 3.819901 -0.384148
v -0.433656 1.163665 -1.076598
v -0.056693 2.353216 -0.668688
v -0.265726 1.771313 -0.875451
v -0.963824 1.358406 -0.411788
v -0.368663 2.523663 -0.242384
v -0.671491 1.955291 -0.323441
v -0.963824 1.358406 0.411788
v -0.368663 2.523663 0.242383
v -0.671491 1.955291 0.323441
v 0.471173 0.892473 1.171204
v 0.548016 2.104784 0.794521
v 0.488421 1.510203 1.001434
v 1.187130 0.704645 0.505454
v 1.089068 1.922009 0.364802
v 1.125311 1.324643 0.445696
v 1.187130 0.704645 -0.505452
v 1.089068 1.922009 -0.364802
v 1.125311 1.324643 -0.445696
v -0.078572 2.748841 0.361779
v -0.083934 2.599778 0.186548
v -0.010969 2.599778 -0.030531
v 0.099339 2.748841 -0.167528
v 0.183522 2.963558 -0.140921
v 0.190361 3.114543 0.034810
v 0.116669 3.114543 0.254060
v 0.004875 2.963558 0.390579
v -1.334506 4.815524 -0.230160
v -1.254238 4.838550 -0.271601
v -1.224424 4.838550 -0.360299
v -1.263571 4.815524 -0.441206
v -1.345815 4.784184 -0.465823
v -1.421743 4.763038 -0.422945
v -1.450000 4.763038 -0.338878
v -1.415198 4.784184 -0.259403
v -1.299488 3.791112 -0.124636
v -1.363853 3.753592 -0.271199
v -1.311876 3.753592 -0.425838
v -1.171711 3.791112 -0.504795
v -1.018994 3.846265 -0.459496
v -0.945658 3.886689 -0.309970
v -1.000769 3.886689 -0.146006
v -1.149905 3.846265 -0.070012
v -0.674276 3.324494 0.137787
v -0.538060 3.443768 0.028348
v -0.469996 3.443768 -0.174155
v -0.512758 3.324494 -0.342756
v -0.636887 3.163471 -0.377632
v -0.767413 3.054360 -0.266392
v -0.831806 3.054360 -0.074819
v -0.794682 3.163471 0.091834
v 0.400963 -0.559571 -0.971153
v 0.968025 -0.559551 -0.402271
v 0.968025 -0.559551 0.402271
v 0.400963 -0.559571 0.971153
v -0.400957 -0.559571 0.971153
v -0.968019 -0.559551 0.402271
v -0.968019 -0.559551 -0.402271
v -0.400957 -0.559571 -0.971153
v 0.935935 3.290566 -0.196114
v 1.263132 3.219096 -0.722443
v 0.800044 3.449936 -0.266655
v 1.161984 3.089581 -0.802314
v 0.621730 3.449936 -0.395378
v 1.016214 3.089581 -0.907547
v 0.511999 3.290566 -0.502151
v 0.908561 3.219096 -0.978408
v 0.536557 3.071735 -0.527481
v 0.902902 3.405772 -0.974669
v 0.674437 2.920940 -0.459884
v 1.154151 3.539613 -0.787840
v 0.844677 2.920940 -0.336990
v 1.261366 3.405772 -0.715895
v 0.952243 3.071735 -0.227400
v 1.004941 3.539613 -0.895553
v 1.515449 3.757717 -1.621347
v 1.560920 3.709890 -1.678728
v 1.637296 3.678032 -1.682572
v 1.702085 3.678032 -1.635801
v 1.682329 3.757717 -1.500876
v 1.602165 3.791633 -1.492262
v 1.532510 3.791633 -1.542546
v 1.722478 3.709890 -1.562101
v 1.362488 3.272217 -1.501734
v 1.256016 3.184305 -1.380776
v 1.461794 3.189537 -1.480514
v 1.364954 3.093238 -1.356838
v 1.484760 3.488251 -1.282597
v 1.392569 3.425879 -1.140965
v 1.211608 3.320123 -1.332337
v 1.322896 3.394769 -1.456627
v 1.370463 3.488251 -1.365107
v 1.265054 3.425879 -1.233018
v 1.565549 3.189534 -1.405616
v 1.478645 3.093238 -1.274764
v 1.503664 3.320123 -1.121504
v 1.586601 3.394769 -1.266261
v 1.616951 3.272217 -1.318039
v 1.535658 3.184303 -1.178901
v 2.080192 5.446718 -1.479843
v 2.605029 5.185436 -1.596748
v 2.399579 5.179211 -1.007178
v 2.867341 4.769965 -1.681952
v 2.525169 4.790961 -0.752857
v 2.544048 4.248479 -0.597538
v 1.565124 5.016538 -0.662469
v 1.797351 5.338368 -0.964430
v 1.490897 5.436943 -1.379711
v 1.067851 5.176493 -1.336338
v 0.723966 4.726562 -1.328539
v 1.408736 5.150079 -2.265767
v 1.688007 5.408097 -1.971452
v 2.298576 5.284011 -2.012029
v 2.370071 4.929920 -2.355821
v 2.347393 4.419169 -2.599489
v 2.972965 4.217946 -1.751760
v 2.488077 3.607972 -2.217294
v 2.227952 3.943580 -2.633779
v 2.862319 3.739528 -1.774132
v 2.573126 3.522444 -1.162064
v 2.193255 3.444905 -1.327907
v 2.433949 3.770122 -0.622478
v 1.834986 3.662208 -0.584186
v 1.740607 3.530611 -0.973534
v 1.241980 4.046336 -0.505596
v 1.349540 4.525339 -0.480807
v 0.870633 3.914230 -0.951026
v 1.138137 3.688022 -1.202120
v 0.607613 4.250387 -1.365243
v 0.785584 3.999760 -2.006257
v 1.085558 3.741312 -1.861208
v 1.035984 4.219795 -2.516897
v 1.152869 4.695970 -2.482763
v 1.523726 3.859997 -2.584135
v 1.538209 3.655606 -2.215579
v 2.140678 3.498195 -1.986993
v 1.630601 3.556077 -1.596849
v 0.659208 4.620271 0.135828
v 1.052777 3.028625 0.240594
v 0.893203 3.832935 0.262171
v 0.978550 3.834342 0.105850
v 0.896467 3.818104 0.162503
v -0.497092 1.186966 0.997052
v -0.337207 1.134757 1.086684
v -0.396272 1.144028 0.998246
v -0.039552 2.375062 0.642443
v -0.326351 1.798803 0.792975
v -0.170950 1.738501 0.891284
v -0.231108 1.742968 0.799953
v 0.543506 2.133748 -0.762360
v 0.543738 0.873438 -1.103729
v 0.371435 0.922366 -1.160775
v 0.440762 0.884416 -1.086526
v 0.562654 1.488576 -0.936659
v 0.389221 1.544550 -0.984863
v 0.458392 1.496669 -0.917248
v -3.156702 10.383811 -1.012019
v -4.290149 9.395246 -0.000001
v -2.255052 10.874893 -0.000001
v -3.701384 9.497903 -1.813954
v -2.015097 10.172867 -2.404277
v -1.241451 11.038449 -1.012019
v -3.156705 10.383811 1.012020
v -2.015097 10.172867 2.404278
v -1.241454 11.038449 1.012020
v -3.701384 9.497903 1.813956
v -3.140368 8.902790 3.055709
v -4.635574 8.391726 1.475570
v -4.904273 6.986325 1.878300
v -5.158789 8.061103 -0.000001
v -5.476481 6.775533 -0.000001
v -4.635574 8.391726 -1.475572
v -4.904270 6.986328 -1.878304
v -3.140366 8.902794 -3.055708
v -3.119440 7.596386 -3.764514
v -1.697652 9.244131 -3.657736
v -1.337438 8.190270 -4.374146
v -0.347846 9.857285 -3.055708
v 0.435253 8.811392 -3.764514
v 1.147363 10.368352 -1.475569
v -0.268467 10.671284 -1.813954
v 0.259954 10.950485 0.000002
v -0.268469 10.671284 1.813955
v 1.147363 10.368352 1.475573
v 1.763486 10.427159 0.000002
v 2.801604 9.605007 0.000002
v 3.412937 8.519942 0.000002
v 2.220083 9.421453 -1.878302
v 2.220083 9.421453 1.878306
v 2.816695 8.316146 1.984309
v 0.435250 8.811392 3.764516
v -0.347846 9.857285 3.055709
v 0.936243 7.673403 3.971570
v -1.337441 8.190270 4.374147
v -1.697655 9.244131 3.657737
v -0.941409 7.031615 4.601680
v -3.119443 7.596387 3.764513
v -2.819062 6.389826 3.971570
v -2.398642 5.460100 3.777189
v -4.699514 5.747082 1.984306
v -4.187059 4.848814 1.887186
v -5.295753 5.543285 -0.000000
v -4.754115 4.654994 -0.000000
v -4.699511 5.747082 -1.984307
v -4.187056 4.848814 -1.887187
v -2.819059 6.389828 -3.971571
v -2.398639 5.460099 -3.777188
v -0.941407 7.031612 -4.601678
v -0.612887 6.070475 -4.376456
v 0.936246 7.673398 -3.971569
v 1.172869 6.680848 -3.777188
v 2.816698 8.316146 -1.984304
v 2.961285 7.292136 -1.887185
v 2.687044 6.281932 -1.596176
v 3.528341 7.485959 0.000002
v 3.167686 6.446218 0.000002
v 2.961282 7.292138 1.887189
v 2.687041 6.281934 1.596181
v 1.726855 5.561233 1.031426
v 1.177981 5.766131 3.190958
v 1.172866 6.680851 3.777189
v -0.612890 6.070476 4.376457
v -0.332406 5.249877 3.698903
v -0.212280 4.898430 2.379344
v -1.842794 4.733626 3.190955
v -1.188265 4.564837 2.049282
v -3.351851 4.217824 1.596178
v -2.151413 4.235630 1.031423
v -3.832496 4.053537 -0.000000
v -2.463737 4.128877 -0.000000
v -3.351851 4.217824 -1.596179
v -2.151413 4.235630 -1.031424
v -1.842791 4.733622 -3.190955
v -1.188265 4.564835 -2.049280
v -0.332403 5.249876 -3.698901
v -0.212278 4.898430 -2.379342
v 1.177984 5.766130 -3.190956
v 0.763707 5.232023 -2.049280
v 1.726857 5.561230 -1.031422
v -0.188564 4.829047 -0.000000
v 2.039179 5.667985 0.000002
v 0.763707 5.232025 2.049282
v 1.136756 -0.272781 -0.472390
v 1.240534 0.207208 -0.519645
v 1.240531 0.207219 0.519645
v 1.136781 -0.272738 0.472402
v 0.510550 0.206690 1.244746
v 0.470865 -0.272758 1.140464
v -1.136759 -0.272775 0.472393
v -1.213559 0.202811 0.506326
v -1.213556 0.202825 -0.506326
v -1.136784 -0.272733 -0.472402
v -0.506055 0.204852 -1.231200
v -0.470865 -0.272753 -1.140467
v 0.460504 -0.295249 -1.114842
v 0.487346 0.183471 -1.202949
v -0.460422 -0.295263 1.114811
v -0.480158 0.182795 1.196970
vn -0.8332 0.4357 -0.3405
vn -0.8294 0.4354 0.3499
vn -0.8850 0.2828 0.3698
vn -0.8860 0.2876 -0.3637
vn 0.9049 0.1006 0.4135
vn 0.9037 0.1031 -0.4156
vn 0.8983 0.1009 -0.4276
vn 0.8951 0.0972 0.4351
vn 0.3079 0.2340 -0.9222
vn -0.3796 0.3718 -0.8472
vn -0.4146 0.2379 -0.8783
vn 0.2719 0.1610 -0.9488
vn -0.0292 0.3207 -0.9467
vn -0.3692 0.3989 -0.8394
vn 0.3325 0.2602 0.9065
vn -0.0451 0.3255 0.9445
vn -0.0456 0.2097 0.9767
vn 0.3338 0.1749 0.9263
vn 0.3665 -0.0593 -0.9285
vn -0.3908 -0.0127 -0.9204
vn -0.4013 0.2672 -0.8761
vn -0.0209 0.1867 -0.9822
vn -0.3896 0.3642 0.8459
vn -0.4215 0.2337 0.8762
vn 0.3461 -0.3651 0.8642
vn -0.3647 -0.3488 0.8633
vn -0.2391 -0.7819 0.5758
vn 0.2346 -0.7853 0.5729
vn -0.8653 -0.3411 0.3672
vn -0.8665 -0.3500 -0.3558
vn -0.5693 -0.7878 -0.2351
vn -0.5713 -0.7851 0.2393
vn -0.9226 0.0180 0.3853
vn -0.3968 -0.0243 0.9176
vn -0.6918 0.2652 0.6716
vn -0.8758 0.3306 0.3518
vn 0.3595 -0.0461 0.9320
vn 0.8570 -0.3745 0.3539
vn 0.5693 -0.7878 0.2351
vn -0.9279 0.0171 -0.3725
vn -0.8771 0.3338 -0.3455
vn 0.6683 0.1678 -0.7247
vn 0.9065 0.1355 -0.3999
vn 0.9090 0.1135 -0.4010
vn 0.6826 0.1117 -0.7222
vn 0.8495 0.3228 -0.4173
vn 0.2400 0.1720 -0.9554
vn 0.2384 0.1311 -0.9623
vn 0.8656 0.2858 -0.4112
vn -0.4559 0.0368 -0.8893
vn -0.4780 -0.0137 -0.8783
vn -0.9299 -0.0312 0.3664
vn -0.4559 0.0368 0.8893
vn -0.4780 -0.0137 0.8783
vn -0.9329 -0.0836 0.3504
vn 0.2626 0.1803 0.9479
vn 0.2652 0.1338 0.9549
vn -0.9299 -0.0312 -0.3664
vn -0.9329 -0.0836 -0.3504
vn 0.5786 0.1907 0.7930
vn 0.2529 0.1807 0.9505
vn 0.2833 0.1675 0.9443
vn 0.3574 -0.3567 -0.8632
vn 0.8561 -0.3651 -0.3658
vn 0.5713 -0.7851 -0.2393
vn 0.2391 -0.7819 -0.5758
vn 0.9219 -0.0548 0.3836
vn 0.9158 -0.0592 -0.3972
vn 0.9111 0.1258 0.3924
vn -0.3528 -0.3526 -0.8667
vn -0.2346 -0.7853 -0.5729
vn 0.8430 0.3133 0.4373
vn 0.8580 0.2756 0.4334
vn 0.7570 0.1561 -0.6345
vn 0.7604 0.1553 -0.6306
vn 0.7557 0.1565 -0.6359
vn 0.8707 0.2403 -0.4292
vn 0.2345 0.1773 -0.9558
vn 0.3091 0.2448 0.9190
vn 0.9716 0.2333 0.0386
vn -0.4439 0.1223 0.8877
vn -0.9213 0.0983 0.3761
vn -0.9213 0.0983 -0.3761
vn -0.4439 0.1223 -0.8877
vn -0.8191 0.4666 -0.3336
vn -0.8157 0.4700 0.3373
vn -0.6436 0.4248 0.6366
vn 0.9079 0.1318 0.3978
vn -0.6946 -0.1405 0.7055
vn -0.6666 0.0235 0.7451
vn -0.9947 -0.0806 0.0638
vn -0.9360 -0.3468 0.0605
vn 0.8475 0.5065 -0.1590
vn 0.9580 0.2764 -0.0770
vn 0.7184 0.2755 0.6388
vn 0.5819 0.5048 0.6376
vn -0.7560 -0.0804 -0.6496
vn -0.7113 -0.3462 -0.6117
vn -0.6906 -0.7081 0.1473
vn -0.4641 -0.7069 -0.5337
vn 0.0496 0.1721 0.9838
vn -0.0853 0.2060 0.9748
vn -0.1347 -0.1399 -0.9810
vn -0.0058 -0.3130 -0.9497
vn -0.1680 0.3345 0.9273
vn -0.1432 0.3010 0.9428
vn -0.5717 -0.3140 0.7580
vn -0.5020 -0.3532 0.7895
vn 0.0687 -0.3514 -0.9337
vn 0.4473 0.3021 -0.8418
vn 0.4178 0.3346 -0.8447
vn 0.6008 0.7692 -0.2176
vn 0.3508 0.7677 0.5362
vn -0.3282 -0.8044 -0.4952
vn -0.0891 0.0235 -0.9957
vn 0.6280 0.1728 -0.7588
vn 0.5136 0.2070 -0.8327
vn -0.5580 -0.8063 0.1965
vn 0.4932 0.8343 -0.2463
vn 0.2488 0.8339 0.4926
vn -0.0000 -1.0000 -0.0000
vn 0.8302 -0.3825 0.4056
vn 0.8154 -0.3520 0.4595
vn 0.7793 0.4091 0.4746
vn 0.7570 0.3517 0.5507
vn -0.6463 -0.3825 -0.6603
vn -0.6928 -0.3520 -0.6293
vn -0.2316 -0.9078 -0.3497
vn -0.1432 -0.8859 -0.4413
vn 0.2545 0.9088 0.3307
vn 0.3348 0.9273 0.1672
vn -0.2641 0.9273 -0.2651
vn -0.3940 0.9088 -0.1375
vn 0.4639 -0.8859 -0.0030
vn 0.4048 -0.9078 0.1098
vn -0.7610 0.3517 -0.5451
vn -0.6959 0.4091 -0.5903
vn -0.4806 -0.2712 -0.8340
vn -0.4551 -0.1493 -0.8779
vn 0.2090 -0.4327 -0.8770
vn 0.1089 -0.6446 -0.7567
vn 0.9429 -0.2712 0.1936
vn 0.9765 -0.1493 0.1556
vn 0.6369 0.2883 0.7150
vn 0.7341 0.2777 0.6196
vn -0.8192 0.2777 -0.5018
vn -0.8791 0.2883 -0.3794
vn 0.6839 -0.6446 -0.3416
vn 0.7666 -0.4327 -0.4744
vn -0.0981 0.5909 0.8008
vn 0.0573 0.7354 0.6752
vn -0.6589 0.7354 0.1582
vn -0.7292 0.5909 0.3452
vn 0.4544 -0.8908 -0.0077
vn 0.8170 -0.4211 0.3939
vn -0.3493 0.9035 -0.2482
vn -0.7467 0.2959 -0.5957
vn -0.1357 -0.8908 -0.4337
vn 0.8005 0.2959 0.5212
vn 0.3456 0.9035 0.2534
vn -0.6311 -0.4211 -0.6515
vn 0.7157 0.6980 -0.0257
vn 0.5153 0.7047 0.4877
vn 0.6137 0.3800 0.6920
vn 0.9325 0.3486 -0.0947
vn 0.6184 0.0175 0.7857
vn 0.9899 -0.0208 -0.1400
vn -0.3487 0.2326 0.9079
vn -0.2085 0.5646 0.7986
vn 0.2309 0.9711 0.0601
vn -0.1307 0.9125 -0.3876
vn -0.3270 0.9365 0.1268
vn -0.0165 0.8366 0.5476
vn -0.6793 0.7161 0.1606
vn -0.8976 0.4092 0.1641
vn -0.5228 0.3845 -0.7608
vn -0.3586 0.6928 -0.6256
vn 0.8513 -0.5017 -0.1534
vn 0.4907 -0.4623 0.7386
vn 0.5822 -0.7690 0.2639
vn 0.4052 0.7978 -0.4464
vn 0.4410 0.1557 -0.8839
vn 0.3038 -0.3256 -0.8954
vn 0.4617 0.5000 -0.7327
vn -0.6252 -0.1033 -0.7736
vn 0.4784 -0.7070 -0.5209
vn -0.0501 -0.6493 0.7589
vn -0.4423 -0.2568 0.8593
vn 0.0057 -0.9720 -0.2349
vn 0.0387 -0.9976 0.0575
vn -0.8577 -0.3895 -0.3356
vn -0.2254 -0.5092 -0.8306
vn -0.2589 -0.9019 -0.3458
vn -0.4804 -0.8599 -0.1724
vn -0.7590 -0.4727 0.4479
vn -0.9898 -0.0807 0.1173
vn -0.4475 -0.8862 0.1199
vn -0.1828 -0.9557 0.2309
vn -0.2309 -0.9711 -0.0601
vn 0.9590 0.2833 -0.0107
vn 0.9703 0.2418 -0.0042
vn 0.9716 0.2367 -0.0034
vn 0.5331 0.1851 0.8255
vn 0.5329 0.1861 0.8255
vn 0.9809 0.1945 0.0032
vn 0.5327 0.1871 0.8254
vn -0.1580 0.2532 -0.9544
vn -0.1505 0.2598 -0.9539
vn -0.1512 0.2592 -0.9539
vn 0.7219 0.0709 -0.6883
vn 0.7403 0.1203 -0.6614
vn 0.7368 0.1102 -0.6671
vn -0.1458 0.2064 -0.9675
vn -0.1456 0.2152 -0.9657
vn -0.7622 0.3742 0.5282
vn -0.7696 0.3640 0.5247
vn -0.7635 0.3724 0.5276
vn 0.0863 0.2610 0.9615
vn 0.0601 0.2242 0.9727
vn 0.0800 0.2522 0.9644
vn -0.7887 0.2764 0.5492
vn -0.7829 0.2982 0.5460
vn 0.0863 0.2358 0.9680
vn 0.0917 0.2505 0.9638
vn -0.8079 0.1861 0.5591
vn -0.1470 0.1526 -0.9773
vn 0.0719 0.1959 0.9780
vn -0.7771 0.6294 -0.0000
vn -0.5295 0.8144 -0.2376
vn -0.6598 0.6206 -0.4237
vn -0.5295 0.8144 0.2376
vn -0.3234 0.9463 -0.0000
vn -0.0798 0.9681 -0.2376
vn -0.2739 0.8014 -0.5317
vn -0.2739 0.8014 0.5317
vn -0.6598 0.6206 0.4237
vn -0.0798 0.9681 0.2376
vn -0.5689 0.5006 0.6525
vn -0.8302 0.4113 0.3764
vn -0.9273 0.3743 -0.0000
vn -0.8693 0.0840 0.4871
vn -0.9991 0.0420 -0.0000
vn -0.5776 0.1837 0.7954
vn -0.8302 0.4113 -0.3764
vn -0.8693 0.0840 -0.4871
vn -0.5689 0.5006 -0.6525
vn -0.5776 0.1837 -0.7954
vn -0.2116 0.6189 -0.7564
vn -0.1174 0.3434 -0.9318
vn 0.1434 0.7441 -0.6525
vn 0.3443 0.4988 -0.7954
vn 0.4047 0.8334 -0.3764
vn 0.6360 0.5985 -0.4871
vn 0.1419 0.8946 -0.4237
vn 0.2292 0.9734 -0.0000
vn 0.1419 0.8946 0.4237
vn 0.4047 0.8334 0.3764
vn 0.5042 0.8636 -0.0000
vn 0.7644 0.6448 -0.0000
vn 0.6360 0.5985 0.4871
vn 0.9509 0.3096 -0.0000
vn 0.8134 0.2642 0.5182
vn 0.8134 0.2642 -0.5182
vn 0.1434 0.7441 0.6525
vn 0.3443 0.4988 0.7954
vn 0.4946 0.1552 0.8552
vn -0.2116 0.6189 0.7564
vn -0.1174 0.3434 0.9318
vn 0.0047 -0.0138 0.9999
vn -0.4861 -0.1800 0.8552
vn -0.8050 -0.2890 0.5182
vn -0.6103 -0.6343 0.4746
vn -0.3189 -0.5346 0.7826
vn 0.1329 -0.3889 0.9117
vn -0.9414 -0.3372 -0.0000
vn -0.7296 -0.6838 -0.0000
vn -0.8050 -0.2890 -0.5182
vn -0.6103 -0.6343 -0.4746
vn -0.4861 -0.1800 -0.8552
vn -0.3189 -0.5346 -0.7826
vn 0.0047 -0.0138 -0.9999
vn 0.1329 -0.3889 -0.9117
vn 0.4946 0.1552 -0.8552
vn 0.5794 -0.2276 -0.7826
vn 0.8708 -0.1280 -0.4746
vn 0.9956 -0.0941 -0.0000
vn 0.7423 -0.5918 -0.3142
vn 0.8708 -0.1280 0.4746
vn 0.8239 -0.5668 -0.0000
vn 0.7423 -0.5918 0.3142
vn 0.5794 -0.2276 0.7826
vn 0.5562 -0.6555 0.5109
vn 0.4072 -0.9010 0.1494
vn 0.4598 -0.8831 0.0939
vn 0.4841 -0.8750 -0.0000
vn 0.2597 -0.7597 0.5961
vn 0.3184 -0.9316 0.1751
vn -0.0386 -0.8588 0.5109
vn 0.2295 -0.9618 0.1494
vn -0.2247 -0.9224 0.3142
vn 0.1769 -0.9797 0.0939
vn -0.3046 -0.9525 -0.0000
vn 0.1528 -0.9883 -0.0000
vn -0.2247 -0.9224 -0.3142
vn 0.1769 -0.9797 -0.0939
vn -0.0386 -0.8588 -0.5109
vn 0.2295 -0.9618 -0.1494
vn 0.2597 -0.7597 -0.5961
vn 0.3184 -0.9316 -0.1751
vn 0.5562 -0.6555 -0.5109
vn 0.4072 -0.9010 -0.1494
vn 0.4598 -0.8831 -0.0939
vn 0.3234 -0.9463 -0.0000
vn -0.0000 1.0000 -0.0000
vt 0.055837 0.613192
vt 0.059409 0.621983
vt 0.081101 0.618390
vt 0.080929 0.638017
vt 0.080944 0.636287
vt 0.070019 0.606633
vt 0.061244 0.610238
vt 0.064637 0.622039
vt 0.073512 0.622133
vt 0.061244 0.625863
vt 0.055837 0.628817
vt 0.059409 0.637608
vt 0.064637 0.637664
vt 0.068972 0.596223
vt 0.057621 0.600153
vt 0.070691 0.611253
vt 0.059264 0.615209
vt 0.056382 0.604746
vt 0.070392 0.600547
vt 0.069577 0.572939
vt 0.053456 0.573005
vt 0.054711 0.589622
vt 0.068664 0.585440
vt 0.061712 0.611865
vt 0.070387 0.580352
vt 0.054306 0.579368
vt 0.055277 0.575382
vt 0.069175 0.575382
vt 0.042525 0.564727
vt 0.042525 0.564728
vt 0.045450 0.559757
vt 0.041194 0.572969
vt 0.052543 0.572962
vt 0.053611 0.590026
vt 0.045522 0.592997
vt 0.055061 0.588555
vt 0.071075 0.588662
vt 0.081928 0.564728
vt 0.070387 0.564727
vt 0.069175 0.559757
vt 0.079003 0.559757
vt 0.041194 0.572970
vt 0.071978 0.595253
vt 0.081729 0.592412
vt 0.082801 0.581667
vt 0.071650 0.584592
vt 0.074268 0.649100
vt 0.069629 0.649243
vt 0.063108 0.678189
vt 0.064801 0.678189
vt 0.064518 0.649186
vt 0.060692 0.678189
vt 0.061684 0.649105
vt 0.058953 0.678189
vt 0.064518 0.664811
vt 0.069629 0.664868
vt 0.063108 0.693814
vt 0.060692 0.693814
vt 0.061684 0.664730
vt 0.058953 0.693814
vt 0.077706 0.635883
vt 0.072783 0.635802
vt 0.079504 0.622342
vt 0.071000 0.564536
vt 0.081928 0.564727
vt 0.083726 0.588671
vt 0.082801 0.597292
vt 0.053456 0.588630
vt 0.041194 0.588595
vt 0.045522 0.608622
vt 0.054711 0.605247
vt 0.054066 0.564727
vt 0.070147 0.563743
vt 0.055277 0.559757
vt 0.074268 0.664725
vt 0.064801 0.693814
vt 0.071075 0.573037
vt 0.083726 0.573046
vt 0.070392 0.584922
vt 0.053452 0.564535
vt 0.070394 0.553746
vt 0.069697 0.541695
vt 0.068664 0.554190
vt 0.079186 0.635907
vt 0.080929 0.622392
vt 0.072774 0.649146
vt 0.071724 0.605932
vt 0.081101 0.602765
vt 0.073731 0.650753
vt 0.079186 0.651532
vt 0.065603 0.651282
vt 0.072783 0.651427
vt 0.073512 0.637758
vt 0.061628 0.635546
vt 0.065603 0.635657
vt 0.061628 0.651171
vt 0.073044 0.605487
vt 0.057621 0.615778
vt 0.050589 0.618967
vt 0.050589 0.603342
vt 0.062849 0.625204
vt 0.071724 0.621557
vt 0.060196 0.610810
vt 0.056570 0.600630
vt 0.070691 0.595628
vt 0.081729 0.608037
vt 0.071909 0.607611
vt 0.042525 0.580353
vt 0.054066 0.580352
vt 0.045450 0.575382
vt 0.039705 0.635158
vt 0.037700 0.652369
vt 0.037096 0.652003
vt 0.038589 0.634508
vt 0.045837 0.636815
vt 0.041006 0.653311
vt 0.040489 0.653311
vt 0.044882 0.636815
vt 0.037586 0.652003
vt 0.039490 0.634508
vt 0.047810 0.622390
vt 0.048926 0.622390
vt 0.039098 0.652912
vt 0.042297 0.636114
vt 0.041920 0.635158
vt 0.051188 0.624281
vt 0.062311 0.620816
vt 0.050541 0.627071
vt 0.048454 0.624281
vt 0.060865 0.617095
vt 0.063948 0.617095
vt 0.053340 0.627071
vt 0.065407 0.620816
vt 0.054081 0.629138
vt 0.052901 0.629138
vt 0.062036 0.614511
vt 0.038902 0.652369
vt 0.040327 0.652912
vt 0.044566 0.636114
vt 0.060772 0.614511
vt 0.065526 0.623433
vt 0.064248 0.623433
vt 0.062226 0.556634
vt 0.078730 0.622691
vt 0.084118 0.625245
vt 0.084087 0.628480
vt 0.078447 0.626483
vt 0.071525 0.622691
vt 0.077973 0.625245
vt 0.079838 0.623000
vt 0.073915 0.620077
vt 0.076092 0.629245
vt 0.082229 0.630799
vt 0.079643 0.630799
vt 0.073002 0.629245
vt 0.076865 0.620077
vt 0.082365 0.623000
vt 0.071100 0.626483
vt 0.077875 0.628480
vt 0.085840 0.626165
vt 0.089279 0.633751
vt 0.090602 0.633198
vt 0.087561 0.624732
vt 0.090250 0.626165
vt 0.092079 0.633751
vt 0.091383 0.634579
vt 0.089724 0.628289
vt 0.085153 0.628289
vt 0.088491 0.634579
vt 0.089359 0.624732
vt 0.091725 0.633198
vt 0.089994 0.635167
vt 0.087959 0.629909
vt 0.085978 0.629909
vt 0.088786 0.635167
vt 0.087853 0.623063
vt 0.088841 0.624642
vt 0.084151 0.628828
vt 0.083225 0.626996
vt 0.085882 0.623063
vt 0.088286 0.626996
vt 0.086361 0.628828
vt 0.083994 0.624642
vt 0.051583 0.938107
vt 0.037937 0.935744
vt 0.029265 0.916274
vt 0.047232 0.916299
vt 0.021098 0.879007
vt 0.043576 0.879007
vt 0.074836 0.951133
vt 0.083357 0.935744
vt 0.069712 0.938107
vt 0.060647 0.951133
vt 0.049952 0.949846
vt 0.074061 0.916299
vt 0.077718 0.879007
vt 0.100196 0.879007
vt 0.092028 0.916274
vt 0.043506 0.845379
vt 0.020920 0.845379
vt 0.031383 0.826581
vt 0.071343 0.949846
vt 0.077789 0.845379
vt 0.100374 0.845379
vt 0.060647 0.826581
vt 0.020920 0.814129
vt 0.031384 0.795331
vt 0.031383 0.795331
vt 0.031384 0.826581
vt 0.060647 0.784412
vt 0.060647 0.795331
vt 0.041839 0.784412
vt 0.089910 0.795331
vt 0.079455 0.784412
vt 0.043506 0.814129
vt 0.077789 0.814129
vt 0.089910 0.826581
vt 0.100374 0.814129
vt 0.060647 0.781423
vt 0.046459 0.951133
vt 0.072774 0.617896
vt 0.077706 0.604633
vt 0.079130 0.604807
vt 0.074268 0.633475
vt 0.079130 0.620432
vt 0.079186 0.620282
vt 0.080922 0.591192
vt 0.079186 0.604657
vt 0.080929 0.606767
vt 0.073044 0.574237
vt 0.071978 0.564003
vt 0.070700 0.564464
vt 0.071724 0.574682
vt 0.068972 0.564973
vt 0.071650 0.553342
vt 0.059264 0.583959
vt 0.061244 0.594613
vt 0.057666 0.584652
vt 0.057666 0.569027
vt 0.060196 0.579560
vt 0.056570 0.569380
vt 0.056382 0.573496
vt 0.057621 0.584528
vt 0.054742 0.574110
vt 0.054742 0.558485
vt 0.057621 0.568903
vt 0.053611 0.558776
vt 0.055002 0.557320
vt 0.054711 0.573997
vt 0.071030 0.541736
vt 0.053526 0.541774
vt 0.054711 0.558372
vt 0.072013 0.572938
vt 0.039891 0.958970
vt 0.051910 0.972132
vt 0.044987 0.956812
vt 0.060647 0.978735
vt 0.069383 0.972132
vt 0.060647 0.958970
vt 0.060646 0.958970
vt 0.047908 0.939583
vt 0.044987 0.941187
vt 0.034267 0.923958
vt 0.047908 0.923958
vt 0.034267 0.939583
vt 0.039891 0.943345
vt 0.029069 0.920635
vt 0.028147 0.895198
vt 0.022884 0.894865
vt 0.044431 0.895198
vt 0.060647 0.943345
vt 0.060647 0.920635
vt 0.060647 0.894865
vt 0.073386 0.923958
vt 0.076862 0.895198
vt 0.087027 0.923958
vt 0.093146 0.895198
vt 0.076307 0.941187
vt 0.073386 0.939583
vt 0.076307 0.956812
vt 0.081403 0.958970
vt 0.087027 0.939583
vt 0.092224 0.920635
vt 0.081403 0.943345
vt 0.098409 0.894865
vt 0.100374 0.866532
vt 0.094933 0.866532
vt 0.077778 0.866532
vt 0.060646 0.920635
vt 0.060646 0.894865
vt 0.060646 0.866532
vt 0.043516 0.866532
vt 0.026360 0.866532
vt 0.028038 0.843030
vt 0.044354 0.843030
vt 0.060646 0.843030
vt 0.020920 0.866532
vt 0.022864 0.843030
vt 0.060647 0.866532
vt 0.060647 0.843030
vt 0.076939 0.843030
vt 0.093256 0.843030
vt 0.098429 0.843030
vt 0.088195 0.822964
vt 0.092580 0.791714
vt 0.088195 0.791714
vt 0.098429 0.811780
vt 0.074427 0.791714
vt 0.069551 0.783120
vt 0.078338 0.783120
vt 0.081188 0.783120
vt 0.076939 0.811780
vt 0.060646 0.791714
vt 0.060646 0.822964
vt 0.060646 0.783120
vt 0.046867 0.791714
vt 0.051742 0.783120
vt 0.044354 0.811780
vt 0.033099 0.791714
vt 0.042955 0.783120
vt 0.033099 0.822964
vt 0.028714 0.791714
vt 0.040106 0.783120
vt 0.022864 0.811780
vt 0.060647 0.791714
vt 0.060647 0.783120
vt 0.060647 0.822964
vt 0.060646 0.943345
vt 0.081928 0.580353
vt 0.081928 0.580352
vt 0.079003 0.575382
s 1
usemtl forest.008
f 35/1/1 38/1/2 20/2/3 23/2/4
f 44/3/5 47/3/6 11/4/7 168/5/8
f 179/6/9 32/7/10 29/8/11 25/9/12
f 32/10/10 35/11/1 23/12/4 29/13/11
f 32/7/10 179/6/9 184/14/13 33/15/14
f 42/16/15 177/17/16 173/18/17 40/19/18
f 285/20/19 282/21/20 31/22/21 181/23/22
f 38/1/2 175/24/23 17/8/24 20/2/3
f 277/25/25 286/26/26 85/27/27 84/28/28
f 278/29/29 281/30/30 87/31/31 86/31/32
f 279/32/33 287/33/34 172/34/35 37/35/36
f 287/36/34 276/37/37 40/19/18 173/18/17
f 275/38/38 277/39/25 84/40/28 83/41/39
f 280/42/40 279/32/33 37/35/36 34/35/41
f 183/43/42 48/44/43 46/45/44 180/46/45
f 10/47/46 26/48/47 8/49/48 7/50/49
f 26/48/47 28/51/50 1/52/51 8/49/48
f 19/53/52 16/51/53 4/52/54 3/54/55
f 16/55/53 13/56/56 5/57/57 4/58/54
f 28/55/50 22/59/58 2/60/59 1/58/51
f 22/53/58 19/53/52 3/54/55 2/54/59
f 169/61/60 15/62/61 14/9/62 168/63/8
f 284/64/63 272/65/64 82/41/65 81/40/66
f 274/66/67 273/66/68 46/67/44 43/67/69
f 282/68/20 280/69/40 34/70/41 31/71/21
f 283/72/70 284/73/63 81/40/66 88/74/71
f 167/75/72 10/75/46 7/76/49 6/76/73
f 276/77/37 274/78/67 43/45/69 40/79/18
f 286/80/26 278/29/29 86/31/32 85/74/27
f 182/81/74 285/82/75 181/83/76
f 26/48/47 10/47/46 12/84/77 27/62/78
f 27/62/78 12/84/77 11/85/7 25/9/12
f 167/86/72 13/48/56 15/62/61 169/61/60
f 41/87/79 44/88/5 168/63/8 14/9/62
f 13/48/56 167/89/72 6/50/73 5/49/57
f 12/90/77 170/90/80 168/4/8 11/4/7
f 13/56/56 16/55/53 18/91/81 15/92/61
f 15/92/61 18/91/81 17/13/24 14/93/62
f 16/51/53 19/53/52 21/94/82 18/95/81
f 18/95/81 21/94/82 20/2/3 17/8/24
f 19/53/52 22/53/58 24/94/83 21/94/82
f 21/94/82 24/94/83 23/2/4 20/2/3
f 22/59/58 28/55/50 30/91/84 24/96/83
f 24/96/83 30/91/84 29/13/11 23/12/4
f 28/51/50 26/48/47 27/62/78 30/95/84
f 30/95/84 27/62/78 25/9/12 29/8/11
f 10/75/46 167/75/72 170/90/80 12/90/77
f 179/97/9 47/88/6 48/44/43 183/43/42
f 35/11/1 32/10/10 33/98/14 36/99/85
f 36/99/85 33/98/14 31/71/21 34/70/41
f 38/1/2 35/1/1 36/100/85 39/100/86
f 39/100/86 36/100/85 34/35/41 37/35/36
f 175/101/23 41/102/79 14/93/62 17/13/24
f 41/102/79 175/101/23 177/17/16 42/16/15
f 175/103/23 38/1/2 39/100/86 176/104/87
f 176/104/87 39/100/86 37/35/36 172/34/35
f 44/88/5 41/87/79 42/105/15 45/44/88
f 45/44/88 42/105/15 40/79/18 43/45/69
f 47/3/6 44/3/5 45/106/88 48/106/43
f 48/106/43 45/106/88 43/67/69 46/67/44
f 47/88/6 179/107/9 25/9/12 11/85/7
f 33/15/14 184/14/13 181/23/22 31/22/21
f 281/108/30 283/109/70 88/27/71 87/110/31
f 65/111/89 64/112/90 63/113/91 66/114/92
f 70/115/93 59/116/94 58/117/95 71/118/96
f 66/114/92 63/113/91 62/119/97 67/120/98
f 79/121/99 66/114/92 67/120/98 78/122/100
f 71/118/96 58/117/95 57/123/101 72/124/102
f 72/124/102 57/123/101 64/112/90 65/111/89
f 78/122/100 67/120/98 68/125/103 77/126/104
f 56/127/105 73/128/106 80/129/107 49/130/108
f 52/131/109 77/126/104 76/132/110 53/133/111
f 75/134/112 70/115/93 71/118/96 74/135/113
f 80/129/107 65/111/89 66/114/92 79/121/99
f 51/136/114 78/122/100 77/126/104 52/131/109
f 73/128/106 72/124/102 65/111/89 80/129/107
f 68/125/103 61/137/115 60/138/116 69/139/117
f 69/139/117 60/138/116 59/116/94 70/115/93
f 67/120/98 62/119/97 61/137/115 68/125/103
f 74/135/113 71/118/96 72/124/102 73/128/106
f 50/140/118 79/121/99 78/122/100 51/136/114
f 54/141/119 75/134/112 74/135/113 55/142/120
f 77/126/104 68/125/103 69/139/117 76/132/110
f 76/132/110 69/139/117 70/115/93 75/134/112
f 49/130/108 80/129/107 79/121/99 50/140/118
f 55/142/120 74/135/113 73/128/106 56/127/105
f 53/133/111 76/132/110 75/134/112 54/141/119
f 9/143/121 81/40/66 82/41/65
f 9/143/121 82/41/65 83/41/39
f 9/143/121 83/41/39 84/40/28
f 9/143/121 84/40/28 85/74/27
f 9/143/121 85/74/27 86/31/32
f 9/143/121 86/31/32 87/31/31
f 9/143/121 87/31/31 88/74/71
f 9/143/121 88/74/71 81/40/66
f 103/144/122 90/145/123 102/146/124 89/147/125
f 97/148/126 96/149/127 94/150/128 99/151/129
f 91/152/130 100/153/131 104/154/132 93/155/133
f 101/156/134 92/157/135 90/145/123 103/144/122
f 95/158/136 98/159/137 96/149/127 97/148/126
f 113/160/138 106/161/139 107/162/140 115/163/141
f 99/151/129 94/150/128 92/157/135 101/156/134
f 93/155/133 104/154/132 98/159/137 95/158/136
f 127/164/142 112/165/143 109/166/144 126/167/145
f 120/168/146 105/169/147 106/161/139 113/160/138
f 123/170/148 108/171/149 112/165/143 127/164/142
f 126/167/145 109/166/144 110/172/150 117/173/151
f 115/163/141 107/162/140 108/171/149 123/170/148
f 121/174/152 111/175/153 105/169/147 120/168/146
f 117/173/151 110/172/150 111/175/153 121/174/152
f 89/147/125 102/146/124 100/153/131 91/152/130
f 92/157/135 124/176/154 128/177/155 90/145/123
f 104/154/132 122/178/156 119/179/157 98/159/137
f 94/150/128 116/180/158 124/176/154 92/157/135
f 90/145/123 128/177/155 125/181/159 102/146/124
f 102/146/124 125/181/159 118/182/160 100/153/131
f 100/153/131 118/182/160 122/178/156 104/154/132
f 96/149/127 114/183/161 116/180/158 94/150/128
f 120/168/146 113/160/138 114/183/161 119/179/157
f 113/160/138 115/163/141 116/180/158 114/183/161
f 115/163/141 123/170/148 124/176/154 116/180/158
f 126/167/145 117/173/151 118/182/160 125/181/159
f 117/173/151 121/174/152 122/178/156 118/182/160
f 121/174/152 120/168/146 119/179/157 122/178/156
f 123/170/148 127/164/142 128/177/155 124/176/154
f 127/164/142 126/167/145 125/181/159 128/177/155
f 98/159/137 119/179/157 114/183/161 96/149/127
f 130/184/162 131/185/163 133/186/164 132/187/165
f 132/187/165 133/186/164 134/188/166 145/189/167
f 155/189/168 134/188/166 133/186/164 135/187/169
f 129/190/170 141/191/171 137/192/172
f 129/193/170 137/192/172 136/184/173
f 131/185/163 129/194/170 136/184/173
f 136/184/173 137/192/172 138/195/174 135/187/169
f 135/187/169 138/195/174 139/196/175 155/189/168
f 162/197/176 139/196/175 138/195/174 140/198/177
f 141/191/171 140/198/177 138/195/174 137/192/172
f 148/199/178 151/200/179 149/201/180
f 133/186/164 131/185/163 136/184/173 135/187/169
f 129/202/170 142/192/181 141/191/171
f 144/196/182 145/189/167 148/199/178 147/203/183
f 142/192/181 130/184/162 132/187/165 143/195/184
f 162/197/176 144/196/182 147/203/183 161/204/185
f 147/203/183 148/199/178 146/205/186
f 129/193/170 130/184/162 142/192/181
f 151/206/179 152/207/187 149/208/180
f 151/200/179 154/199/188 152/209/187
f 142/192/181 143/195/184 140/198/177 141/191/171
f 165/210/189 146/211/186 149/208/180 150/212/190
f 159/213/191 163/213/192 164/214/193 160/214/194
f 154/215/188 156/211/195 152/207/187
f 154/199/188 158/203/196 156/205/195
f 145/189/167 134/188/166 151/200/179 148/199/178
f 158/216/196 159/213/191 156/211/195
f 158/203/196 161/204/185 159/217/191
f 155/189/168 154/199/188 151/200/179 134/188/166
f 152/207/187 156/211/195 157/210/197 153/212/198
f 161/218/185 163/213/192 159/213/191
f 161/204/185 147/203/183 163/217/192
f 155/189/168 139/196/175 158/203/196 154/199/188
f 156/211/195 159/213/191 160/214/194 157/210/197
f 147/216/183 146/211/186 163/213/192
f 162/197/176 140/198/177 143/195/184 144/196/182
f 162/197/176 161/204/185 158/203/196 139/196/175
f 164/214/193 165/210/189 166/219/199
f 163/213/192 146/211/186 165/210/189 164/214/193
f 157/210/197 166/219/199 153/212/198
f 157/210/197 160/214/194 166/219/199
f 160/214/194 164/214/193 166/219/199
f 165/210/189 150/212/190 166/219/199
f 150/212/190 153/212/198 166/219/199
f 149/208/180 152/207/187 153/212/198 150/212/190
f 129/220/170 131/185/163 130/184/162
f 149/208/180 146/211/186 148/215/178
f 145/189/167 144/196/182 143/195/184 132/187/165
f 167/221/200 169/222/201 171/223/202
f 167/224/203 171/225/204 170/226/204
f 169/222/201 168/227/205 171/228/202
f 171/226/204 168/229/206 170/226/204
f 179/230/207 183/231/208 185/232/209
f 179/233/210 185/232/211 184/234/212
f 183/231/208 180/235/213 182/81/214 185/232/209
f 185/232/211 182/81/74 181/83/76 184/234/212
f 177/236/215 175/237/216 178/238/217
f 178/239/218 175/240/219 176/241/220
f 173/242/221 177/236/215 178/243/217 174/244/222
f 174/245/223 178/246/218 176/241/220 172/247/224
f 287/248/225 173/242/221 174/249/222
f 180/235/213 285/250/226 182/81/214
f 287/251/227 174/252/223 172/247/224
f 273/78/68 285/253/19 180/46/45 46/45/44
f 187/254/228 186/255/229 189/256/230
f 192/255/231 186/255/229 187/254/228
f 188/257/232 191/258/233 186/255/229
f 188/257/232 186/255/229 192/255/231
f 189/256/230 186/255/229 190/259/234
f 191/258/233 190/259/234 186/255/229
f 193/260/235 192/255/231 195/256/236
f 192/255/231 193/260/235 194/258/237
f 188/257/232 192/255/231 194/258/237
f 195/256/236 192/255/231 187/254/228
f 196/261/238 193/260/235 195/256/236
f 195/262/236 197/263/239 196/264/238
f 195/256/236 187/254/228 197/265/239
f 197/263/239 187/266/228 199/267/240
f 198/268/241 197/263/239 199/267/240 200/269/242
f 196/264/238 197/263/239 198/268/241 226/270/243
f 199/267/240 187/266/228 201/263/244
f 200/269/242 199/267/240 201/263/244 202/268/245
f 201/265/244 187/254/228 189/256/230
f 189/262/230 203/264/246 201/263/244
f 202/268/245 201/263/244 203/264/246 204/270/247
f 203/264/246 190/271/234 205/272/248
f 189/256/230 190/259/234 203/261/246
f 204/270/247 203/264/246 205/272/248 206/273/249
f 206/273/249 205/272/248 207/274/250 208/275/251
f 205/272/248 190/271/234 207/274/250
f 207/274/250 209/276/252 217/277/253 208/275/251
f 210/278/254 209/276/252 207/274/250
f 207/279/250 190/259/234 210/280/254
f 210/280/254 211/281/255 209/282/252
f 210/280/254 191/258/233 211/281/255
f 190/259/234 191/258/233 210/280/254
f 211/281/255 194/258/237 212/280/256
f 213/282/257 211/281/255 212/280/256
f 214/283/258 211/284/255 213/276/257
f 194/258/237 211/281/255 191/258/233
f 209/276/252 211/284/255 214/283/258
f 215/285/259 214/283/258 213/276/257 218/277/260
f 217/277/253 209/276/252 214/283/258 215/285/259
f 216/286/261 215/285/259 218/277/260 219/287/262
f 241/287/263 217/277/253 215/285/259 216/286/261
f 213/276/257 221/274/264 220/275/265 218/277/260
f 218/277/260 220/275/265 222/288/266 219/287/262
f 220/275/265 221/274/264 224/289/267 223/290/268
f 222/288/266 220/275/265 223/290/268 225/291/269
f 223/290/268 224/289/267 196/264/238 226/270/243
f 225/291/269 223/290/268 226/270/243 227/292/270
f 226/270/243 198/268/241 229/293/271 227/292/270
f 227/292/270 229/293/271 230/294/272 228/295/273
f 251/296/274 225/291/269 227/292/270 228/295/273
f 229/293/271 198/268/241 200/269/242 231/297/275
f 230/294/272 229/293/271 231/297/275 232/298/276
f 231/297/275 200/269/242 202/268/245 233/293/277
f 232/298/276 231/297/275 233/293/277 234/294/278
f 233/293/277 202/268/245 204/270/247 235/292/279
f 234/294/278 233/293/277 235/292/279 236/295/280
f 235/292/279 204/270/247 206/273/249 237/299/281
f 236/295/280 235/292/279 237/299/281 238/300/282
f 237/299/281 206/273/249 208/275/251 239/288/283
f 238/300/282 237/299/281 239/288/283 240/301/284
f 208/275/251 217/277/253 241/287/263 239/288/283
f 239/288/283 241/287/263 242/302/285 240/301/284
f 242/302/285 241/287/263 216/286/261 244/303/286
f 243/304/287 242/302/285 244/303/286
f 240/301/284 242/302/285 243/304/287
f 244/303/286 216/286/261 219/287/262 246/302/288
f 245/305/289 243/306/287 244/307/286
f 245/305/289 244/307/286 247/306/290
f 244/303/286 246/302/288 247/304/290
f 246/302/288 250/301/291 247/304/290
f 247/306/290 249/308/292 271/309/293 248/310/294
f 270/311/295 245/305/289 247/306/290 248/310/294
f 250/312/291 249/308/292 247/306/290
f 250/301/291 222/288/266 225/291/269 251/296/274
f 219/287/262 222/288/266 250/301/291 246/302/288
f 249/308/292 250/312/291 252/313/296
f 250/301/291 251/296/274 252/314/296
f 252/314/296 251/296/274 228/295/273
f 253/315/297 252/313/296 254/316/298 255/317/299
f 271/309/293 249/308/292 252/313/296 253/315/297
f 254/316/298 252/313/296 228/318/273
f 254/316/298 228/318/273 256/319/300
f 254/316/298 256/319/300 257/320/301 255/317/299
f 256/321/300 230/294/272 232/298/276
f 228/295/273 230/294/272 256/321/300
f 257/320/301 256/319/300 258/322/302 259/323/303
f 258/322/302 256/319/300 232/324/276
f 258/322/302 232/324/276 260/319/304
f 259/323/303 258/322/302 260/319/304 261/320/305
f 232/298/276 234/294/278 260/321/304
f 260/321/304 234/294/278 236/295/280
f 261/320/305 260/319/304 262/316/306 263/317/307
f 262/316/306 260/319/304 236/318/280
f 262/316/306 236/318/280 264/325/308
f 263/317/307 262/316/306 264/325/308 265/326/309
f 264/327/308 238/300/282 240/301/284
f 236/295/280 238/300/282 264/327/308
f 265/326/309 264/325/308 266/308/310 267/309/311
f 266/308/310 264/325/308 240/312/284
f 266/308/310 240/312/284 243/306/287
f 266/308/310 243/306/287 268/310/312 267/309/311
f 269/219/313 265/326/309 267/309/311
f 267/309/311 268/310/312 269/219/313
f 263/317/307 269/219/313 261/320/305
f 263/317/307 265/326/309 269/219/313
f 269/219/313 268/310/312 270/311/295
f 270/311/295 248/310/294 269/219/313
f 248/310/294 271/309/293 269/219/313
f 269/219/313 271/309/293 253/315/297
f 269/219/313 253/315/297 255/317/299
f 255/317/299 257/320/301 269/219/313
f 269/219/313 257/320/301 259/323/303
f 269/219/313 259/323/303 261/320/305
f 268/310/312 243/306/287 245/305/289 270/311/295
f 224/289/267 193/328/235 196/264/238
f 221/274/264 193/328/235 224/289/267
f 212/280/256 193/260/235 221/279/264
f 212/278/256 221/274/264 213/276/257
f 212/280/256 194/258/237 193/260/235
f 188/257/232 194/258/237 191/258/233
f 273/66/68 274/66/67 275/329/38 272/330/64
f 274/78/67 276/77/37 277/39/25 275/38/38
f 279/32/33 280/42/40 281/30/30 278/29/29
f 280/69/40 282/68/20 283/109/70 281/108/30
f 285/253/19 273/78/68 272/65/64 284/64/63
f 278/29/29 286/80/26 287/33/34 279/32/33
f 284/73/63 283/72/70 282/21/20 285/20/19
f 276/37/37 287/36/34 286/26/26 277/25/25
f 272/330/64 275/329/38 83/331/39 82/331/65
f 1/58/314 2/60/314 3/54/314 4/52/314 5/57/314 6/50/314 7/76/314 8/49/314
