# Blender 5.1.0
# www.blender.org
mtllib mushroom.mtl
o Blue_Mushroom
v 0.000000 -0.000000 -0.571183
v 0.000000 1.332762 -0.475987
v 0.494660 -0.000000 -0.285592
v 0.412215 1.332762 -0.237993
v 0.494660 0.000000 0.285592
v 0.412215 1.332762 0.237993
v 0.000000 0.000000 0.571183
v 0.000000 1.332762 0.475987
v -0.494660 0.000000 0.285592
v -0.412215 1.332762 0.237993
v -0.494660 -0.000000 -0.285592
v -0.412215 1.332762 -0.237993
v 0.000000 2.475128 -1.166168
v 1.009930 2.475128 -0.583083
v 1.009928 2.475128 0.583083
v 0.000000 2.475128 1.166165
v -1.009928 2.475128 0.583083
v -1.009928 2.475128 -0.583083
v 0.000000 2.760720 -0.000000
v 0.000000 1.332759 -1.336178
v 0.000000 1.599825 -1.549111
v 1.341569 1.599825 -0.774555
v 1.157165 1.332762 -0.668089
v 1.341569 1.599827 0.774555
v 1.157165 1.332762 0.668089
v 0.000000 1.599827 1.549110
v 0.000000 1.332762 1.336178
v -1.341569 1.599827 0.774555
v -1.157165 1.332762 0.668089
v -1.341569 1.599825 -0.774555
v -1.157165 1.332762 -0.668089
vn -0.0000 0.0712 -0.9975
vn -0.0000 -0.8208 -0.5712
vn 0.4947 -0.8208 -0.2856
vn 0.8638 0.0712 -0.4987
vn 0.4947 -0.8208 0.2856
vn 0.8638 0.0712 0.4987
vn -0.0000 -0.8208 0.5712
vn -0.0000 0.0712 0.9975
vn -0.4947 -0.8208 0.2856
vn -0.8638 0.0712 0.4987
vn -0.4947 -0.8208 -0.2856
vn -0.8638 0.0712 -0.4987
vn -0.8605 -0.1128 0.4968
vn -0.0000 -0.1128 0.9936
vn -0.0000 0.6997 0.7144
vn -0.6187 0.6997 0.3572
vn 0.8605 -0.1128 0.4968
vn 0.8605 -0.1128 -0.4968
vn 0.6187 0.6997 -0.3572
vn 0.6187 0.6997 0.3572
vn -0.0000 -0.1128 -0.9936
vn -0.8605 -0.1128 -0.4968
vn -0.6187 0.6997 -0.3572
vn -0.0000 0.6997 -0.7144
vn 0.4641 -0.8443 -0.2679
vn 0.4641 -0.8443 0.2679
vn -0.4641 -0.8443 0.2679
vn -0.4641 -0.8443 -0.2679
vn -0.0000 -0.8443 0.5358
vn -0.0000 -0.8443 -0.5358
vn -0.0000 1.0000 -0.0000
vt 0.010138 0.834687
vt 0.238469 0.842960
vt 0.238469 0.925688
vt 0.010138 0.933960
vt 0.253468 0.967052
vt 0.028137 0.983597
vt 0.028137 0.566227
vt 0.253468 0.582773
vt 0.238469 0.624137
vt 0.010138 0.615864
vt 0.238469 0.706865
vt 0.010138 0.715138
vt 0.253468 0.748229
vt 0.028137 0.764774
vt 0.028137 0.785050
vt 0.253468 0.801596
vt 0.535387 0.835633
vt 0.535387 0.567726
vt 0.696239 0.600840
vt 0.696239 0.802519
vt 0.841137 0.969586
vt 0.792080 0.835633
vt 0.952932 0.802519
vt 0.989862 0.903359
vt 0.792080 0.567726
vt 0.841137 0.433773
vt 0.989862 0.500000
vt 0.952932 0.600840
vt 0.584444 0.969586
vt 0.733169 0.903359
vt 0.584444 0.433773
vt 0.733169 0.500000
vt 0.243307 0.360363
vt 0.314952 0.319204
vt 0.444426 0.393586
vt 0.243307 0.509126
vt 0.243307 0.195727
vt 0.171663 0.236886
vt 0.042188 0.162504
vt 0.243307 0.046963
vt 0.171663 0.319204
vt 0.042188 0.393586
vt 0.314952 0.236886
vt 0.444426 0.162504
vt 0.496752 0.312657
vt 0.496752 0.110978
vt 0.672281 0.211817
vt 0.672281 0.010138
vt 0.847810 0.110978
vt 0.847810 0.312657
vt 0.672281 0.413497
vt 0.753445 0.817220
vt 0.753445 0.586138
vt 0.476476 0.411998
vt 0.243307 0.545951
vt 0.010138 0.411998
vt 0.496752 0.817220
vt 0.496752 0.586138
vt 0.010138 0.144091
vt 0.243307 0.010138
vt 0.476476 0.144091
s 1
usemtl Blue_Mushroom
f 1/1/1 2/2/2 4/3/3 3/4/4
f 3/4/4 4/3/3 6/5/5 5/6/6
f 5/7/6 6/8/5 8/9/7 7/10/8
f 7/10/8 8/9/7 10/11/9 9/12/10
f 9/12/10 10/11/9 12/13/11 11/14/12
f 11/15/12 12/16/11 2/2/2 1/1/1
f 28/17/13 26/18/14 16/19/15 17/20/16
f 24/21/17 22/22/18 14/23/19 15/24/20
f 21/25/21 30/26/22 18/27/23 13/28/24
f 30/29/22 28/17/13 17/20/16 18/30/23
f 26/18/14 24/31/17 15/32/20 16/19/15
f 6/33/5 4/34/3 23/35/25 25/36/26
f 12/37/11 10/38/9 29/39/27 31/40/28
f 8/41/7 6/33/5 25/36/26 27/42/29
f 4/34/3 2/43/2 20/44/30 23/35/25
f 2/43/2 12/37/11 31/40/28 20/44/30
f 10/38/9 8/41/7 27/42/29 29/39/27
f 14/45/19 13/46/24 19/47/31
f 13/46/24 18/48/23 19/47/31
f 17/49/16 16/50/15 19/47/31
f 15/51/20 14/45/19 19/47/31
f 18/48/23 17/49/16 19/47/31
f 16/50/15 15/51/20 19/47/31
f 21/25/21 22/22/18 23/52/25 20/53/30
f 22/54/18 24/55/17 25/36/26 23/35/25
f 24/55/17 26/56/14 27/42/29 25/36/26
f 26/18/14 28/17/13 29/57/27 27/58/29
f 28/59/13 30/60/22 31/40/28 29/39/27
f 30/60/22 21/61/21 20/44/30 31/40/28
f 22/22/18 21/25/21 13/28/24 14/23/19
