# Blender 5.1.0
# www.blender.org
mtllib PillarBig.mtl
o Pillar
v -2.818856 17.097670 2.588056
v -2.846595 17.321119 2.849614
v -3.103645 17.321119 2.613542
v 3.101945 17.321119 2.613542
v 2.844889 17.321119 2.849614
v 2.817146 17.097670 2.588056
v -3.966457 22.392097 3.387306
v -3.689111 22.392097 3.642023
v -3.720569 22.633186 3.416199
v 3.718863 22.633186 3.416199
v 3.687411 22.392097 3.642023
v 3.964751 22.392097 3.387306
v -3.966457 22.392097 -3.387316
v -3.720569 22.633186 -3.416210
v -3.689111 22.392097 -3.642033
v 3.687411 22.392097 -3.642033
v 3.718863 22.633186 -3.416210
v 3.964751 22.392097 -3.387316
v -3.103645 17.321119 -2.613540
v -2.846595 17.321119 -2.849623
v -2.818856 17.097670 -2.588062
v 2.817146 17.097670 -2.588062
v 2.844889 17.321119 -2.849623
v 3.101945 17.321119 -2.613540
v -5.871086 -0.194031 5.264536
v -5.733108 -0.194031 5.391248
v -5.733108 -0.071376 5.264536
v 5.731402 -0.071376 5.264536
v 5.731402 -0.194031 5.391248
v 5.869372 -0.194031 5.264536
v -5.871086 -0.194033 -5.264525
v -5.733108 -0.071378 -5.264525
v -5.733108 -0.194033 -5.391242
v 5.731402 -0.194033 -5.391242
v 5.731402 -0.071378 -5.264525
v 5.869372 -0.194033 -5.264525
v -5.733108 -1.298064 5.391248
v -5.871086 -1.298064 5.264536
v 5.869372 -1.298064 5.264536
v 5.731402 -1.298064 5.391248
v -5.871086 -1.298066 -5.264525
v -5.733108 -1.298066 -5.391242
v 5.731402 -1.298066 -5.391242
v 5.869372 -1.298066 -5.264525
v -4.920314 4.178465 4.292591
v -4.674819 4.178465 4.518044
v -4.674819 4.402125 4.292591
v 4.673096 4.402125 4.292591
v 4.673096 4.178465 4.518044
v 4.918608 4.178465 4.292591
v -4.920314 4.178463 -4.292593
v -4.674819 4.402120 -4.292593
v -4.674819 4.178463 -4.518049
v 4.673096 4.178463 -4.518049
v 4.673096 4.402120 -4.292593
v 4.918608 4.178463 -4.292593
v -4.674819 -0.071383 4.518049
v -4.920314 -0.071383 4.292592
v 4.918608 -0.071383 4.292592
v 4.673096 -0.071383 4.518049
v -4.920314 -0.071385 -4.292592
v -4.674819 -0.071385 -4.518049
v 4.673096 -0.071385 -4.518049
v 4.918608 -0.071385 -4.292592
v -3.933713 25.073404 4.013216
v -4.370646 25.073404 3.611930
v -5.179510 32.326614 4.354816
v -4.742597 32.326614 4.756103
v 4.368923 25.073404 3.611930
v 3.931990 25.073404 4.013216
v 4.740864 32.326614 4.756103
v 5.177797 32.326614 4.354816
v -4.742597 32.326614 -4.756115
v -5.179510 32.326614 -4.354829
v -4.370646 25.073404 -3.611942
v -3.933713 25.073404 -4.013228
v 5.177797 32.326614 -4.354829
v 4.740864 32.326614 -4.756115
v 3.931990 25.073404 -4.013228
v 4.368923 25.073404 -3.611942
v -4.737627 22.362072 4.350279
v -4.737627 22.633181 4.630370
v -5.042605 22.633181 4.350279
v 5.040906 22.633181 4.350279
v 4.735928 22.633181 4.630370
v 4.735928 22.362072 4.350279
v -5.042605 24.802296 4.350278
v -4.737627 24.802296 4.630370
v -4.737627 25.073404 4.350278
v 4.735928 25.073404 4.350278
v 4.735928 24.802296 4.630370
v 5.040906 24.802296 4.350278
v -5.042605 24.802296 -4.350289
v -4.737627 25.073404 -4.350289
v -4.737627 24.802296 -4.630381
v 4.735928 24.802296 -4.630381
v 4.735928 25.073404 -4.350289
v 5.040906 24.802296 -4.350289
v -5.042605 22.633181 -4.350289
v -4.737627 22.633181 -4.630381
v -4.737627 22.362072 -4.350289
v 4.735928 22.362072 -4.350289
v 4.735928 22.633181 -4.630381
v 5.040906 22.633181 -4.350289
v -3.925123 4.402108 3.604067
v -3.881196 4.562086 3.744492
v -4.078033 4.562086 3.563723
v 4.076382 4.562086 3.563723
v 3.879554 4.562086 3.744492
v 3.923473 4.402108 3.604067
v -3.881196 4.562084 -3.744493
v -3.925123 4.402106 -3.604062
v -4.078033 4.562084 -3.563724
v 4.076382 4.562084 -3.563724
v 3.923473 4.402106 -3.604062
v 3.879554 4.562084 -3.744493
v -2.530072 8.518414 2.322875
v -2.731878 8.381989 2.354078
v -2.564024 8.381989 2.508230
v 2.528431 8.518414 2.322875
v 2.562382 8.381989 2.508230
v 2.730253 8.381989 2.354078
v 2.730253 8.381989 -2.354077
v 2.562382 8.381989 -2.508233
v 2.528431 8.518414 -2.322878
v -2.530072 8.518414 -2.322878
v -2.564024 8.381989 -2.508233
v -2.731878 8.381989 -2.354077
v -2.415548 8.518414 2.217695
v -2.423576 8.758948 2.473969
v -2.694592 8.758948 2.225070
v -3.057088 16.852285 2.552964
v -2.780614 16.852285 2.806871
v -2.788909 17.097670 2.560582
v 2.692934 8.758948 2.225070
v 2.421917 8.758948 2.473969
v 2.413888 8.518414 2.217695
v 2.787233 17.097670 2.560582
v 2.778942 16.852285 2.806871
v 3.055413 16.852285 2.552964
v -2.694602 8.758948 -2.225066
v -2.423586 8.758948 -2.473976
v -2.415554 8.518414 -2.217700
v -2.788916 17.097670 -2.560584
v -2.780624 16.852285 -2.806880
v -3.057088 16.852285 -2.552967
v 2.413888 8.518414 -2.217700
v 2.421917 8.758948 -2.473976
v 2.692934 8.758948 -2.225066
v 3.055413 16.852285 -2.552967
v 2.778942 16.852285 -2.806880
v 2.787233 17.097670 -2.560584
v -5.850469 32.317162 5.372296
v -5.850469 32.588261 5.652380
v -6.155437 32.588261 5.372296
v 6.153730 32.588261 5.372296
v 5.848753 32.588261 5.652380
v 5.848753 32.317162 5.372296
v -6.155437 34.757385 5.372295
v -5.850469 34.757385 5.652380
v -5.850469 35.028481 5.372295
v 5.848753 35.028481 5.372295
v 5.848753 34.757385 5.652380
v 6.153730 34.757385 5.372295
v -6.155437 34.757385 -5.372306
v -5.850469 35.028481 -5.372306
v -5.850469 34.757385 -5.652398
v 5.848753 34.757385 -5.652398
v 5.848753 35.028481 -5.372306
v 6.153730 34.757385 -5.372306
v -6.155437 32.588261 -5.372306
v -5.850469 32.588261 -5.652397
v -5.850469 32.317162 -5.372306
v 5.848753 32.317162 -5.372306
v 5.848753 32.588261 -5.652397
v 6.153730 32.588261 -5.372306
v 7.302422 35.546360 -2.016037
v 7.312277 31.492271 -0.737854
v 7.312277 31.492271 0.737837
v 7.302422 35.546360 2.016020
v 6.443408 35.208717 -1.537815
v 6.486761 31.831047 -0.481760
v 6.486761 31.831047 0.481747
v 6.443408 35.208717 1.537797
v 4.122218 36.197586 -2.969838
v 4.123549 36.104187 -3.042127
v 4.014802 36.108051 -2.953323
v 7.238779 36.105904 -2.871780
v 7.229869 36.197586 -2.790714
v 7.340454 36.126919 -2.769933
v 4.014802 30.733995 -1.429911
v 4.109189 30.726109 -1.520297
v 4.108522 30.645149 -1.411252
v 7.250223 30.645149 -1.325399
v 7.243679 30.732473 -1.436005
v 7.341400 30.740711 -1.360717
v 4.014802 30.733995 1.429894
v 4.108522 30.645149 1.411240
v 4.109189 30.726109 1.520284
v 7.243679 30.732473 1.435981
v 7.250223 30.645149 1.325377
v 7.341400 30.740711 1.360700
v 4.014802 36.108051 2.953305
v 4.123549 36.104187 3.042110
v 4.122218 36.197586 2.969820
v 7.229869 36.197586 2.790707
v 7.238779 36.105904 2.871763
v 7.340454 36.126919 2.769915
v 5.853370 0.480014 1.887173
v 5.868219 4.454662 0.724180
v 5.868219 4.454662 -0.724182
v 5.853370 0.480013 -1.887166
v 4.962209 0.815402 1.420195
v 5.019398 4.053932 0.472582
v 5.019398 4.053932 -0.472584
v 4.962209 0.815402 -1.420189
v 3.591326 -0.071383 2.515288
v 3.591557 0.149083 2.693761
v 5.624760 0.131960 2.553492
v 5.619423 -0.071383 2.383363
v 5.862256 0.124766 2.329384
v 3.597143 5.198861 1.386472
v 3.597348 5.370925 1.158559
v 5.655208 5.316644 1.076134
v 5.656026 5.135684 1.313667
v 5.871519 5.116417 1.102791
v 3.597348 5.370925 -1.158564
v 3.597143 5.198861 -1.386467
v 5.656026 5.135684 -1.313669
v 5.655208 5.316644 -1.076136
v 5.871519 5.116417 -1.102792
v 3.591557 0.149083 -2.693761
v 3.591326 -0.071384 -2.515288
v 5.619423 -0.071384 -2.383363
v 5.624760 0.131959 -2.553492
v 5.862256 0.124765 -2.329375
vn -0.6168 -0.7871 0.0091
vn -0.9778 -0.2063 0.0378
vn -0.9778 -0.2063 -0.0378
vn -0.6168 -0.7871 -0.0093
vn -0.0000 -0.1859 0.9826
vn -0.0000 -0.7603 0.6495
vn -0.6577 -0.2313 0.7169
vn -0.6614 -0.2097 0.7201
vn -0.9931 -0.1082 0.0446
vn 0.9778 -0.2063 0.0378
vn 0.6167 -0.7871 0.0093
vn 0.6167 -0.7871 -0.0091
vn 0.9778 -0.2063 -0.0378
vn 0.6581 -0.2313 0.7165
vn 0.9931 -0.1082 0.0446
vn 0.6619 -0.2097 0.7197
vn -0.7007 0.7134 0.0109
vn -0.7007 0.7134 -0.0107
vn -0.9931 -0.1082 -0.0446
vn -0.0000 0.6836 0.7298
vn -0.0000 -0.0914 0.9958
vn 0.7007 0.7134 0.0107
vn 0.9931 -0.1082 -0.0446
vn 0.7007 0.7134 -0.0109
vn -0.6619 -0.2097 -0.7197
vn -0.6581 -0.2314 -0.7165
vn -0.0000 -0.0914 -0.9958
vn -0.0000 0.6836 -0.7298
vn 0.6614 -0.2097 -0.7201
vn 0.6577 -0.2313 -0.7169
vn -0.0000 -0.7603 -0.6495
vn -0.0000 -0.1859 -0.9826
vn 0.6168 -0.7871 -0.0091
vn -0.6644 0.7474 0.0030
vn -0.0105 0.9999 0.0114
vn -0.0105 0.9999 -0.0114
vn -0.6644 0.7474 -0.0030
vn -0.6764 -0.0000 0.7365
vn -0.9999 -0.0000 0.0130
vn -0.0026 0.7185 0.6955
vn 0.0028 0.7185 0.6955
vn 0.0105 0.9999 0.0114
vn 0.6644 0.7474 0.0030
vn 0.6644 0.7474 -0.0030
vn 0.0105 0.9999 -0.0115
vn 0.9999 -0.0002 0.0131
vn 0.6764 -0.0000 0.7365
vn 0.9999 -0.0000 0.0131
vn -0.9999 -0.0002 -0.0130
vn -0.6764 -0.0000 -0.7365
vn -0.9999 -0.0000 -0.0130
vn -0.0026 0.7185 -0.6955
vn 0.0028 0.7185 -0.6955
vn 0.6764 -0.0000 -0.7365
vn 0.9999 -0.0000 -0.0130
vn 0.9999 0.0001 -0.0130
vn -0.0000 -0.0000 1.0000
vn -0.0000 -0.0000 -1.0000
vn -0.6735 0.7392 0.0066
vn -0.0229 0.9994 0.0251
vn -0.0229 0.9994 -0.0249
vn -0.6735 0.7392 -0.0066
vn -0.9996 -0.0000 0.0279
vn -0.9996 0.0002 0.0279
vn -0.0057 0.7099 0.7043
vn 0.0059 0.7099 0.7043
vn 0.0229 0.9994 0.0249
vn 0.6734 0.7392 0.0066
vn 0.6734 0.7392 -0.0064
vn 0.0229 0.9994 -0.0249
vn 0.9996 -0.0002 0.0280
vn 0.6764 -0.0000 0.7366
vn 0.9996 -0.0000 0.0280
vn -0.9996 -0.0001 -0.0279
vn -0.9996 -0.0000 -0.0279
vn -0.0058 0.7099 -0.7043
vn 0.0059 0.7099 -0.7043
vn 0.9996 -0.0000 -0.0280
vn -0.0000 -0.1019 0.9948
vn -0.0000 -0.1019 -0.9948
vn 0.9917 -0.1161 0.0552
vn 0.9921 -0.1156 0.0490
vn 0.9921 -0.1156 -0.0490
vn 0.9917 -0.1162 -0.0551
vn -0.9917 -0.1162 -0.0551
vn -0.9921 -0.1156 -0.0490
vn -0.9921 -0.1156 0.0490
vn -0.9917 -0.1162 0.0551
vn -0.6689 -0.1492 0.7283
vn 0.6689 -0.1492 0.7283
vn -0.6689 -0.1492 -0.7283
vn 0.6689 -0.1492 -0.7283
vn -0.0271 -0.9992 0.0296
vn -0.6644 -0.7474 0.0077
vn -0.6644 -0.7474 -0.0077
vn -0.0271 -0.9992 -0.0296
vn -0.0070 -0.7185 0.6955
vn 0.0272 -0.9992 0.0295
vn 0.0070 -0.7185 0.6955
vn -0.9994 -0.0000 0.0340
vn 0.6644 -0.7474 0.0077
vn 0.0271 -0.9992 -0.0296
vn 0.6644 -0.7474 -0.0077
vn 0.9994 -0.0000 0.0340
vn -0.6644 0.7474 0.0077
vn -0.0271 0.9992 0.0296
vn -0.0271 0.9992 -0.0296
vn -0.6644 0.7474 -0.0077
vn -0.0070 0.7185 0.6955
vn 0.0070 0.7185 0.6955
vn 0.0272 0.9992 0.0295
vn 0.6644 0.7474 0.0077
vn 0.6644 0.7474 -0.0077
vn 0.0271 0.9992 -0.0296
vn -0.9994 -0.0001 -0.0340
vn -0.9994 -0.0000 -0.0340
vn -0.0070 0.7185 -0.6955
vn 0.0070 0.7185 -0.6955
vn 0.9994 -0.0000 -0.0340
vn -0.0070 -0.7185 -0.6955
vn 0.0070 -0.7185 -0.6955
vn -0.7240 -0.6898 0.0088
vn -0.9623 0.2701 0.0332
vn -0.9622 0.2702 -0.0333
vn -0.7240 -0.6898 -0.0088
vn -0.0000 0.2388 0.9711
vn -0.0000 -0.6597 0.7515
vn -0.6158 0.4170 0.6686
vn -0.6099 0.4325 0.6641
vn -0.9332 0.3586 0.0236
vn 0.9623 0.2701 0.0332
vn 0.7240 -0.6897 0.0088
vn 0.7240 -0.6898 -0.0088
vn 0.9622 0.2702 -0.0333
vn 0.6148 0.4170 0.6694
vn 0.9332 0.3586 0.0236
vn 0.6094 0.4323 0.6646
vn -0.6148 0.4170 -0.6694
vn -0.9332 0.3586 -0.0236
vn -0.6094 0.4324 -0.6646
vn -0.0000 -0.6597 -0.7515
vn -0.0000 0.2388 -0.9711
vn 0.6157 0.4171 -0.6685
vn 0.6099 0.4324 -0.6641
vn 0.9332 0.3586 -0.0236
vn -0.0000 0.8054 0.5928
vn -0.0000 0.3269 0.9450
vn -0.5594 0.8289 0.0059
vn -0.5595 0.8288 -0.0056
vn 0.5594 0.8289 0.0056
vn 0.5594 0.8289 -0.0057
vn -0.0000 0.8054 -0.5928
vn -0.0000 0.3269 -0.9450
vn -0.7240 -0.6898 0.0085
vn 0.7240 -0.6898 -0.0086
vn -0.6527 -0.7575 0.0127
vn -0.9958 -0.0746 0.0522
vn -0.9958 -0.0747 -0.0522
vn -0.6527 -0.7575 -0.0127
vn -0.0000 -0.0676 0.9977
vn -0.0000 -0.7291 0.6844
vn -0.6757 -0.0674 0.7341
vn -0.6755 -0.0522 0.7355
vn -0.9985 -0.0111 0.0543
vn -0.6752 0.7375 0.0124
vn -0.6752 0.7375 -0.0123
vn -0.9985 -0.0112 -0.0544
vn -0.0000 0.7084 0.7058
vn -0.0000 -0.0069 1.0000
vn 0.9958 -0.0746 0.0522
vn 0.6527 -0.7576 0.0127
vn 0.6527 -0.7575 -0.0127
vn 0.9958 -0.0746 -0.0521
vn 0.6749 -0.0674 0.7349
vn 0.9985 -0.0112 0.0544
vn 0.6746 -0.0522 0.7364
vn 0.6752 0.7375 0.0123
vn 0.9985 -0.0112 -0.0544
vn 0.6752 0.7375 -0.0124
vn -0.6749 -0.0674 -0.7348
vn -0.6746 -0.0522 -0.7363
vn -0.0000 -0.7291 -0.6844
vn -0.0000 -0.0676 -0.9977
vn -0.0000 -0.0070 -1.0000
vn -0.0000 0.7084 -0.7058
vn 0.6757 -0.0674 -0.7341
vn 0.6755 -0.0522 -0.7355
vn -0.6526 -0.7576 0.0126
vn -0.6752 0.7376 -0.0123
vn 0.6526 -0.7576 -0.0126
vn -0.0222 -0.9995 0.0242
vn -0.6644 -0.7474 0.0065
vn -0.6644 -0.7474 -0.0064
vn -0.0222 -0.9995 -0.0242
vn -0.0056 -0.7185 0.6955
vn 0.0222 -0.9995 0.0242
vn 0.0056 -0.7185 0.6955
vn -0.9996 -0.0000 0.0278
vn 0.6644 -0.7474 0.0065
vn 0.0222 -0.9995 -0.0242
vn 0.6644 -0.7474 -0.0065
vn 0.9996 -0.0000 0.0277
vn -0.6644 0.7474 0.0065
vn -0.0222 0.9995 0.0242
vn -0.0222 0.9995 -0.0242
vn -0.6644 0.7474 -0.0064
vn -0.0056 0.7185 0.6955
vn 0.0056 0.7185 0.6955
vn 0.0222 0.9995 0.0241
vn 0.6644 0.7474 0.0065
vn 0.6644 0.7474 -0.0063
vn 0.0222 0.9995 -0.0242
vn -0.9996 -0.0002 -0.0278
vn -0.9996 -0.0000 -0.0278
vn -0.0056 0.7185 -0.6955
vn 0.0056 0.7185 -0.6955
vn 0.9996 -0.0000 -0.0277
vn 0.9996 0.0002 -0.0277
vn -0.0056 -0.7185 -0.6955
vn 0.0056 -0.7185 -0.6955
vn 0.3839 0.2792 0.8802
vn 0.8768 -0.2618 0.4034
vn 0.9151 0.2231 0.3359
vn 0.3797 0.9251 -0.0000
vn 0.9151 0.2231 -0.3359
vn 0.3839 0.2792 -0.8802
vn 0.8768 -0.2618 -0.4034
vn 0.3658 -0.9307 -0.0000
vn -0.6407 0.7678 -0.0046
vn -0.9993 0.0251 -0.0291
vn -0.9993 0.0251 0.0290
vn -0.6407 0.7678 0.0046
vn 0.0430 0.6388 -0.7681
vn 0.0010 0.9999 -0.0168
vn 0.0008 0.9999 -0.0155
vn -0.6545 -0.1999 -0.7291
vn -0.6540 -0.2083 -0.7273
vn -0.9997 -0.0137 -0.0178
vn 0.6678 -0.1851 -0.7209
vn 0.9818 0.1337 -0.1347
vn 0.9903 -0.0771 -0.1159
vn 0.6669 -0.1934 -0.7196
vn 0.5393 0.8421 -0.0056
vn 0.5392 0.8421 0.0055
vn 0.9818 0.1337 0.1348
vn -0.6873 -0.7263 -0.0059
vn -0.6873 -0.7263 0.0059
vn -0.9997 -0.0137 0.0179
vn 0.0009 -0.9995 -0.0305
vn 0.0173 -0.7935 -0.6084
vn 0.0008 -0.9996 -0.0279
vn 0.7224 -0.6914 -0.0059
vn 0.9903 -0.0772 0.1158
vn 0.7224 -0.6914 0.0057
vn -0.6540 -0.2084 0.7273
vn -0.6545 -0.1999 0.7291
vn 0.0173 -0.7935 0.6084
vn 0.0009 -0.9995 0.0305
vn 0.0008 -0.9996 0.0279
vn 0.6669 -0.1936 0.7196
vn 0.6678 -0.1851 0.7209
vn 0.0010 0.9999 0.0168
vn 0.0430 0.6388 0.7682
vn 0.0009 0.9999 0.0155
vn 0.0396 -0.2651 -0.9634
vn 0.0396 -0.2651 0.9634
vn 0.9994 -0.0211 0.0260
vn 0.9992 0.0224 0.0316
vn 0.9992 0.0224 -0.0316
vn 0.9994 -0.0211 -0.0260
vn 0.3766 -0.2636 -0.8881
vn 0.8637 0.2689 -0.4263
vn 0.8979 -0.2363 -0.3714
vn 0.4269 -0.9043 -0.0000
vn 0.8979 -0.2363 0.3714
vn 0.3766 -0.2636 0.8881
vn 0.8637 0.2689 0.4263
vn 0.3522 0.9359 -0.0000
vn 0.0490 -0.6349 0.7711
vn 0.0028 -0.9990 0.0450
vn 0.0025 -0.9992 0.0394
vn 0.6887 0.1591 0.7074
vn 0.9213 -0.2401 0.3057
vn 0.9301 0.2042 0.3053
vn 0.6871 0.1790 0.7042
vn 0.6301 -0.7764 0.0133
vn 0.6301 -0.7764 -0.0133
vn 0.9213 -0.2401 -0.3057
vn 0.0293 0.9968 0.0740
vn 0.0455 0.7960 0.6036
vn 0.0291 0.9972 0.0692
vn 0.6780 0.7348 0.0181
vn 0.9301 0.2042 -0.3053
vn 0.6780 0.7348 -0.0181
vn 0.0455 0.7959 -0.6037
vn 0.0293 0.9968 -0.0740
vn 0.0291 0.9972 -0.0692
vn 0.6871 0.1790 -0.7042
vn 0.6887 0.1591 -0.7074
vn 0.0028 -0.9990 -0.0450
vn 0.0490 -0.6349 -0.7711
vn 0.0025 -0.9992 -0.0394
vn 0.0552 0.2450 0.9679
vn 0.0552 0.2450 -0.9679
vn 0.9999 0.0069 -0.0073
vn 0.9999 -0.0057 -0.0082
vn 0.9999 -0.0057 0.0082
vn 0.9999 0.0069 0.0073
vt 0.704420 0.810186
vt 0.709235 0.809654
vt 0.709235 0.918675
vt 0.704420 0.918143
vt 0.331415 0.871774
vt 0.326601 0.871242
vt 0.326601 0.763285
vt 0.331415 0.762753
vt 0.709235 0.804730
vt 0.818504 0.788203
vt 0.818504 0.793516
vt 0.583931 0.912123
vt 0.579116 0.911592
vt 0.579116 0.803634
vt 0.583931 0.803103
vt 0.583931 0.917047
vt 0.693200 0.928262
vt 0.693200 0.933575
vt 0.823700 0.792913
vt 0.823700 0.935416
vt 0.818504 0.934813
vt 0.445880 0.888515
vt 0.440685 0.887912
vt 0.440685 0.746615
vt 0.445880 0.746012
vt 0.698395 0.928864
vt 0.693200 0.786965
vt 0.698395 0.786362
vt 0.818504 0.940126
vt 0.709235 0.923599
vt 0.458567 0.908014
vt 0.453372 0.908616
vt 0.453372 0.766114
vt 0.458567 0.766717
vt 0.693200 0.781652
vt 0.583931 0.798179
vt 0.572651 0.891344
vt 0.567837 0.891875
vt 0.567837 0.782855
vt 0.572652 0.783386
vt 0.635069 0.003989
vt 0.637271 0.003989
vt 0.637271 0.223592
vt 0.635069 0.223592
vt 0.630171 0.001346
vt 0.630171 0.003989
vt 0.606382 0.003989
vt 0.606382 0.001346
vt 0.635950 0.001346
vt 0.857315 0.001346
vt 0.855993 0.003989
vt 0.858196 0.003989
vt 0.858196 0.223592
vt 0.855993 0.223592
vt 0.887149 0.223592
vt 0.887149 0.226235
vt 0.863359 0.226235
vt 0.863359 0.223592
vt 0.630171 0.223592
vt 0.630171 0.226235
vt 0.606382 0.226235
vt 0.606382 0.223592
vt 0.635950 0.226235
vt 0.857315 0.226235
vt 0.887149 0.001346
vt 0.887149 0.003989
vt 0.863359 0.003989
vt 0.863359 0.001346
vt 0.916041 0.223672
vt 0.892251 0.223672
vt 0.892251 0.004069
vt 0.916041 0.004069
vt 0.921842 0.224131
vt 0.921842 0.004528
vt 0.945631 0.004528
vt 0.945631 0.224131
vt 0.384215 0.185539
vt 0.380199 0.185539
vt 0.380199 0.006479
vt 0.384215 0.006479
vt 0.093840 0.001873
vt 0.093840 0.006576
vt 0.002264 0.006576
vt 0.002264 0.001873
vt 0.382609 0.190241
vt 0.200337 0.190241
vt 0.202746 0.185539
vt 0.198730 0.185539
vt 0.198730 0.006479
vt 0.202746 0.006479
vt 0.192609 0.186557
vt 0.192609 0.191259
vt 0.101033 0.191259
vt 0.101033 0.186557
vt 0.093840 0.185635
vt 0.093840 0.190338
vt 0.002264 0.190338
vt 0.002264 0.185635
vt 0.382609 0.001777
vt 0.200337 0.001776
vt 0.192609 0.002795
vt 0.192609 0.007497
vt 0.101033 0.007497
vt 0.101033 0.002795
vt 0.580336 0.181244
vt 0.488760 0.181244
vt 0.488760 0.002185
vt 0.580336 0.002185
vt 0.390867 0.182249
vt 0.390867 0.003189
vt 0.482443 0.003189
vt 0.482443 0.182249
vt 0.980091 0.761361
vt 0.823799 0.745867
vt 0.823799 0.595200
vt 0.980091 0.579705
vt 0.986098 0.919329
vt 0.829806 0.934823
vt 0.829806 0.753168
vt 0.986098 0.768662
vt 0.653746 0.774307
vt 0.497453 0.758813
vt 0.497453 0.608145
vt 0.653746 0.592651
vt 0.816566 0.775061
vt 0.660274 0.759566
vt 0.660274 0.608899
vt 0.816566 0.593405
vt 0.660274 0.600530
vt 0.816566 0.585035
vt 0.497453 0.767182
vt 0.653746 0.782676
vt 0.816566 0.783430
vt 0.660274 0.767936
vt 0.653746 0.584281
vt 0.497453 0.599776
vt 0.006452 0.383725
vt 0.001584 0.383725
vt 0.001584 0.202258
vt 0.006452 0.202258
vt 0.003531 0.389566
vt 0.185971 0.383725
vt 0.188892 0.389566
vt 0.445744 0.200825
vt 0.445744 0.194984
vt 0.492484 0.194984
vt 0.492484 0.200825
vt 0.190839 0.383725
vt 0.185971 0.202258
vt 0.190839 0.202258
vt 0.197317 0.389837
vt 0.197317 0.383995
vt 0.244057 0.383995
vt 0.244057 0.389837
vt 0.439790 0.383293
vt 0.434922 0.383293
vt 0.434922 0.201827
vt 0.439790 0.201827
vt 0.437843 0.389135
vt 0.252483 0.389135
vt 0.255403 0.383293
vt 0.250535 0.383293
vt 0.250535 0.201827
vt 0.255403 0.201827
vt 0.492484 0.382292
vt 0.492484 0.388134
vt 0.445744 0.388134
vt 0.445744 0.382292
vt 0.437843 0.195985
vt 0.252482 0.195985
vt 0.244057 0.196687
vt 0.244057 0.202529
vt 0.197317 0.202529
vt 0.197317 0.196687
vt 0.003531 0.196416
vt 0.188892 0.196416
vt 0.551516 0.377996
vt 0.551516 0.196530
vt 0.598256 0.196530
vt 0.598256 0.377996
vt 0.498698 0.378392
vt 0.498698 0.196926
vt 0.545439 0.196926
vt 0.545439 0.378392
vt 0.895354 0.235656
vt 0.898801 0.236497
vt 0.898801 0.385153
vt 0.895354 0.385994
vt 0.708236 0.384839
vt 0.704789 0.385681
vt 0.704789 0.235341
vt 0.708236 0.236182
vt 0.898801 0.232727
vt 0.981587 0.258326
vt 0.980815 0.262072
vt 0.803792 0.385153
vt 0.800345 0.385995
vt 0.800345 0.235656
vt 0.803792 0.236497
vt 0.803792 0.388923
vt 0.885810 0.359574
vt 0.886569 0.363325
vt 0.898801 0.388923
vt 0.980807 0.359586
vt 0.981605 0.363323
vt 0.698504 0.386035
vt 0.695057 0.385194
vt 0.695057 0.236537
vt 0.698504 0.235695
vt 0.803792 0.232727
vt 0.886578 0.258326
vt 0.885806 0.262072
vt 0.794413 0.358958
vt 0.790547 0.359609
vt 0.790547 0.261412
vt 0.794414 0.262063
vt 0.984173 0.261871
vt 0.984171 0.359764
vt 0.889165 0.359787
vt 0.889164 0.261871
vt 0.608880 0.262417
vt 0.612746 0.261767
vt 0.612746 0.359963
vt 0.608880 0.359313
vt 0.601243 0.389572
vt 0.601397 0.394755
vt 0.508581 0.394755
vt 0.508734 0.389572
vt 0.626135 0.397953
vt 0.626288 0.392770
vt 0.718796 0.392770
vt 0.718950 0.397953
vt 0.606588 0.394755
vt 0.613531 0.569150
vt 0.608235 0.569150
vt 0.608394 0.574437
vt 0.501583 0.574437
vt 0.501742 0.569150
vt 0.619137 0.577636
vt 0.619296 0.572348
vt 0.725789 0.572348
vt 0.725948 0.577636
vt 0.744723 0.399552
vt 0.744876 0.394369
vt 0.837385 0.394369
vt 0.837538 0.399552
vt 0.739532 0.399552
vt 0.737884 0.573947
vt 0.732588 0.573947
vt 0.737725 0.579235
vt 0.844377 0.573947
vt 0.844536 0.579235
vt 0.503389 0.394755
vt 0.496446 0.569150
vt 0.856787 0.578415
vt 0.856633 0.573232
vt 0.949448 0.573232
vt 0.949295 0.578415
vt 0.849794 0.398836
vt 0.849635 0.393549
vt 0.956446 0.393549
vt 0.956287 0.398836
vt 0.842730 0.399552
vt 0.849673 0.573947
vt 0.251363 0.680418
vt 0.245111 0.680418
vt 0.245111 0.456320
vt 0.251363 0.456320
vt 0.251363 0.686260
vt 0.483078 0.680418
vt 0.483078 0.686260
vt 0.010157 0.740405
vt 0.002047 0.740405
vt 0.002047 0.694523
vt 0.010157 0.694523
vt 0.490208 0.680418
vt 0.483078 0.456320
vt 0.490208 0.456320
vt 0.001946 0.397828
vt 0.008549 0.397828
vt 0.008549 0.442791
vt 0.001946 0.442791
vt 0.009183 0.687725
vt 0.008188 0.679466
vt 0.232410 0.679466
vt 0.233282 0.687725
vt 0.002408 0.679466
vt 0.002409 0.456066
vt 0.008126 0.456066
vt 0.008126 0.449174
vt 0.232472 0.449174
vt 0.232472 0.456066
vt 0.230140 0.694523
vt 0.238249 0.694523
vt 0.238249 0.740405
vt 0.230140 0.740405
vt 0.238191 0.679466
vt 0.238191 0.456066
vt 0.237728 0.442791
vt 0.231131 0.442791
vt 0.231131 0.397828
vt 0.237728 0.397828
vt 0.251363 0.450478
vt 0.483078 0.450478
vt 0.244856 0.692808
vt 0.468955 0.692808
vt 0.468955 0.739548
vt 0.244856 0.739548
vt 0.245147 0.396505
vt 0.469245 0.396505
vt 0.469245 0.443245
vt 0.245147 0.443245
vt 0.074324 0.815521
vt 0.100402 0.898895
vt 0.082835 0.897940
vt 0.061123 0.826197
vt 0.035531 0.809864
vt 0.066309 0.809866
vt 0.040714 0.826197
vt 0.001436 0.898895
vt 0.027512 0.815521
vt 0.019002 0.897941
vt 0.092967 0.914913
vt 0.008871 0.914916
vt 0.172042 0.930095
vt 0.172386 0.928166
vt 0.295580 0.928166
vt 0.295924 0.930095
vt 0.123135 0.745062
vt 0.124643 0.745036
vt 0.128379 0.804563
vt 0.126688 0.804734
vt 0.170534 0.928082
vt 0.202275 0.812196
vt 0.204160 0.812366
vt 0.304330 0.991412
vt 0.303877 0.989288
vt 0.419940 0.959896
vt 0.420117 0.961466
vt 0.302355 0.989721
vt 0.302355 0.873310
vt 0.303878 0.873744
vt 0.204549 0.810451
vt 0.263417 0.810451
vt 0.263806 0.812366
vt 0.256287 0.805466
vt 0.254013 0.805453
vt 0.255771 0.745412
vt 0.258078 0.745286
vt 0.421999 0.959159
vt 0.419940 0.903136
vt 0.421999 0.903872
vt 0.265691 0.812196
vt 0.297432 0.928082
vt 0.317430 0.805453
vt 0.315156 0.805466
vt 0.313365 0.745286
vt 0.315672 0.745412
vt 0.420117 0.901565
vt 0.304330 0.871620
vt 0.248525 0.745036
vt 0.250033 0.745062
vt 0.246480 0.804734
vt 0.244790 0.804563
vt 0.117574 0.745521
vt 0.117565 0.805194
vt 0.001778 0.805199
vt 0.001687 0.745157
vt 0.120339 0.932158
vt 0.120247 0.992199
vt 0.004461 0.992194
vt 0.004452 0.932522
vt 0.316387 0.973564
vt 0.403745 0.946905
vt 0.403745 0.916127
vt 0.316387 0.889468
vt 0.472249 0.924033
vt 0.554358 0.899673
vt 0.553223 0.917853
vt 0.484319 0.937369
vt 0.467612 0.962446
vt 0.467627 0.932237
vt 0.484316 0.957331
vt 0.554360 0.995024
vt 0.472249 0.970670
vt 0.553224 0.976846
vt 0.570732 0.907989
vt 0.570733 0.986710
vt 0.127459 0.937393
vt 0.131181 0.937388
vt 0.133933 0.976237
vt 0.130385 0.976339
vt 0.086002 0.814178
vt 0.090676 0.814023
vt 0.116259 0.921583
vt 0.111861 0.921999
vt 0.089550 0.809797
vt 0.188969 0.809797
vt 0.187843 0.814023
vt 0.322996 0.862758
vt 0.323000 0.867511
vt 0.283562 0.865993
vt 0.283578 0.861039
vt 0.116815 0.925898
vt 0.162260 0.921583
vt 0.161704 0.925898
vt 0.323000 0.809677
vt 0.322996 0.814430
vt 0.283578 0.816149
vt 0.283562 0.811195
vt 0.166658 0.921999
vt 0.192517 0.814178
vt 0.236104 0.937388
vt 0.239826 0.937393
vt 0.236900 0.976339
vt 0.233352 0.976237
vt 0.951971 0.003709
vt 0.991163 0.003709
vt 0.991163 0.112026
vt 0.951971 0.112026
vt 0.952218 0.118191
vt 0.991410 0.118191
vt 0.991410 0.226508
vt 0.952218 0.226508
vt 0.099899 0.821678
vt 0.124155 0.907324
vt 0.154364 0.907324
vt 0.178620 0.821678
s 1
usemtl lambert2SG
f 1/1/1 3/2/2 19/3/3 21/4/4
f 2/5/5 1/6/6 6/7/6 5/8/5
f 3/2/2 2/9/7 8/10/8 7/11/9
f 4/12/10 6/13/11 22/14/12 24/15/13
f 5/16/14 4/12/10 12/17/15 11/18/16
f 7/11/9 9/19/17 14/20/18 13/21/19
f 9/22/20 8/23/21 11/24/21 10/25/20
f 10/26/22 12/17/15 18/27/23 17/28/24
f 13/21/19 15/29/25 20/30/26 19/3/3
f 15/31/27 14/32/28 17/33/28 16/34/27
f 16/35/29 18/27/23 24/15/13 23/36/30
f 21/37/31 20/38/32 23/39/32 22/40/31
f 2/5/5 5/8/5 11/24/21 8/23/21
f 15/31/27 16/34/27 23/39/32 20/38/32
f 4/12/10 24/15/13 18/27/23 12/17/15
f 19/3/3 3/2/2 7/11/9 13/21/19
f 1/1/1 2/9/7 3/2/2
f 4/12/10 5/16/14 6/13/11
f 7/11/9 8/10/8 9/19/17
f 10/26/22 11/18/16 12/17/15
f 13/21/19 14/20/18 15/29/25
f 16/35/29 17/28/24 18/27/23
f 19/3/3 20/30/26 21/4/4
f 22/14/33 23/36/30 24/15/13
f 25/41/34 27/42/35 32/43/36 31/44/37
f 26/45/38 25/46/39 38/47/39 37/48/38
f 27/42/35 26/49/40 29/50/41 28/51/42
f 28/51/42 30/52/43 36/53/44 35/54/45
f 30/55/46 29/56/47 40/57/47 39/58/48
f 31/59/49 33/60/50 42/61/50 41/62/51
f 33/63/52 32/43/36 35/54/45 34/64/53
f 34/65/54 36/66/55 44/67/56 43/68/54
f 26/69/57 37/70/57 40/71/57 29/72/57
f 27/42/35 28/51/42 35/54/45 32/43/36
f 33/73/58 34/74/58 43/75/58 42/76/58
f 30/55/46 39/58/48 44/67/56 36/66/55
f 31/59/49 41/62/51 38/47/39 25/46/39
f 25/41/34 26/49/40 27/42/35
f 28/51/42 29/50/41 30/52/43
f 31/44/37 32/43/36 33/63/52
f 34/64/53 35/54/45 36/53/44
f 45/77/59 47/78/60 52/79/61 51/80/62
f 46/81/38 45/82/63 58/83/64 57/84/38
f 47/78/60 46/85/65 49/86/66 48/87/67
f 48/87/67 50/88/68 56/89/69 55/90/70
f 50/91/71 49/92/72 60/93/72 59/94/73
f 51/95/74 53/96/50 62/97/50 61/98/75
f 53/99/76 52/79/61 55/90/70 54/100/77
f 54/101/54 56/102/78 64/103/78 63/104/54
f 46/105/57 57/106/57 60/107/57 49/108/57
f 47/78/60 48/87/67 55/90/70 52/79/61
f 53/109/58 54/110/58 63/111/58 62/112/58
f 50/91/71 59/94/73 64/103/78 56/102/78
f 51/95/74 61/98/75 58/83/64 45/82/63
f 45/77/59 46/85/65 47/78/60
f 48/87/67 49/86/66 50/88/68
f 51/80/62 52/79/61 53/99/76
f 54/100/77 55/90/70 56/89/69
f 68/113/79 65/114/79 70/115/79 71/116/79
f 76/117/80 73/118/80 78/119/80 79/120/80
f 72/121/81 69/122/82 80/123/83 77/124/84
f 74/125/85 75/126/86 66/127/87 67/128/88
f 66/127/87 65/129/89 68/130/89 67/128/88
f 70/131/90 69/122/82 72/121/81 71/132/90
f 74/125/85 73/133/91 76/134/91 75/126/86
f 78/135/92 77/124/84 80/123/83 79/136/92
f 81/137/93 83/138/94 99/139/95 101/140/96
f 82/141/97 81/137/93 86/142/98 85/143/99
f 83/144/100 82/145/38 88/146/38 87/147/100
f 84/148/101 86/142/98 102/149/102 104/150/103
f 85/151/47 84/152/104 92/153/104 91/154/47
f 87/155/105 89/156/106 94/157/107 93/158/108
f 89/156/106 88/159/109 91/160/110 90/161/111
f 90/161/111 92/162/112 98/163/113 97/164/114
f 93/165/115 95/166/50 100/167/50 99/168/116
f 95/169/117 94/157/107 97/164/114 96/170/118
f 96/171/54 98/172/119 104/173/119 103/174/54
f 101/140/96 100/175/120 103/176/121 102/149/102
f 82/177/57 85/178/57 91/179/57 88/180/57
f 89/156/106 90/161/111 97/164/114 94/157/107
f 95/181/58 96/182/58 103/183/58 100/184/58
f 84/152/104 104/173/119 98/172/119 92/153/104
f 99/168/116 83/144/100 87/147/100 93/165/115
f 86/142/98 81/137/93 101/140/96 102/149/102
f 81/137/93 82/141/97 83/138/94
f 84/148/101 85/143/99 86/142/98
f 87/155/105 88/159/109 89/156/106
f 90/161/111 91/160/110 92/162/112
f 93/158/108 94/157/107 95/169/117
f 96/170/118 97/164/114 98/163/113
f 99/139/95 100/175/120 101/140/96
f 102/149/102 103/176/121 104/150/103
f 105/185/122 107/186/123 113/187/124 112/188/125
f 106/189/126 105/190/127 110/191/127 109/192/126
f 107/186/123 106/193/128 119/194/129 118/195/130
f 108/196/131 110/197/132 115/198/133 114/199/134
f 109/200/135 108/196/131 122/201/136 121/202/137
f 111/203/138 113/187/124 128/204/139 127/205/140
f 112/206/141 111/207/142 116/208/142 115/209/141
f 114/199/134 116/210/143 124/211/144 123/212/145
f 117/213/146 119/214/147 121/215/147 120/216/146
f 118/195/130 117/217/148 126/218/149 128/204/139
f 120/219/150 122/201/136 123/212/145 125/220/151
f 125/221/152 124/222/153 127/223/153 126/224/152
f 127/223/153 124/222/153 116/208/142 111/207/142
f 113/187/124 107/186/123 118/195/130 128/204/139
f 106/189/126 109/192/126 121/215/147 119/214/147
f 108/196/131 114/199/134 123/212/145 122/201/136
f 105/185/154 106/193/128 107/186/123
f 108/196/131 109/200/135 110/197/132
f 111/203/138 112/188/125 113/187/124
f 114/199/134 115/198/155 116/210/143
f 117/217/148 118/195/130 119/194/129
f 120/219/150 121/202/137 122/201/136
f 123/212/145 124/211/144 125/220/151
f 126/218/149 127/205/140 128/204/139
f 129/225/156 131/226/157 141/227/158 143/228/159
f 130/229/160 129/230/161 137/231/161 136/232/160
f 131/226/157 130/233/162 133/234/163 132/235/164
f 132/235/164 134/236/165 144/237/166 146/238/167
f 134/239/168 133/240/169 139/241/169 138/242/168
f 135/243/170 137/244/171 147/245/172 149/246/173
f 136/247/174 135/243/170 140/248/175 139/249/176
f 138/250/177 140/248/175 150/251/178 152/252/179
f 142/253/180 141/227/158 146/238/167 145/254/181
f 143/255/182 142/256/183 148/257/183 147/258/182
f 145/259/184 144/260/185 152/261/185 151/262/184
f 149/246/173 148/263/186 151/264/187 150/251/178
f 132/235/164 146/238/167 141/227/158 131/226/157
f 133/240/169 130/229/160 136/232/160 139/241/169
f 142/256/183 145/259/184 151/262/184 148/257/183
f 140/248/175 135/243/170 149/246/173 150/251/178
f 129/225/188 130/233/162 131/226/157
f 132/235/164 133/234/163 134/236/165
f 135/243/170 136/247/174 137/244/171
f 138/250/177 139/249/176 140/248/175
f 141/227/158 142/253/180 143/228/159
f 144/237/189 145/254/181 146/238/167
f 147/245/190 148/263/186 149/246/173
f 150/251/178 151/264/187 152/252/179
f 153/265/191 155/266/192 171/267/193 173/268/194
f 154/269/195 153/265/191 158/270/196 157/271/197
f 155/272/198 154/273/38 160/274/38 159/275/198
f 156/276/199 158/270/196 174/277/200 176/278/201
f 157/279/47 156/280/202 164/281/202 163/282/47
f 159/283/203 161/284/204 166/285/205 165/286/206
f 161/284/204 160/287/207 163/288/208 162/289/209
f 162/289/209 164/290/210 170/291/211 169/292/212
f 165/293/213 167/294/50 172/295/50 171/296/214
f 167/297/215 166/285/205 169/292/212 168/298/216
f 168/299/54 170/300/217 176/301/218 175/302/54
f 173/268/194 172/303/219 175/304/220 174/277/200
f 154/305/57 157/306/57 163/307/57 160/308/57
f 161/284/204 162/289/209 169/292/212 166/285/205
f 167/309/58 168/310/58 175/311/58 172/312/58
f 156/280/202 176/301/218 170/300/217 164/281/202
f 171/296/214 155/272/198 159/275/198 165/293/213
f 158/270/196 153/265/191 173/268/194 174/277/200
f 153/265/191 154/269/195 155/266/192
f 156/276/199 157/271/197 158/270/196
f 159/283/203 160/287/207 161/284/204
f 162/289/209 163/288/208 164/290/210
f 165/286/206 166/285/205 167/297/215
f 168/298/216 169/292/212 170/291/211
f 171/267/193 172/303/219 173/268/194
f 174/277/200 175/304/220 176/278/201
f 178/313/221 177/314/221 181/315/222 182/316/223
f 179/317/224 178/318/224 182/316/223 183/319/225
f 180/320/226 179/321/226 183/319/225 184/322/227
f 177/323/228 180/324/228 184/322/227 181/315/222
f 182/316/223 181/315/222 184/322/227 183/319/225
f 185/325/229 187/326/230 203/327/231 205/328/232
f 186/329/233 185/330/234 189/331/235 188/332/233
f 187/326/230 186/333/236 192/334/237 191/335/238
f 188/336/239 190/337/240 196/338/241 195/339/242
f 190/337/240 189/340/243 206/341/244 208/342/245
f 191/335/238 193/343/246 198/344/247 197/345/248
f 193/346/249 192/347/250 195/348/250 194/349/251
f 194/350/252 196/338/241 202/351/253 201/352/254
f 197/345/248 199/353/255 204/354/256 203/327/231
f 199/355/257 198/356/258 201/357/259 200/358/257
f 200/359/260 202/351/253 208/342/245 207/360/261
f 205/361/262 204/362/263 207/363/263 206/364/264
f 186/365/265 188/366/265 195/367/265 192/368/265
f 193/346/249 194/349/251 201/357/259 198/356/258
f 199/369/266 200/370/266 207/371/266 204/372/266
f 189/331/235 185/330/234 205/361/262 206/364/264
f 203/327/231 187/326/230 191/335/238 197/345/248
f 196/338/241 190/337/240 177/373/267 178/374/268
f 202/351/253 196/338/241 178/374/268 179/375/269
f 208/342/245 202/351/253 179/375/269 180/376/270
f 190/337/240 208/342/245 180/376/270 177/373/267
f 185/325/229 186/333/236 187/326/230
f 188/336/239 189/340/243 190/337/240
f 191/335/238 192/334/237 193/343/246
f 194/350/252 195/339/242 196/338/241
f 197/345/248 198/344/247 199/353/255
f 200/359/260 201/352/254 202/351/253
f 203/327/231 204/354/256 205/328/232
f 206/341/244 207/360/261 208/342/245
f 210/377/271 209/378/271 213/379/272 214/380/273
f 211/381/274 210/382/274 214/380/273 215/383/275
f 212/384/276 211/385/276 215/383/275 216/386/277
f 209/387/278 212/388/278 216/386/277 213/379/272
f 214/380/273 213/379/272 216/386/277 215/383/275
f 218/389/279 217/390/280 220/391/281 219/392/279
f 219/393/282 221/394/283 226/395/284 225/396/285
f 221/394/283 220/397/286 234/398/287 236/399/288
f 223/400/289 222/401/290 225/402/290 224/403/291
f 224/404/292 226/395/284 231/405/293 230/406/294
f 228/407/295 227/408/296 230/409/297 229/410/295
f 229/411/298 231/405/293 236/399/288 235/412/299
f 233/413/300 232/414/301 235/415/301 234/416/302
f 218/417/303 219/418/303 225/419/303 222/420/303
f 223/400/289 224/403/291 230/409/297 227/408/296
f 228/421/304 229/422/304 235/423/304 232/424/304
f 220/391/281 217/390/280 233/413/300 234/416/302
f 226/395/284 221/394/283 209/425/305 210/426/306
f 231/405/293 226/395/284 210/426/306 211/427/307
f 236/399/288 231/405/293 211/427/307 212/428/308
f 221/394/283 236/399/288 212/428/308 209/425/305
f 219/393/282 220/397/286 221/394/283
f 224/404/292 225/396/285 226/395/284
f 229/411/298 230/406/294 231/405/293
f 234/398/287 235/412/299 236/399/288
